{"glyphs":{"0":{"ha":833,"x_min":61,"x_max":797,"o":"m 407 -11 q 149 101 238 -11 q 61 426 61 213 q 108 730 61 603 q 241 924 154 857 q 450 990 328 990 q 708 878 619 990 q 797 553 797 767 q 751 249 797 376 q 617 56 704 122 q 407 -11 529 -11 m 413 154 q 542 264 497 154 q 588 583 588 374 q 553 767 588 708 q 446 825 519 825 q 316 715 361 825 q 271 396 271 604 q 306 213 271 271 q 413 154 340 154 z "},"1":{"ha":833,"x_min":119,"x_max":772,"o":"m 772 174 l 758 0 l 119 0 l 133 174 l 343 174 l 388 731 l 221 639 l 139 794 l 469 979 l 624 979 l 560 174 l 772 174 z "},"2":{"ha":835,"x_min":65,"x_max":765,"o":"m 353 174 l 753 174 l 739 0 l 65 0 l 78 160 l 432 504 q 553 714 553 621 q 519 794 553 767 q 421 822 486 822 q 160 728 296 822 l 104 882 q 447 992 238 992 q 680 918 594 992 q 765 715 765 844 q 724 565 765 636 q 585 397 683 493 l 353 174 z "},"3":{"ha":833,"x_min":29,"x_max":765,"o":"m 590 500 q 710 423 667 476 q 754 290 754 369 q 710 135 754 203 q 581 28 665 67 q 379 -11 496 -11 q 185 18 276 -11 q 29 99 94 47 l 110 253 q 382 158 240 158 q 506 192 464 158 q 549 290 549 226 q 508 382 549 353 q 386 411 468 411 l 249 411 l 263 579 l 379 579 q 510 613 465 579 q 556 713 556 647 q 521 794 556 765 q 419 822 486 822 q 160 728 289 822 l 104 882 q 256 963 167 933 q 446 992 346 992 q 612 960 539 992 q 725 873 685 929 q 765 743 765 817 q 720 594 765 657 q 590 500 675 532 z "},"4":{"ha":833,"x_min":35,"x_max":806,"o":"m 792 179 l 658 179 l 644 0 l 433 0 l 447 179 l 35 179 l 47 339 l 544 979 l 721 979 l 671 344 l 806 344 l 792 179 m 461 344 l 485 649 l 251 344 l 461 344 z "},"5":{"ha":833,"x_min":57,"x_max":789,"o":"m 486 633 q 642 597 574 633 q 748 494 710 560 q 786 344 786 429 q 740 154 786 235 q 608 31 693 74 q 407 -11 522 -11 q 214 17 304 -11 q 57 99 124 46 l 138 253 q 404 158 261 158 q 534 201 486 158 q 582 321 582 244 q 539 429 582 390 q 419 468 496 468 q 238 400 313 468 l 114 400 l 160 979 l 789 979 l 776 814 l 358 814 l 340 601 q 486 633 404 633 z "},"6":{"ha":833,"x_min":60,"x_max":828,"o":"m 492 633 q 642 595 576 633 q 745 489 708 557 q 782 333 782 421 q 738 156 782 235 q 617 32 694 76 q 443 -12 540 -12 q 160 101 260 -12 q 60 422 60 214 q 113 724 60 594 q 264 922 165 853 q 494 992 363 992 q 674 963 588 992 q 828 882 761 935 l 746 728 q 624 798 686 774 q 506 822 561 822 q 351 747 410 822 q 278 525 293 672 q 369 604 313 575 q 492 633 426 633 m 435 156 q 539 201 499 156 q 579 322 579 247 q 540 428 579 389 q 438 468 501 468 q 331 423 372 468 q 289 304 289 378 q 329 197 289 239 q 435 156 369 156 z "},"7":{"ha":833,"x_min":90,"x_max":819,"o":"m 819 979 l 807 818 l 318 0 l 90 0 l 572 806 l 103 806 l 115 979 l 819 979 z "},"8":{"ha":833,"x_min":33,"x_max":800,"o":"m 631 501 q 789 278 789 449 q 741 126 789 192 q 606 25 693 61 q 403 -11 518 -11 q 132 62 231 -11 q 33 261 33 135 q 85 416 33 351 q 228 506 138 481 q 128 588 163 535 q 94 714 94 642 q 192 917 94 842 q 454 992 289 992 q 710 925 619 992 q 800 736 800 858 q 753 593 800 657 q 631 501 707 529 m 454 826 q 338 794 378 826 q 299 699 299 763 q 337 610 299 642 q 443 578 375 578 q 556 612 517 578 q 596 710 596 646 q 454 826 596 826 m 406 154 q 540 189 494 154 q 586 290 586 224 q 546 382 586 351 q 421 413 506 413 q 236 278 236 413 q 279 187 236 219 q 406 154 322 154 z "},"9":{"ha":833,"x_min":29,"x_max":797,"o":"m 414 992 q 697 878 597 992 q 797 557 797 765 q 744 256 797 385 q 593 57 692 126 q 363 -12 494 -12 q 183 16 271 -12 q 29 97 96 44 l 111 251 q 233 181 171 206 q 353 157 296 157 q 507 233 449 157 q 579 454 565 308 q 488 375 544 404 q 365 346 431 346 q 215 384 281 346 q 112 490 149 422 q 75 646 75 558 q 119 824 75 744 q 240 947 163 903 q 414 992 317 992 m 419 511 q 528 556 486 511 q 569 675 569 601 q 531 782 569 740 q 431 824 492 824 q 321 778 363 824 q 279 657 279 732 q 317 551 279 590 q 419 511 356 511 z "},"\u0000":{"ha":0,"x_min":0,"x_max":0,"o":""},"\r":{"ha":388,"x_min":0,"x_max":0,"o":""}," ":{"ha":388,"x_min":0,"x_max":0,"o":""},"A":{"ha":1043,"x_min":-42,"x_max":1032,"o":"m 746 217 l 290 217 l 181 0 l -42 0 l 485 979 l 658 979 l 1032 0 l 822 0 l 746 217 m 688 381 l 558 749 l 372 381 l 688 381 z "},"Á":{"ha":1043,"x_min":-42,"x_max":1032,"o":"m 746 217 l 290 217 l 181 0 l -42 0 l 485 979 l 658 979 l 1032 0 l 822 0 l 746 217 m 688 381 l 558 749 l 372 381 l 688 381 m 513 1063 l 667 1279 l 871 1279 l 643 1063 l 513 1063 z "},"Ă":{"ha":1043,"x_min":-42,"x_max":1032,"o":"m 746 217 l 290 217 l 181 0 l -42 0 l 485 979 l 658 979 l 1032 0 l 822 0 l 746 217 m 688 381 l 558 749 l 372 381 l 688 381 m 589 1075 q 432 1116 499 1075 q 343 1226 365 1157 l 444 1267 q 504 1216 465 1233 q 593 1199 543 1199 q 680 1215 640 1199 q 744 1267 719 1232 l 838 1226 q 743 1116 810 1157 q 589 1075 676 1075 z "},"Ắ":{"ha":1043,"x_min":-42,"x_max":1032,"o":"m 746 217 l 290 217 l 181 0 l -42 0 l 485 979 l 658 979 l 1032 0 l 822 0 l 746 217 m 688 381 l 558 749 l 372 381 l 688 381 m 676 1407 l 868 1407 l 650 1211 l 528 1211 l 676 1407 m 586 1056 q 431 1094 496 1056 q 342 1207 365 1133 l 419 1239 q 490 1181 443 1201 q 594 1161 538 1161 q 690 1181 642 1161 q 763 1239 738 1201 l 836 1207 q 736 1094 804 1133 q 586 1056 668 1056 z "},"Ặ":{"ha":1043,"x_min":-42,"x_max":1032,"o":"m 746 217 l 290 217 l 181 0 l -42 0 l 485 979 l 658 979 l 1032 0 l 822 0 l 746 217 m 688 381 l 558 749 l 372 381 l 688 381 m 585 -93 l 569 -276 l 378 -276 l 393 -93 l 585 -93 m 589 1075 q 432 1116 499 1075 q 343 1226 365 1157 l 444 1267 q 504 1216 465 1233 q 593 1199 543 1199 q 680 1215 640 1199 q 744 1267 719 1232 l 838 1226 q 743 1116 810 1157 q 589 1075 676 1075 z "},"Ằ":{"ha":1043,"x_min":-42,"x_max":1032,"o":"m 746 217 l 290 217 l 181 0 l -42 0 l 485 979 l 658 979 l 1032 0 l 822 0 l 746 217 m 688 381 l 558 749 l 372 381 l 688 381 m 351 1407 l 521 1407 l 650 1211 l 528 1211 l 351 1407 m 586 1056 q 431 1094 496 1056 q 342 1207 365 1133 l 419 1239 q 490 1181 443 1201 q 594 1161 538 1161 q 690 1181 642 1161 q 763 1239 738 1201 l 836 1207 q 736 1094 804 1133 q 586 1056 668 1056 z "},"Ẳ":{"ha":1043,"x_min":-42,"x_max":1032,"o":"m 746 217 l 290 217 l 181 0 l -42 0 l 485 979 l 658 979 l 1032 0 l 822 0 l 746 217 m 688 381 l 558 749 l 372 381 l 688 381 m 540 1239 q 562 1280 543 1265 q 610 1307 581 1294 q 628 1315 621 1311 q 636 1324 636 1319 q 606 1335 636 1335 q 510 1321 564 1335 l 489 1393 q 624 1415 550 1415 q 727 1394 689 1415 q 765 1338 765 1372 q 747 1293 765 1308 q 694 1265 728 1278 q 656 1246 668 1254 q 642 1224 643 1238 l 640 1213 l 538 1213 l 540 1239 m 586 1056 q 431 1094 496 1056 q 342 1207 365 1133 l 419 1239 q 490 1181 443 1201 q 594 1161 538 1161 q 690 1181 642 1161 q 763 1239 738 1201 l 836 1207 q 736 1094 804 1133 q 586 1056 668 1056 z "},"Ẵ":{"ha":1043,"x_min":-42,"x_max":1032,"o":"m 746 217 l 290 217 l 181 0 l -42 0 l 485 979 l 658 979 l 1032 0 l 822 0 l 746 217 m 688 381 l 558 749 l 372 381 l 688 381 m 690 1264 q 638 1270 663 1264 q 581 1289 613 1276 q 497 1310 529 1310 q 442 1268 447 1310 l 351 1268 q 401 1374 354 1333 q 508 1414 447 1414 q 561 1408 536 1414 q 618 1389 586 1401 q 701 1368 669 1368 q 740 1377 725 1368 q 757 1410 754 1386 l 846 1410 q 797 1304 844 1344 q 690 1264 750 1264 m 586 1056 q 431 1094 496 1056 q 342 1207 365 1133 l 419 1239 q 490 1181 443 1201 q 594 1161 538 1161 q 690 1181 642 1161 q 763 1239 738 1201 l 836 1207 q 736 1094 804 1133 q 586 1056 668 1056 z "},"Â":{"ha":1043,"x_min":-42,"x_max":1032,"o":"m 746 217 l 290 217 l 181 0 l -42 0 l 485 979 l 658 979 l 1032 0 l 822 0 l 746 217 m 688 381 l 558 749 l 372 381 l 688 381 m 335 1063 l 535 1279 l 654 1279 l 821 1063 l 664 1063 l 592 1181 l 492 1063 l 335 1063 z "},"Ấ":{"ha":1043,"x_min":-42,"x_max":1032,"o":"m 746 217 l 290 217 l 181 0 l -42 0 l 485 979 l 658 979 l 1032 0 l 822 0 l 746 217 m 688 381 l 558 749 l 372 381 l 688 381 m 829 1407 l 1014 1407 l 822 1211 l 719 1211 l 829 1407 m 533 1256 l 653 1256 l 821 1063 l 668 1063 l 589 1161 l 490 1063 l 335 1063 l 533 1256 z "},"Ậ":{"ha":1043,"x_min":-42,"x_max":1032,"o":"m 746 217 l 290 217 l 181 0 l -42 0 l 485 979 l 658 979 l 1032 0 l 822 0 l 746 217 m 688 381 l 558 749 l 372 381 l 688 381 m 585 -93 l 569 -276 l 378 -276 l 393 -93 l 585 -93 m 335 1063 l 535 1279 l 654 1279 l 821 1063 l 664 1063 l 592 1181 l 492 1063 l 335 1063 z "},"Ầ":{"ha":1043,"x_min":-42,"x_max":1032,"o":"m 746 217 l 290 217 l 181 0 l -42 0 l 485 979 l 658 979 l 1032 0 l 822 0 l 746 217 m 688 381 l 558 749 l 372 381 l 688 381 m 629 1407 l 792 1407 l 881 1211 l 778 1211 l 629 1407 m 533 1256 l 653 1256 l 821 1063 l 668 1063 l 589 1161 l 490 1063 l 335 1063 l 533 1256 z "},"Ẩ":{"ha":1043,"x_min":-42,"x_max":1032,"o":"m 746 217 l 290 217 l 181 0 l -42 0 l 485 979 l 658 979 l 1032 0 l 822 0 l 746 217 m 688 381 l 558 749 l 372 381 l 688 381 m 721 1239 q 743 1280 724 1265 q 792 1307 763 1294 q 810 1315 803 1311 q 818 1324 818 1319 q 788 1335 818 1335 q 692 1321 746 1335 l 671 1393 q 806 1415 732 1415 q 908 1394 871 1415 q 946 1338 946 1372 q 927 1293 946 1308 q 875 1265 908 1278 q 838 1246 850 1254 q 824 1224 825 1238 l 822 1213 l 718 1213 l 721 1239 m 533 1256 l 653 1256 l 821 1063 l 668 1063 l 589 1161 l 490 1063 l 335 1063 l 533 1256 z "},"Ẫ":{"ha":1043,"x_min":-42,"x_max":1032,"o":"m 746 217 l 290 217 l 181 0 l -42 0 l 485 979 l 658 979 l 1032 0 l 822 0 l 746 217 m 688 381 l 558 749 l 372 381 l 688 381 m 692 1276 q 639 1283 664 1276 q 582 1301 614 1289 q 499 1321 526 1321 q 443 1279 449 1321 l 353 1279 q 402 1385 356 1344 q 510 1425 449 1425 q 563 1419 538 1425 q 619 1400 588 1413 q 703 1379 671 1379 q 741 1388 726 1379 q 758 1421 756 1397 l 847 1421 q 799 1316 846 1356 q 692 1276 753 1276 m 533 1256 l 653 1256 l 821 1063 l 668 1063 l 589 1161 l 490 1063 l 335 1063 l 533 1256 z "},"Ȁ":{"ha":1043,"x_min":-42,"x_max":1032,"o":"m 746 217 l 290 217 l 181 0 l -42 0 l 485 979 l 658 979 l 1032 0 l 822 0 l 746 217 m 688 381 l 558 749 l 372 381 l 688 381 m 311 1279 l 446 1279 l 533 1063 l 431 1063 l 311 1279 m 503 1279 l 638 1279 l 725 1063 l 622 1063 l 503 1279 z "},"Ä":{"ha":1043,"x_min":-42,"x_max":1032,"o":"m 746 217 l 290 217 l 181 0 l -42 0 l 485 979 l 658 979 l 1032 0 l 822 0 l 746 217 m 688 381 l 558 749 l 372 381 l 688 381 m 558 1263 l 543 1081 l 351 1081 l 365 1263 l 558 1263 m 822 1263 l 808 1081 l 615 1081 l 631 1263 l 822 1263 z "},"Ạ":{"ha":1043,"x_min":-42,"x_max":1032,"o":"m 746 217 l 290 217 l 181 0 l -42 0 l 485 979 l 658 979 l 1032 0 l 822 0 l 746 217 m 688 381 l 558 749 l 372 381 l 688 381 m 585 -93 l 569 -276 l 378 -276 l 393 -93 l 585 -93 z "},"À":{"ha":1043,"x_min":-42,"x_max":1032,"o":"m 746 217 l 290 217 l 181 0 l -42 0 l 485 979 l 658 979 l 1032 0 l 822 0 l 746 217 m 688 381 l 558 749 l 372 381 l 688 381 m 328 1279 l 511 1279 l 643 1063 l 513 1063 l 328 1279 z "},"Ả":{"ha":1043,"x_min":-42,"x_max":1032,"o":"m 746 217 l 290 217 l 181 0 l -42 0 l 485 979 l 658 979 l 1032 0 l 822 0 l 746 217 m 688 381 l 558 749 l 372 381 l 688 381 m 629 1063 l 526 1063 l 529 1093 q 547 1131 531 1118 q 592 1157 563 1143 q 617 1169 608 1163 q 626 1183 626 1175 q 617 1197 626 1192 q 586 1203 607 1203 q 501 1186 546 1203 l 479 1263 q 611 1285 543 1285 q 717 1261 678 1285 q 756 1201 756 1238 q 738 1157 756 1172 q 683 1125 719 1142 q 644 1103 657 1113 q 631 1081 632 1094 l 629 1063 z "},"Ȃ":{"ha":1043,"x_min":-42,"x_max":1032,"o":"m 746 217 l 290 217 l 181 0 l -42 0 l 485 979 l 658 979 l 1032 0 l 822 0 l 746 217 m 688 381 l 558 749 l 372 381 l 688 381 m 583 1268 q 740 1227 674 1268 q 829 1117 807 1186 l 728 1075 q 668 1126 707 1108 q 579 1144 629 1144 q 428 1075 478 1144 l 335 1117 q 430 1227 364 1186 q 583 1268 496 1268 z "},"Ā":{"ha":1043,"x_min":-42,"x_max":1032,"o":"m 746 217 l 290 217 l 181 0 l -42 0 l 485 979 l 658 979 l 1032 0 l 822 0 l 746 217 m 688 381 l 558 749 l 372 381 l 688 381 m 375 1236 l 810 1236 l 800 1106 l 365 1106 l 375 1236 z "},"Ą":{"ha":1043,"x_min":-42,"x_max":1032,"o":"m 925 -165 q 1004 -147 954 -165 l 1019 -246 q 889 -274 956 -274 q 762 -233 810 -274 q 714 -126 714 -192 q 813 29 714 -22 l 746 217 l 290 217 l 181 0 l -42 0 l 485 979 l 658 979 l 1032 0 l 961 0 q 883 -28 914 0 q 851 -94 851 -56 q 872 -147 851 -128 q 925 -165 892 -165 m 688 381 l 558 749 l 372 381 l 688 381 z "},"Å":{"ha":1043,"x_min":-42,"x_max":1032,"o":"m 746 217 l 290 217 l 181 0 l -42 0 l 479 968 q 429 1081 429 1014 q 473 1186 429 1143 q 581 1229 517 1229 q 688 1186 644 1229 q 732 1081 732 1143 q 715 1009 732 1042 q 667 957 697 976 l 1032 0 l 822 0 l 746 217 m 581 1143 q 538 1125 554 1143 q 521 1081 521 1107 q 538 1035 521 1053 q 581 1017 554 1017 q 624 1035 607 1017 q 640 1081 640 1053 q 624 1125 640 1107 q 581 1143 607 1143 m 688 381 l 558 749 l 372 381 l 688 381 z "},"Ǻ":{"ha":1043,"x_min":-42,"x_max":1032,"o":"m 746 217 l 290 217 l 181 0 l -42 0 l 479 968 q 429 1081 429 1014 q 473 1186 429 1143 q 581 1229 517 1229 q 651 1213 619 1229 l 747 1314 l 951 1314 l 721 1138 q 732 1081 732 1108 q 715 1009 732 1042 q 667 957 697 976 l 1032 0 l 822 0 l 746 217 m 581 1143 q 538 1125 554 1143 q 521 1081 521 1107 q 538 1035 521 1053 q 581 1017 554 1017 q 624 1035 607 1017 q 640 1081 640 1053 q 624 1125 640 1107 q 581 1143 607 1143 m 688 381 l 558 749 l 372 381 l 688 381 z "},"Ã":{"ha":1043,"x_min":-42,"x_max":1032,"o":"m 746 217 l 290 217 l 181 0 l -42 0 l 485 979 l 658 979 l 1032 0 l 822 0 l 746 217 m 688 381 l 558 749 l 372 381 l 688 381 m 338 1072 q 389 1226 343 1176 q 503 1275 435 1275 q 553 1265 529 1275 q 607 1233 576 1254 q 649 1209 633 1217 q 682 1201 665 1201 q 726 1219 708 1201 q 746 1271 743 1236 l 836 1271 q 784 1117 831 1167 q 669 1068 738 1068 q 620 1078 643 1068 q 567 1108 597 1089 q 524 1133 540 1125 q 492 1140 508 1140 q 448 1124 465 1140 q 428 1072 431 1107 l 338 1072 z "},"Æ":{"ha":1389,"x_min":-69,"x_max":1388,"o":"m 838 811 l 871 582 l 1329 582 l 1317 414 l 894 414 l 931 168 l 1325 168 l 1311 0 l 760 0 l 729 217 l 315 217 l 169 0 l -69 0 l 624 979 l 1388 979 l 1375 811 l 838 811 m 706 381 l 656 725 l 425 381 l 706 381 z "},"Ǽ":{"ha":1389,"x_min":-69,"x_max":1388,"o":"m 838 811 l 871 582 l 1329 582 l 1317 414 l 894 414 l 931 168 l 1325 168 l 1311 0 l 760 0 l 729 217 l 315 217 l 169 0 l -69 0 l 624 979 l 1388 979 l 1375 811 l 838 811 m 706 381 l 656 725 l 425 381 l 706 381 m 693 1063 l 847 1279 l 1051 1279 l 824 1063 l 693 1063 z "},"B":{"ha":957,"x_min":71,"x_max":913,"o":"m 739 504 q 858 422 815 483 q 900 279 900 361 q 803 73 900 146 q 543 0 707 0 l 71 0 l 147 979 l 585 979 q 828 913 744 979 q 913 733 913 846 q 739 504 913 569 m 533 581 q 662 609 621 581 q 703 701 703 638 q 550 814 703 814 l 346 814 l 328 581 l 533 581 m 525 165 q 657 195 615 165 q 699 293 699 225 q 660 385 699 354 q 542 415 622 415 l 315 415 l 296 165 l 525 165 z "},"C":{"ha":942,"x_min":81,"x_max":932,"o":"m 543 -12 q 297 44 401 -12 q 137 208 193 101 q 81 457 81 314 q 144 739 81 618 q 322 926 207 860 q 592 992 438 992 q 779 963 692 992 q 932 879 867 935 l 851 725 q 729 796 789 774 q 600 818 669 818 q 380 722 458 818 q 301 457 301 625 q 365 237 301 313 q 551 161 429 161 q 814 254 674 161 l 871 100 q 728 18 817 49 q 543 -12 640 -12 z "},"Ć":{"ha":942,"x_min":81,"x_max":932,"o":"m 543 -12 q 297 44 401 -12 q 137 208 193 101 q 81 457 81 314 q 144 739 81 618 q 322 926 207 860 q 592 992 438 992 q 779 963 692 992 q 932 879 867 935 l 851 725 q 729 796 789 774 q 600 818 669 818 q 380 722 458 818 q 301 457 301 625 q 365 237 301 313 q 551 161 429 161 q 814 254 674 161 l 871 100 q 728 18 817 49 q 543 -12 640 -12 m 539 1063 l 693 1279 l 897 1279 l 669 1063 l 539 1063 z "},"Č":{"ha":942,"x_min":81,"x_max":932,"o":"m 543 -12 q 297 44 401 -12 q 137 208 193 101 q 81 457 81 314 q 144 739 81 618 q 322 926 207 860 q 592 992 438 992 q 779 963 692 992 q 932 879 867 935 l 851 725 q 729 796 789 774 q 600 818 669 818 q 380 722 458 818 q 301 457 301 625 q 365 237 301 313 q 551 161 429 161 q 814 254 674 161 l 871 100 q 728 18 817 49 q 543 -12 640 -12 m 864 1279 l 664 1063 l 544 1063 l 378 1279 l 535 1279 l 617 1160 l 707 1279 l 864 1279 z "},"Ç":{"ha":942,"x_min":81,"x_max":932,"o":"m 871 100 q 736 20 819 50 q 561 -12 653 -10 l 551 -56 l 561 -56 q 644 -81 613 -56 q 676 -150 676 -106 q 627 -238 676 -203 q 492 -274 578 -274 q 417 -267 454 -274 q 353 -249 381 -261 l 374 -168 q 486 -187 436 -187 q 547 -151 547 -187 q 506 -125 547 -125 q 454 -133 482 -125 l 429 -104 l 450 -6 q 178 144 276 22 q 81 457 81 265 q 144 739 81 618 q 322 926 207 860 q 592 992 438 992 q 779 963 692 992 q 932 879 867 935 l 851 725 q 729 796 789 774 q 600 818 669 818 q 380 722 458 818 q 301 457 301 625 q 365 237 301 313 q 551 161 429 161 q 814 254 674 161 l 871 100 z "},"Ḉ":{"ha":942,"x_min":81,"x_max":932,"o":"m 669 1063 l 539 1063 l 693 1279 l 897 1279 l 669 1063 m 871 100 q 736 20 819 50 q 561 -12 653 -10 l 551 -56 l 561 -56 q 644 -81 613 -56 q 676 -150 676 -106 q 627 -238 676 -203 q 492 -274 578 -274 q 417 -267 454 -274 q 353 -249 381 -261 l 374 -168 q 486 -187 436 -187 q 547 -151 547 -187 q 506 -125 547 -125 q 454 -133 482 -125 l 429 -104 l 450 -6 q 178 144 276 22 q 81 457 81 265 q 144 739 81 618 q 322 926 207 860 q 592 992 438 992 q 779 963 692 992 q 932 879 867 935 l 851 725 q 729 796 789 774 q 600 818 669 818 q 380 722 458 818 q 301 457 301 625 q 365 237 301 313 q 551 161 429 161 q 814 254 674 161 l 871 100 z "},"Ĉ":{"ha":942,"x_min":81,"x_max":932,"o":"m 543 -12 q 297 44 401 -12 q 137 208 193 101 q 81 457 81 314 q 144 739 81 618 q 322 926 207 860 q 592 992 438 992 q 779 963 692 992 q 932 879 867 935 l 851 725 q 729 796 789 774 q 600 818 669 818 q 380 722 458 818 q 301 457 301 625 q 365 237 301 313 q 551 161 429 161 q 814 254 674 161 l 871 100 q 728 18 817 49 q 543 -12 640 -12 m 361 1063 l 561 1279 l 681 1279 l 847 1063 l 690 1063 l 618 1181 l 518 1063 l 361 1063 z "},"Ċ":{"ha":942,"x_min":81,"x_max":932,"o":"m 543 -12 q 297 44 401 -12 q 137 208 193 101 q 81 457 81 314 q 144 739 81 618 q 322 926 207 860 q 592 992 438 992 q 779 963 692 992 q 932 879 867 935 l 851 725 q 729 796 789 774 q 600 818 669 818 q 380 722 458 818 q 301 457 301 625 q 365 237 301 313 q 551 161 429 161 q 814 254 674 161 l 871 100 q 728 18 817 49 q 543 -12 640 -12 m 733 1269 l 718 1074 l 493 1074 l 508 1269 l 733 1269 z "},"D":{"ha":1060,"x_min":71,"x_max":1003,"o":"m 147 979 l 525 979 q 780 924 672 979 q 945 765 888 868 q 1003 522 1003 663 q 940 241 1003 358 q 756 62 876 124 q 468 0 636 0 l 71 0 l 147 979 m 450 175 q 704 261 621 175 q 788 524 788 347 q 714 733 788 661 q 497 804 640 804 l 350 804 l 301 175 l 450 175 z "},"Ǆ":{"ha":1886,"x_min":71,"x_max":1872,"o":"m 147 979 l 525 979 q 780 924 672 979 q 945 765 888 868 q 1003 522 1003 663 q 940 241 1003 358 q 756 62 876 124 q 468 0 636 0 l 71 0 l 147 979 m 450 175 q 704 261 621 175 q 788 524 788 347 q 714 733 788 661 q 497 804 640 804 l 350 804 l 301 175 l 450 175 m 1860 824 l 1343 171 l 1824 171 l 1810 0 l 1082 0 l 1093 158 l 1608 808 l 1144 808 l 1158 979 l 1872 979 l 1860 824 m 1781 1279 l 1581 1063 l 1461 1063 l 1294 1279 l 1451 1279 l 1533 1160 l 1624 1279 l 1781 1279 z "},"Ð":{"ha":1101,"x_min":26,"x_max":1044,"o":"m 567 979 q 822 924 714 979 q 987 765 929 868 q 1044 522 1044 663 q 981 241 1044 358 q 798 62 918 124 q 510 0 678 0 l 113 0 l 144 413 l 26 413 l 39 576 l 157 576 l 189 979 l 567 979 m 492 175 q 744 261 661 175 q 828 524 828 347 q 755 733 828 661 q 539 804 682 804 l 392 804 l 374 576 l 632 576 l 618 413 l 361 413 l 342 175 l 492 175 z "},"Ď":{"ha":1060,"x_min":71,"x_max":1003,"o":"m 147 979 l 525 979 q 780 924 672 979 q 945 765 888 868 q 1003 522 1003 663 q 940 241 1003 358 q 756 62 876 124 q 468 0 636 0 l 71 0 l 147 979 m 450 175 q 704 261 621 175 q 788 524 788 347 q 714 733 788 661 q 497 804 640 804 l 350 804 l 301 175 l 450 175 m 846 1279 l 646 1063 l 526 1063 l 360 1279 l 517 1279 l 599 1160 l 689 1279 l 846 1279 z "},"Đ":{"ha":1101,"x_min":26,"x_max":1044,"o":"m 567 979 q 822 924 714 979 q 987 765 929 868 q 1044 522 1044 663 q 981 241 1044 358 q 798 62 918 124 q 510 0 678 0 l 113 0 l 144 413 l 26 413 l 39 576 l 157 576 l 189 979 l 567 979 m 492 175 q 744 261 661 175 q 828 524 828 347 q 755 733 828 661 q 539 804 682 804 l 392 804 l 374 576 l 632 576 l 618 413 l 361 413 l 342 175 l 492 175 z "},"Ḍ":{"ha":1060,"x_min":71,"x_max":1003,"o":"m 147 979 l 525 979 q 780 924 672 979 q 945 765 888 868 q 1003 522 1003 663 q 940 241 1003 358 q 756 62 876 124 q 468 0 636 0 l 71 0 l 147 979 m 450 175 q 704 261 621 175 q 788 524 788 347 q 714 733 788 661 q 497 804 640 804 l 350 804 l 301 175 l 450 175 m 592 -93 l 576 -276 l 385 -276 l 400 -93 l 592 -93 z "},"Ḏ":{"ha":1060,"x_min":71,"x_max":1003,"o":"m 147 979 l 525 979 q 780 924 672 979 q 945 765 888 868 q 1003 522 1003 663 q 940 241 1003 358 q 756 62 876 124 q 468 0 636 0 l 71 0 l 147 979 m 450 175 q 704 261 621 175 q 788 524 788 347 q 714 733 788 661 q 497 804 640 804 l 350 804 l 301 175 l 450 175 m 275 -124 l 710 -124 l 701 -246 l 267 -246 l 275 -124 z "},"ǅ":{"ha":1774,"x_min":71,"x_max":1740,"o":"m 147 979 l 525 979 q 780 924 672 979 q 945 765 888 868 q 1003 522 1003 663 q 940 241 1003 358 q 756 62 876 124 q 468 0 636 0 l 71 0 l 147 979 m 450 175 q 704 261 621 175 q 788 524 788 347 q 714 733 788 661 q 497 804 640 804 l 350 804 l 301 175 l 450 175 m 1729 542 l 1361 157 l 1713 157 l 1701 0 l 1097 0 l 1110 146 l 1472 525 l 1143 525 l 1156 682 l 1740 682 l 1729 542 m 1728 1056 l 1525 771 l 1400 771 l 1242 1056 l 1400 1056 l 1472 894 l 1561 1056 l 1728 1056 z "},"E":{"ha":824,"x_min":71,"x_max":824,"o":"m 346 811 l 328 582 l 764 582 l 750 414 l 315 414 l 296 168 l 760 168 l 746 0 l 71 0 l 149 979 l 824 979 l 811 811 l 346 811 z "},"É":{"ha":824,"x_min":71,"x_max":824,"o":"m 346 811 l 328 582 l 764 582 l 750 414 l 315 414 l 296 168 l 760 168 l 746 0 l 71 0 l 149 979 l 824 979 l 811 811 l 346 811 m 451 1063 l 606 1279 l 810 1279 l 582 1063 l 451 1063 z "},"Ĕ":{"ha":824,"x_min":71,"x_max":824,"o":"m 346 811 l 328 582 l 764 582 l 750 414 l 315 414 l 296 168 l 760 168 l 746 0 l 71 0 l 149 979 l 824 979 l 811 811 l 346 811 m 528 1075 q 371 1116 438 1075 q 282 1226 304 1157 l 383 1267 q 443 1216 404 1233 q 532 1199 482 1199 q 619 1215 579 1199 q 683 1267 658 1232 l 776 1226 q 682 1116 749 1157 q 528 1075 615 1075 z "},"Ě":{"ha":824,"x_min":71,"x_max":824,"o":"m 346 811 l 328 582 l 764 582 l 750 414 l 315 414 l 296 168 l 760 168 l 746 0 l 71 0 l 149 979 l 824 979 l 811 811 l 346 811 m 776 1279 l 576 1063 l 457 1063 l 290 1279 l 447 1279 l 529 1160 l 619 1279 l 776 1279 z "},"Ȩ":{"ha":824,"x_min":71,"x_max":824,"o":"m 346 811 l 328 582 l 764 582 l 750 414 l 315 414 l 296 168 l 760 168 l 746 0 l 476 0 l 464 -56 l 474 -56 q 557 -81 525 -56 q 589 -150 589 -106 q 540 -238 589 -203 q 404 -274 490 -274 q 330 -267 367 -274 q 265 -249 293 -261 l 286 -168 q 399 -187 349 -187 q 460 -151 460 -187 q 418 -125 460 -125 q 367 -133 394 -125 l 342 -104 l 364 0 l 71 0 l 149 979 l 824 979 l 811 811 l 346 811 z "},"Ḝ":{"ha":824,"x_min":71,"x_max":824,"o":"m 528 1075 q 371 1116 438 1075 q 282 1226 304 1157 l 383 1267 q 443 1216 404 1233 q 532 1199 482 1199 q 619 1215 579 1199 q 683 1267 658 1232 l 776 1226 q 682 1116 749 1157 q 528 1075 615 1075 m 346 811 l 328 582 l 764 582 l 750 414 l 315 414 l 296 168 l 760 168 l 746 0 l 476 0 l 464 -56 l 474 -56 q 557 -81 525 -56 q 589 -150 589 -106 q 540 -238 589 -203 q 404 -274 490 -274 q 330 -267 367 -274 q 265 -249 293 -261 l 286 -168 q 399 -187 349 -187 q 460 -151 460 -187 q 418 -125 460 -125 q 367 -133 394 -125 l 342 -104 l 364 0 l 71 0 l 149 979 l 824 979 l 811 811 l 346 811 z "},"Ê":{"ha":824,"x_min":71,"x_max":824,"o":"m 346 811 l 328 582 l 764 582 l 750 414 l 315 414 l 296 168 l 760 168 l 746 0 l 71 0 l 149 979 l 824 979 l 811 811 l 346 811 m 274 1063 l 474 1279 l 593 1279 l 760 1063 l 603 1063 l 531 1181 l 431 1063 l 274 1063 z "},"Ế":{"ha":824,"x_min":71,"x_max":953,"o":"m 346 811 l 328 582 l 764 582 l 750 414 l 315 414 l 296 168 l 760 168 l 746 0 l 71 0 l 149 979 l 824 979 l 811 811 l 346 811 m 768 1407 l 953 1407 l 761 1211 l 658 1211 l 768 1407 m 472 1256 l 592 1256 l 760 1063 l 607 1063 l 528 1161 l 429 1063 l 274 1063 l 472 1256 z "},"Ệ":{"ha":824,"x_min":71,"x_max":824,"o":"m 346 811 l 328 582 l 764 582 l 750 414 l 315 414 l 296 168 l 760 168 l 746 0 l 71 0 l 149 979 l 824 979 l 811 811 l 346 811 m 522 -93 l 507 -276 l 315 -276 l 331 -93 l 522 -93 m 274 1063 l 474 1279 l 593 1279 l 760 1063 l 603 1063 l 531 1181 l 431 1063 l 274 1063 z "},"Ề":{"ha":824,"x_min":71,"x_max":824,"o":"m 346 811 l 328 582 l 764 582 l 750 414 l 315 414 l 296 168 l 760 168 l 746 0 l 71 0 l 149 979 l 824 979 l 811 811 l 346 811 m 568 1407 l 731 1407 l 819 1211 l 717 1211 l 568 1407 m 472 1256 l 592 1256 l 760 1063 l 607 1063 l 528 1161 l 429 1063 l 274 1063 l 472 1256 z "},"Ể":{"ha":824,"x_min":71,"x_max":885,"o":"m 346 811 l 328 582 l 764 582 l 750 414 l 315 414 l 296 168 l 760 168 l 746 0 l 71 0 l 149 979 l 824 979 l 811 811 l 346 811 m 660 1239 q 682 1280 663 1265 q 731 1307 701 1294 q 749 1315 742 1311 q 757 1324 757 1319 q 726 1335 757 1335 q 631 1321 685 1335 l 610 1393 q 744 1415 671 1415 q 847 1394 810 1415 q 885 1338 885 1372 q 866 1293 885 1308 q 814 1265 847 1278 q 776 1246 789 1254 q 763 1224 764 1238 l 761 1213 l 657 1213 l 660 1239 m 472 1256 l 592 1256 l 760 1063 l 607 1063 l 528 1161 l 429 1063 l 274 1063 l 472 1256 z "},"Ễ":{"ha":824,"x_min":71,"x_max":824,"o":"m 346 811 l 328 582 l 764 582 l 750 414 l 315 414 l 296 168 l 760 168 l 746 0 l 71 0 l 149 979 l 824 979 l 811 811 l 346 811 m 631 1276 q 578 1283 603 1276 q 521 1301 553 1289 q 438 1321 465 1321 q 382 1279 388 1321 l 292 1279 q 341 1385 294 1344 q 449 1425 388 1425 q 501 1419 476 1425 q 558 1400 526 1413 q 642 1379 610 1379 q 680 1388 665 1379 q 697 1421 694 1397 l 786 1421 q 738 1316 785 1356 q 631 1276 692 1276 m 472 1256 l 592 1256 l 760 1063 l 607 1063 l 528 1161 l 429 1063 l 274 1063 l 472 1256 z "},"Ȅ":{"ha":824,"x_min":71,"x_max":824,"o":"m 346 811 l 328 582 l 764 582 l 750 414 l 315 414 l 296 168 l 760 168 l 746 0 l 71 0 l 149 979 l 824 979 l 811 811 l 346 811 m 250 1279 l 385 1279 l 472 1063 l 369 1063 l 250 1279 m 442 1279 l 576 1279 l 664 1063 l 561 1063 l 442 1279 z "},"Ë":{"ha":824,"x_min":71,"x_max":824,"o":"m 346 811 l 328 582 l 764 582 l 750 414 l 315 414 l 296 168 l 760 168 l 746 0 l 71 0 l 149 979 l 824 979 l 811 811 l 346 811 m 497 1263 l 482 1081 l 290 1081 l 304 1263 l 497 1263 m 761 1263 l 747 1081 l 554 1081 l 569 1263 l 761 1263 z "},"Ė":{"ha":824,"x_min":71,"x_max":824,"o":"m 346 811 l 328 582 l 764 582 l 750 414 l 315 414 l 296 168 l 760 168 l 746 0 l 71 0 l 149 979 l 824 979 l 811 811 l 346 811 m 646 1269 l 631 1074 l 406 1074 l 421 1269 l 646 1269 z "},"Ẹ":{"ha":824,"x_min":71,"x_max":824,"o":"m 346 811 l 328 582 l 764 582 l 750 414 l 315 414 l 296 168 l 760 168 l 746 0 l 71 0 l 149 979 l 824 979 l 811 811 l 346 811 m 522 -93 l 507 -276 l 315 -276 l 331 -93 l 522 -93 z "},"È":{"ha":824,"x_min":71,"x_max":824,"o":"m 346 811 l 328 582 l 764 582 l 750 414 l 315 414 l 296 168 l 760 168 l 746 0 l 71 0 l 149 979 l 824 979 l 811 811 l 346 811 m 267 1279 l 450 1279 l 582 1063 l 451 1063 l 267 1279 z "},"Ẻ":{"ha":824,"x_min":71,"x_max":824,"o":"m 346 811 l 328 582 l 764 582 l 750 414 l 315 414 l 296 168 l 760 168 l 746 0 l 71 0 l 149 979 l 824 979 l 811 811 l 346 811 m 568 1063 l 465 1063 l 468 1093 q 485 1131 469 1118 q 531 1157 501 1143 q 556 1169 547 1163 q 565 1183 565 1175 q 556 1197 565 1192 q 525 1203 546 1203 q 440 1186 485 1203 l 418 1263 q 550 1285 482 1285 q 656 1261 617 1285 q 694 1201 694 1238 q 676 1157 694 1172 q 622 1125 658 1142 q 583 1103 596 1113 q 569 1081 571 1094 l 568 1063 z "},"Ȇ":{"ha":824,"x_min":71,"x_max":824,"o":"m 346 811 l 328 582 l 764 582 l 750 414 l 315 414 l 296 168 l 760 168 l 746 0 l 71 0 l 149 979 l 824 979 l 811 811 l 346 811 m 522 1268 q 679 1227 613 1268 q 768 1117 746 1186 l 667 1075 q 607 1126 646 1108 q 518 1144 568 1144 q 367 1075 417 1144 l 274 1117 q 369 1227 303 1186 q 522 1268 435 1268 z "},"Ē":{"ha":824,"x_min":71,"x_max":824,"o":"m 346 811 l 328 582 l 764 582 l 750 414 l 315 414 l 296 168 l 760 168 l 746 0 l 71 0 l 149 979 l 824 979 l 811 811 l 346 811 m 314 1236 l 749 1236 l 739 1106 l 304 1106 l 314 1236 z "},"Ḗ":{"ha":824,"x_min":71,"x_max":828,"o":"m 346 811 l 328 582 l 764 582 l 750 414 l 315 414 l 296 168 l 760 168 l 746 0 l 71 0 l 149 979 l 824 979 l 811 811 l 346 811 m 314 1236 l 749 1236 l 739 1106 l 304 1106 l 314 1236 m 469 1285 l 624 1501 l 828 1501 l 600 1285 l 469 1285 z "},"Ḕ":{"ha":824,"x_min":71,"x_max":824,"o":"m 346 811 l 328 582 l 764 582 l 750 414 l 315 414 l 296 168 l 760 168 l 746 0 l 71 0 l 149 979 l 824 979 l 811 811 l 346 811 m 314 1236 l 749 1236 l 739 1106 l 304 1106 l 314 1236 m 285 1501 l 468 1501 l 600 1285 l 469 1285 l 285 1501 z "},"Ę":{"ha":824,"x_min":71,"x_max":822,"o":"m 346 811 l 328 582 l 764 582 l 750 414 l 315 414 l 296 168 l 760 168 l 746 0 l 717 0 q 641 -27 671 0 q 611 -94 611 -54 q 631 -147 611 -128 q 686 -165 651 -165 q 765 -147 715 -165 l 781 -246 q 650 -274 717 -274 q 522 -233 569 -274 q 475 -126 475 -192 q 490 -58 475 -90 q 536 0 506 -25 l 71 0 l 149 979 l 822 979 l 810 811 l 346 811 z "},"Ẽ":{"ha":824,"x_min":71,"x_max":824,"o":"m 346 811 l 328 582 l 764 582 l 750 414 l 315 414 l 296 168 l 760 168 l 746 0 l 71 0 l 149 979 l 824 979 l 811 811 l 346 811 m 276 1072 q 328 1226 282 1176 q 442 1275 374 1275 q 492 1265 468 1275 q 546 1233 515 1254 q 588 1209 572 1217 q 621 1201 604 1201 q 665 1219 647 1201 q 685 1271 682 1236 l 775 1271 q 723 1117 769 1167 q 608 1068 676 1068 q 559 1078 582 1068 q 506 1108 536 1089 q 463 1133 479 1125 q 431 1140 447 1140 q 387 1124 404 1140 q 367 1072 369 1107 l 276 1072 z "},"F":{"ha":794,"x_min":71,"x_max":808,"o":"m 349 808 l 331 583 l 750 583 l 736 413 l 317 413 l 285 0 l 71 0 l 149 979 l 808 979 l 796 808 l 349 808 z "},"G":{"ha":1025,"x_min":81,"x_max":956,"o":"m 956 540 l 918 64 q 752 8 849 28 q 551 -12 656 -12 q 299 44 406 -12 q 137 207 193 101 q 81 456 81 313 q 144 739 81 618 q 325 926 207 860 q 600 992 443 992 q 954 879 821 992 l 874 725 q 752 797 813 774 q 617 819 692 819 q 383 724 465 819 q 300 456 300 628 q 369 232 300 310 q 579 154 439 154 q 732 178 653 154 l 750 390 l 557 390 l 569 540 l 956 540 z "},"Ğ":{"ha":1025,"x_min":81,"x_max":956,"o":"m 956 540 l 918 64 q 752 8 849 28 q 551 -12 656 -12 q 299 44 406 -12 q 137 207 193 101 q 81 456 81 313 q 144 739 81 618 q 325 926 207 860 q 600 992 443 992 q 954 879 821 992 l 874 725 q 752 797 813 774 q 617 819 692 819 q 383 724 465 819 q 300 456 300 628 q 369 232 300 310 q 579 154 439 154 q 732 178 653 154 l 750 390 l 557 390 l 569 540 l 956 540 m 633 1075 q 476 1116 543 1075 q 388 1226 410 1157 l 489 1267 q 549 1216 510 1233 q 638 1199 588 1199 q 724 1215 685 1199 q 789 1267 764 1232 l 882 1226 q 788 1116 854 1157 q 633 1075 721 1075 z "},"Ǧ":{"ha":1025,"x_min":81,"x_max":956,"o":"m 956 540 l 918 64 q 752 8 849 28 q 551 -12 656 -12 q 299 44 406 -12 q 137 207 193 101 q 81 456 81 313 q 144 739 81 618 q 325 926 207 860 q 600 992 443 992 q 954 879 821 992 l 874 725 q 752 797 813 774 q 617 819 692 819 q 383 724 465 819 q 300 456 300 628 q 369 232 300 310 q 579 154 439 154 q 732 178 653 154 l 750 390 l 557 390 l 569 540 l 956 540 m 882 1279 l 682 1063 l 563 1063 l 396 1279 l 553 1279 l 635 1160 l 725 1279 l 882 1279 z "},"Ĝ":{"ha":1025,"x_min":81,"x_max":956,"o":"m 956 540 l 918 64 q 752 8 849 28 q 551 -12 656 -12 q 299 44 406 -12 q 137 207 193 101 q 81 456 81 313 q 144 739 81 618 q 325 926 207 860 q 600 992 443 992 q 954 879 821 992 l 874 725 q 752 797 813 774 q 617 819 692 819 q 383 724 465 819 q 300 456 300 628 q 369 232 300 310 q 579 154 439 154 q 732 178 653 154 l 750 390 l 557 390 l 569 540 l 956 540 m 379 1063 l 579 1279 l 699 1279 l 865 1063 l 708 1063 l 636 1181 l 536 1063 l 379 1063 z "},"Ģ":{"ha":1025,"x_min":81,"x_max":956,"o":"m 956 540 l 918 64 q 752 8 849 28 q 551 -12 656 -12 q 299 44 406 -12 q 137 207 193 101 q 81 456 81 313 q 144 739 81 618 q 325 926 207 860 q 600 992 443 992 q 954 879 821 992 l 874 725 q 752 797 813 774 q 617 819 692 819 q 383 724 465 819 q 300 456 300 628 q 369 232 300 310 q 579 154 439 154 q 732 178 653 154 l 750 390 l 557 390 l 569 540 l 956 540 m 644 -90 l 638 -181 q 610 -293 632 -244 q 538 -382 588 -342 l 467 -331 q 522 -249 510 -292 l 425 -249 l 438 -90 l 644 -90 z "},"Ġ":{"ha":1025,"x_min":81,"x_max":956,"o":"m 956 540 l 918 64 q 752 8 849 28 q 551 -12 656 -12 q 299 44 406 -12 q 137 207 193 101 q 81 456 81 313 q 144 739 81 618 q 325 926 207 860 q 600 992 443 992 q 954 879 821 992 l 874 725 q 752 797 813 774 q 617 819 692 819 q 383 724 465 819 q 300 456 300 628 q 369 232 300 310 q 579 154 439 154 q 732 178 653 154 l 750 390 l 557 390 l 569 540 l 956 540 m 751 1269 l 736 1074 l 511 1074 l 526 1269 l 751 1269 z "},"Ḡ":{"ha":1025,"x_min":81,"x_max":956,"o":"m 956 540 l 918 64 q 752 8 849 28 q 551 -12 656 -12 q 299 44 406 -12 q 137 207 193 101 q 81 456 81 313 q 144 739 81 618 q 325 926 207 860 q 600 992 443 992 q 954 879 821 992 l 874 725 q 752 797 813 774 q 617 819 692 819 q 383 724 465 819 q 300 456 300 628 q 369 232 300 310 q 579 154 439 154 q 732 178 653 154 l 750 390 l 557 390 l 569 540 l 956 540 m 419 1236 l 854 1236 l 844 1106 l 410 1106 l 419 1236 z "},"H":{"ha":1071,"x_min":71,"x_max":1024,"o":"m 1024 979 l 946 0 l 733 0 l 767 411 l 317 411 l 283 0 l 71 0 l 149 979 l 361 979 l 329 583 l 779 583 l 811 979 l 1024 979 z "},"Ħ":{"ha":1154,"x_min":50,"x_max":1175,"o":"m 1163 706 l 1068 706 l 1013 0 l 800 0 l 833 411 l 383 411 l 350 0 l 138 0 l 193 706 l 50 706 l 61 864 l 206 864 l 215 979 l 428 979 l 418 864 l 868 864 l 878 979 l 1090 979 l 1081 864 l 1175 864 l 1163 706 m 856 706 l 406 706 l 396 583 l 846 583 l 856 706 z "},"Ḫ":{"ha":1071,"x_min":71,"x_max":1024,"o":"m 1024 979 l 946 0 l 733 0 l 767 411 l 317 411 l 283 0 l 71 0 l 149 979 l 361 979 l 329 583 l 779 583 l 811 979 l 1024 979 m 493 -315 q 335 -263 404 -315 q 243 -114 267 -211 l 343 -74 q 411 -157 369 -131 q 503 -183 453 -183 q 665 -74 597 -183 l 758 -114 q 656 -264 729 -212 q 493 -315 583 -315 z "},"Ĥ":{"ha":1071,"x_min":71,"x_max":1024,"o":"m 1024 979 l 946 0 l 733 0 l 767 411 l 317 411 l 283 0 l 71 0 l 149 979 l 361 979 l 329 583 l 779 583 l 811 979 l 1024 979 m 350 1063 l 550 1279 l 669 1279 l 836 1063 l 679 1063 l 607 1181 l 507 1063 l 350 1063 z "},"Ḥ":{"ha":1071,"x_min":71,"x_max":1024,"o":"m 1024 979 l 946 0 l 733 0 l 767 411 l 317 411 l 283 0 l 71 0 l 149 979 l 361 979 l 329 583 l 779 583 l 811 979 l 1024 979 m 599 -93 l 583 -276 l 392 -276 l 407 -93 l 599 -93 z "},"I":{"ha":411,"x_min":71,"x_max":364,"o":"m 147 979 l 364 979 l 288 0 l 71 0 l 147 979 z "},"Í":{"ha":411,"x_min":71,"x_max":557,"o":"m 147 979 l 364 979 l 288 0 l 71 0 l 147 979 m 199 1063 l 353 1279 l 557 1279 l 329 1063 l 199 1063 z "},"Ĭ":{"ha":411,"x_min":29,"x_max":524,"o":"m 147 979 l 364 979 l 288 0 l 71 0 l 147 979 m 275 1075 q 118 1116 185 1075 q 29 1226 51 1157 l 131 1267 q 190 1216 151 1233 q 279 1199 229 1199 q 366 1215 326 1199 q 431 1267 406 1232 l 524 1226 q 429 1116 496 1157 q 275 1075 363 1075 z "},"Î":{"ha":411,"x_min":21,"x_max":507,"o":"m 147 979 l 364 979 l 288 0 l 71 0 l 147 979 m 21 1063 l 221 1279 l 340 1279 l 507 1063 l 350 1063 l 278 1181 l 178 1063 l 21 1063 z "},"Ȉ":{"ha":411,"x_min":-3,"x_max":411,"o":"m 147 979 l 364 979 l 288 0 l 71 0 l 147 979 m -3 1279 l 132 1279 l 219 1063 l 117 1063 l -3 1279 m 189 1279 l 324 1279 l 411 1063 l 308 1063 l 189 1279 z "},"Ï":{"ha":411,"x_min":38,"x_max":508,"o":"m 147 979 l 364 979 l 288 0 l 71 0 l 147 979 m 244 1263 l 229 1081 l 38 1081 l 51 1263 l 244 1263 m 508 1263 l 494 1081 l 301 1081 l 317 1263 l 508 1263 z "},"Ḯ":{"ha":411,"x_min":38,"x_max":575,"o":"m 147 979 l 364 979 l 288 0 l 71 0 l 147 979 m 244 1263 l 229 1081 l 38 1081 l 51 1263 l 244 1263 m 508 1263 l 494 1081 l 301 1081 l 317 1263 l 508 1263 m 217 1285 l 371 1501 l 575 1501 l 347 1285 l 217 1285 z "},"İ":{"ha":411,"x_min":71,"x_max":393,"o":"m 147 979 l 364 979 l 288 0 l 71 0 l 147 979 m 393 1269 l 378 1074 l 153 1074 l 168 1269 l 393 1269 z "},"Ị":{"ha":411,"x_min":63,"x_max":364,"o":"m 147 979 l 364 979 l 288 0 l 71 0 l 147 979 m 269 -93 l 254 -276 l 63 -276 l 78 -93 l 269 -93 z "},"Ì":{"ha":411,"x_min":14,"x_max":364,"o":"m 147 979 l 364 979 l 288 0 l 71 0 l 147 979 m 14 1279 l 197 1279 l 329 1063 l 199 1063 l 14 1279 z "},"Ỉ":{"ha":411,"x_min":71,"x_max":442,"o":"m 147 979 l 364 979 l 288 0 l 71 0 l 147 979 m 315 1063 l 213 1063 l 215 1093 q 233 1131 217 1118 q 278 1157 249 1143 q 303 1169 294 1163 q 313 1183 313 1175 q 303 1197 313 1192 q 272 1203 293 1203 q 188 1186 232 1203 l 165 1263 q 297 1285 229 1285 q 403 1261 364 1285 q 442 1201 442 1238 q 424 1157 442 1172 q 369 1125 406 1142 q 331 1103 343 1113 q 317 1081 318 1094 l 315 1063 z "},"Ȋ":{"ha":411,"x_min":21,"x_max":515,"o":"m 147 979 l 364 979 l 288 0 l 71 0 l 147 979 m 269 1268 q 426 1227 360 1268 q 515 1117 493 1186 l 414 1075 q 354 1126 393 1108 q 265 1144 315 1144 q 114 1075 164 1144 l 21 1117 q 116 1227 50 1186 q 269 1268 182 1268 z "},"Ī":{"ha":411,"x_min":51,"x_max":496,"o":"m 147 979 l 364 979 l 288 0 l 71 0 l 147 979 m 61 1236 l 496 1236 l 486 1106 l 51 1106 l 61 1236 z "},"Į":{"ha":411,"x_min":7,"x_max":364,"o":"m 218 -165 q 299 -147 249 -165 l 314 -246 q 182 -274 247 -274 q 55 -232 103 -274 q 7 -124 7 -190 q 71 7 7 -42 l 147 979 l 364 979 l 288 0 l 267 0 q 176 -26 207 0 q 144 -94 144 -53 q 165 -147 144 -128 q 218 -165 185 -165 z "},"Ĩ":{"ha":411,"x_min":24,"x_max":522,"o":"m 147 979 l 364 979 l 288 0 l 71 0 l 147 979 m 24 1072 q 75 1226 29 1176 q 189 1275 121 1275 q 239 1265 215 1275 q 293 1233 263 1254 q 335 1209 319 1217 q 368 1201 351 1201 q 412 1219 394 1201 q 432 1271 429 1236 l 522 1271 q 470 1117 517 1167 q 356 1068 424 1068 q 306 1078 329 1068 q 253 1108 283 1089 q 210 1133 226 1125 q 178 1140 194 1140 q 134 1124 151 1140 q 114 1072 117 1107 l 24 1072 z "},"J":{"ha":524,"x_min":-24,"x_max":476,"o":"m -24 160 l 74 165 q 169 199 139 169 q 206 296 200 229 l 258 979 l 476 979 l 424 299 q 332 77 413 151 q 96 -7 251 3 l -14 -14 l -24 160 z "},"Ĵ":{"ha":524,"x_min":-24,"x_max":618,"o":"m -24 160 l 74 165 q 169 199 139 169 q 206 296 200 229 l 258 979 l 476 979 l 424 299 q 332 77 413 151 q 96 -7 251 3 l -14 -14 l -24 160 m 132 1063 l 332 1279 l 451 1279 l 618 1063 l 461 1063 l 389 1181 l 289 1063 l 132 1063 z "},"K":{"ha":942,"x_min":71,"x_max":1031,"o":"m 542 503 l 972 0 l 719 0 l 322 450 l 288 0 l 71 0 l 147 979 l 364 979 l 331 546 l 765 979 l 1031 979 l 542 503 z "},"Ķ":{"ha":942,"x_min":71,"x_max":1031,"o":"m 542 503 l 972 0 l 719 0 l 322 450 l 288 0 l 71 0 l 147 979 l 364 979 l 331 546 l 765 979 l 1031 979 l 542 503 m 543 -90 l 536 -181 q 508 -293 531 -244 q 436 -382 486 -342 l 365 -331 q 421 -249 408 -292 l 324 -249 l 336 -90 l 543 -90 z "},"L":{"ha":782,"x_min":71,"x_max":738,"o":"m 149 979 l 365 979 l 301 176 l 738 176 l 725 0 l 71 0 l 149 979 z "},"Ǉ":{"ha":1310,"x_min":71,"x_max":1263,"o":"m 149 979 l 365 979 l 301 176 l 696 176 l 683 0 l 71 0 l 149 979 m 763 160 l 860 165 q 956 199 925 169 q 992 296 986 229 l 1046 979 l 1263 979 l 1210 299 q 1118 77 1199 151 q 882 -7 1038 3 l 772 -14 l 763 160 z "},"Ĺ":{"ha":782,"x_min":71,"x_max":738,"o":"m 149 979 l 365 979 l 301 176 l 738 176 l 725 0 l 71 0 l 149 979 m 197 1063 l 351 1279 l 556 1279 l 328 1063 l 197 1063 z "},"Ľ":{"ha":782,"x_min":71,"x_max":738,"o":"m 149 979 l 365 979 l 301 176 l 738 176 l 725 0 l 71 0 l 149 979 m 464 710 l 485 979 l 619 979 l 563 710 l 464 710 z "},"Ļ":{"ha":782,"x_min":71,"x_max":738,"o":"m 149 979 l 365 979 l 301 176 l 738 176 l 725 0 l 71 0 l 149 979 m 504 -90 l 497 -181 q 469 -293 492 -244 q 397 -382 447 -342 l 326 -331 q 382 -249 369 -292 l 285 -249 l 297 -90 l 504 -90 z "},"Ŀ":{"ha":782,"x_min":71,"x_max":738,"o":"m 149 979 l 365 979 l 301 176 l 738 176 l 725 0 l 71 0 l 149 979 m 676 588 l 660 393 l 435 393 l 451 588 l 676 588 z "},"Ḷ":{"ha":782,"x_min":71,"x_max":738,"o":"m 149 979 l 365 979 l 301 176 l 738 176 l 725 0 l 71 0 l 149 979 m 497 -93 l 482 -276 l 290 -276 l 306 -93 l 497 -93 z "},"ǈ":{"ha":1153,"x_min":71,"x_max":1132,"o":"m 149 979 l 365 979 l 301 176 l 738 176 l 725 0 l 71 0 l 149 979 m 1049 32 q 1009 -127 1040 -68 q 910 -217 978 -186 q 721 -254 842 -247 l 651 -258 l 646 -108 l 724 -103 q 806 -75 779 -99 q 836 1 832 -51 l 890 682 l 1100 682 l 1049 32 m 1132 1010 l 1117 814 l 892 814 l 907 1010 l 1132 1010 z "},"Ḻ":{"ha":782,"x_min":71,"x_max":738,"o":"m 149 979 l 365 979 l 301 176 l 738 176 l 725 0 l 71 0 l 149 979 m 181 -124 l 615 -124 l 607 -246 l 172 -246 l 181 -124 z "},"Ł":{"ha":824,"x_min":-14,"x_max":779,"o":"m 779 176 l 767 0 l 113 0 l 139 339 l 53 292 l -14 432 l 154 525 l 190 979 l 407 979 l 381 649 l 601 771 l 668 631 l 365 464 l 342 176 l 779 176 z "},"M":{"ha":1169,"x_min":74,"x_max":1119,"o":"m 1119 979 l 1042 0 l 851 0 l 897 579 l 640 161 l 501 161 l 308 569 l 264 0 l 74 0 l 151 979 l 322 979 l 588 389 l 951 979 l 1119 979 z "},"Ṃ":{"ha":1169,"x_min":74,"x_max":1119,"o":"m 1119 979 l 1042 0 l 851 0 l 897 579 l 640 161 l 501 161 l 308 569 l 264 0 l 74 0 l 151 979 l 322 979 l 588 389 l 951 979 l 1119 979 m 647 -93 l 632 -276 l 440 -276 l 456 -93 l 647 -93 z "},"N":{"ha":1044,"x_min":71,"x_max":997,"o":"m 997 979 l 919 0 l 758 0 l 322 614 l 272 0 l 71 0 l 149 979 l 308 979 l 746 364 l 794 979 l 997 979 z "},"Ǌ":{"ha":1568,"x_min":71,"x_max":1521,"o":"m 997 979 l 919 0 l 758 0 l 322 614 l 272 0 l 71 0 l 149 979 l 308 979 l 746 364 l 794 979 l 997 979 m 1021 160 l 1118 165 q 1214 199 1183 169 q 1250 296 1244 229 l 1303 979 l 1521 979 l 1468 299 q 1376 77 1457 151 q 1140 -7 1296 3 l 1031 -14 l 1021 160 z "},"Ń":{"ha":1044,"x_min":71,"x_max":997,"o":"m 997 979 l 919 0 l 758 0 l 322 614 l 272 0 l 71 0 l 149 979 l 308 979 l 746 364 l 794 979 l 997 979 m 514 1063 l 668 1279 l 872 1279 l 644 1063 l 514 1063 z "},"Ň":{"ha":1044,"x_min":71,"x_max":997,"o":"m 997 979 l 919 0 l 758 0 l 322 614 l 272 0 l 71 0 l 149 979 l 308 979 l 746 364 l 794 979 l 997 979 m 839 1279 l 639 1063 l 519 1063 l 353 1279 l 510 1279 l 592 1160 l 682 1279 l 839 1279 z "},"Ņ":{"ha":1044,"x_min":71,"x_max":997,"o":"m 997 979 l 919 0 l 758 0 l 322 614 l 272 0 l 71 0 l 149 979 l 308 979 l 746 364 l 794 979 l 997 979 m 593 -90 l 586 -181 q 558 -293 581 -244 q 486 -382 536 -342 l 415 -331 q 471 -249 458 -292 l 374 -249 l 386 -90 l 593 -90 z "},"Ṅ":{"ha":1044,"x_min":71,"x_max":997,"o":"m 997 979 l 919 0 l 758 0 l 322 614 l 272 0 l 71 0 l 149 979 l 308 979 l 746 364 l 794 979 l 997 979 m 708 1269 l 693 1074 l 468 1074 l 483 1269 l 708 1269 z "},"Ṇ":{"ha":1044,"x_min":71,"x_max":997,"o":"m 997 979 l 919 0 l 758 0 l 322 614 l 272 0 l 71 0 l 149 979 l 308 979 l 746 364 l 794 979 l 997 979 m 586 -93 l 571 -276 l 379 -276 l 394 -93 l 586 -93 z "},"Ŋ":{"ha":1044,"x_min":71,"x_max":997,"o":"m 997 979 l 924 53 q 831 -171 911 -96 q 597 -254 751 -246 l 486 -261 l 475 -99 l 579 -93 q 679 -55 643 -87 q 719 36 715 -22 l 721 53 l 322 614 l 272 0 l 71 0 l 149 979 l 308 979 l 746 364 l 794 979 l 997 979 z "},"ǋ":{"ha":1415,"x_min":71,"x_max":1394,"o":"m 997 979 l 919 0 l 758 0 l 322 614 l 272 0 l 71 0 l 149 979 l 308 979 l 746 364 l 794 979 l 997 979 m 1311 32 q 1272 -127 1303 -68 q 1172 -217 1240 -186 q 983 -254 1104 -247 l 914 -258 l 908 -108 l 986 -103 q 1068 -75 1042 -99 q 1099 1 1094 -51 l 1153 682 l 1363 682 l 1311 32 m 1394 1010 l 1379 814 l 1154 814 l 1169 1010 l 1394 1010 z "},"Ṉ":{"ha":1044,"x_min":71,"x_max":997,"o":"m 997 979 l 919 0 l 758 0 l 322 614 l 272 0 l 71 0 l 149 979 l 308 979 l 746 364 l 794 979 l 997 979 m 269 -124 l 704 -124 l 696 -246 l 261 -246 l 269 -124 z "},"Ñ":{"ha":1044,"x_min":71,"x_max":997,"o":"m 997 979 l 919 0 l 758 0 l 322 614 l 272 0 l 71 0 l 149 979 l 308 979 l 746 364 l 794 979 l 997 979 m 339 1072 q 390 1226 344 1176 q 504 1275 436 1275 q 554 1265 531 1275 q 608 1233 578 1254 q 651 1209 635 1217 q 683 1201 667 1201 q 727 1219 710 1201 q 747 1271 744 1236 l 838 1271 q 785 1117 832 1167 q 671 1068 739 1068 q 622 1078 644 1068 q 568 1108 599 1089 q 526 1133 542 1125 q 493 1140 510 1140 q 449 1124 467 1140 q 429 1072 432 1107 l 339 1072 z "},"O":{"ha":1093,"x_min":81,"x_max":1038,"o":"m 551 -14 q 302 43 408 -14 q 138 206 196 100 q 81 457 81 313 q 140 738 81 617 q 310 926 200 860 q 565 993 421 993 q 815 936 708 993 q 980 773 922 879 q 1038 522 1038 667 q 977 241 1038 363 q 807 53 917 119 q 551 -14 697 -14 m 550 156 q 748 253 675 156 q 821 522 821 350 q 755 745 821 667 q 568 824 689 824 q 369 726 442 824 q 297 457 297 628 q 363 234 297 313 q 550 156 428 156 z "},"Ó":{"ha":1093,"x_min":81,"x_max":1038,"o":"m 551 -14 q 302 43 408 -14 q 138 206 196 100 q 81 457 81 313 q 140 738 81 617 q 310 926 200 860 q 565 993 421 993 q 815 936 708 993 q 980 773 922 879 q 1038 522 1038 667 q 977 241 1038 363 q 807 53 917 119 q 551 -14 697 -14 m 550 156 q 748 253 675 156 q 821 522 821 350 q 755 745 821 667 q 568 824 689 824 q 369 726 442 824 q 297 457 297 628 q 363 234 297 313 q 550 156 428 156 m 538 1063 l 692 1279 l 896 1279 l 668 1063 l 538 1063 z "},"Ŏ":{"ha":1093,"x_min":81,"x_max":1038,"o":"m 551 -14 q 302 43 408 -14 q 138 206 196 100 q 81 457 81 313 q 140 738 81 617 q 310 926 200 860 q 565 993 421 993 q 815 936 708 993 q 980 773 922 879 q 1038 522 1038 667 q 977 241 1038 363 q 807 53 917 119 q 551 -14 697 -14 m 550 156 q 748 253 675 156 q 821 522 821 350 q 755 745 821 667 q 568 824 689 824 q 369 726 442 824 q 297 457 297 628 q 363 234 297 313 q 550 156 428 156 m 614 1075 q 457 1116 524 1075 q 368 1226 390 1157 l 469 1267 q 529 1216 490 1233 q 618 1199 568 1199 q 705 1215 665 1199 q 769 1267 744 1232 l 863 1226 q 768 1116 835 1157 q 614 1075 701 1075 z "},"Ô":{"ha":1093,"x_min":81,"x_max":1038,"o":"m 551 -14 q 302 43 408 -14 q 138 206 196 100 q 81 457 81 313 q 140 738 81 617 q 310 926 200 860 q 565 993 421 993 q 815 936 708 993 q 980 773 922 879 q 1038 522 1038 667 q 977 241 1038 363 q 807 53 917 119 q 551 -14 697 -14 m 550 156 q 748 253 675 156 q 821 522 821 350 q 755 745 821 667 q 568 824 689 824 q 369 726 442 824 q 297 457 297 628 q 363 234 297 313 q 550 156 428 156 m 360 1063 l 560 1279 l 679 1279 l 846 1063 l 689 1063 l 617 1181 l 517 1063 l 360 1063 z "},"Ố":{"ha":1093,"x_min":81,"x_max":1039,"o":"m 551 -14 q 302 43 408 -14 q 138 206 196 100 q 81 457 81 313 q 140 738 81 617 q 310 926 200 860 q 565 993 421 993 q 815 936 708 993 q 980 773 922 879 q 1038 522 1038 667 q 977 241 1038 363 q 807 53 917 119 q 551 -14 697 -14 m 550 156 q 748 253 675 156 q 821 522 821 350 q 755 745 821 667 q 568 824 689 824 q 369 726 442 824 q 297 457 297 628 q 363 234 297 313 q 550 156 428 156 m 854 1407 l 1039 1407 l 847 1211 l 744 1211 l 854 1407 m 558 1256 l 678 1256 l 846 1063 l 693 1063 l 614 1161 l 515 1063 l 360 1063 l 558 1256 z "},"Ộ":{"ha":1093,"x_min":81,"x_max":1038,"o":"m 551 -14 q 302 43 408 -14 q 138 206 196 100 q 81 457 81 313 q 140 738 81 617 q 310 926 200 860 q 565 993 421 993 q 815 936 708 993 q 980 773 922 879 q 1038 522 1038 667 q 977 241 1038 363 q 807 53 917 119 q 551 -14 697 -14 m 550 156 q 748 253 675 156 q 821 522 821 350 q 755 745 821 667 q 568 824 689 824 q 369 726 442 824 q 297 457 297 628 q 363 234 297 313 q 550 156 428 156 m 610 -93 l 594 -276 l 403 -276 l 418 -93 l 610 -93 m 360 1063 l 560 1279 l 679 1279 l 846 1063 l 689 1063 l 617 1181 l 517 1063 l 360 1063 z "},"Ồ":{"ha":1093,"x_min":81,"x_max":1038,"o":"m 551 -14 q 302 43 408 -14 q 138 206 196 100 q 81 457 81 313 q 140 738 81 617 q 310 926 200 860 q 565 993 421 993 q 815 936 708 993 q 980 773 922 879 q 1038 522 1038 667 q 977 241 1038 363 q 807 53 917 119 q 551 -14 697 -14 m 550 156 q 748 253 675 156 q 821 522 821 350 q 755 745 821 667 q 568 824 689 824 q 369 726 442 824 q 297 457 297 628 q 363 234 297 313 q 550 156 428 156 m 654 1407 l 817 1407 l 906 1211 l 803 1211 l 654 1407 m 558 1256 l 678 1256 l 846 1063 l 693 1063 l 614 1161 l 515 1063 l 360 1063 l 558 1256 z "},"Ổ":{"ha":1093,"x_min":81,"x_max":1038,"o":"m 551 -14 q 302 43 408 -14 q 138 206 196 100 q 81 457 81 313 q 140 738 81 617 q 310 926 200 860 q 565 993 421 993 q 815 936 708 993 q 980 773 922 879 q 1038 522 1038 667 q 977 241 1038 363 q 807 53 917 119 q 551 -14 697 -14 m 550 156 q 748 253 675 156 q 821 522 821 350 q 755 745 821 667 q 568 824 689 824 q 369 726 442 824 q 297 457 297 628 q 363 234 297 313 q 550 156 428 156 m 746 1239 q 768 1280 749 1265 q 817 1307 788 1294 q 835 1315 828 1311 q 843 1324 843 1319 q 813 1335 843 1335 q 717 1321 771 1335 l 696 1393 q 831 1415 757 1415 q 933 1394 896 1415 q 971 1338 971 1372 q 952 1293 971 1308 q 900 1265 933 1278 q 863 1246 875 1254 q 849 1224 850 1238 l 847 1213 l 743 1213 l 746 1239 m 558 1256 l 678 1256 l 846 1063 l 693 1063 l 614 1161 l 515 1063 l 360 1063 l 558 1256 z "},"Ỗ":{"ha":1093,"x_min":81,"x_max":1038,"o":"m 551 -14 q 302 43 408 -14 q 138 206 196 100 q 81 457 81 313 q 140 738 81 617 q 310 926 200 860 q 565 993 421 993 q 815 936 708 993 q 980 773 922 879 q 1038 522 1038 667 q 977 241 1038 363 q 807 53 917 119 q 551 -14 697 -14 m 550 156 q 748 253 675 156 q 821 522 821 350 q 755 745 821 667 q 568 824 689 824 q 369 726 442 824 q 297 457 297 628 q 363 234 297 313 q 550 156 428 156 m 717 1276 q 664 1283 689 1276 q 607 1301 639 1289 q 524 1321 551 1321 q 468 1279 474 1321 l 378 1279 q 427 1385 381 1344 q 535 1425 474 1425 q 588 1419 563 1425 q 644 1400 613 1413 q 728 1379 696 1379 q 766 1388 751 1379 q 783 1421 781 1397 l 872 1421 q 824 1316 871 1356 q 717 1276 778 1276 m 558 1256 l 678 1256 l 846 1063 l 693 1063 l 614 1161 l 515 1063 l 360 1063 l 558 1256 z "},"Ȍ":{"ha":1093,"x_min":81,"x_max":1038,"o":"m 551 -14 q 302 43 408 -14 q 138 206 196 100 q 81 457 81 313 q 140 738 81 617 q 310 926 200 860 q 565 993 421 993 q 815 936 708 993 q 980 773 922 879 q 1038 522 1038 667 q 977 241 1038 363 q 807 53 917 119 q 551 -14 697 -14 m 550 156 q 748 253 675 156 q 821 522 821 350 q 755 745 821 667 q 568 824 689 824 q 369 726 442 824 q 297 457 297 628 q 363 234 297 313 q 550 156 428 156 m 336 1279 l 471 1279 l 558 1063 l 456 1063 l 336 1279 m 528 1279 l 663 1279 l 750 1063 l 647 1063 l 528 1279 z "},"Ö":{"ha":1093,"x_min":81,"x_max":1038,"o":"m 551 -14 q 302 43 408 -14 q 138 206 196 100 q 81 457 81 313 q 140 738 81 617 q 310 926 200 860 q 565 993 421 993 q 815 936 708 993 q 980 773 922 879 q 1038 522 1038 667 q 977 241 1038 363 q 807 53 917 119 q 551 -14 697 -14 m 550 156 q 748 253 675 156 q 821 522 821 350 q 755 745 821 667 q 568 824 689 824 q 369 726 442 824 q 297 457 297 628 q 363 234 297 313 q 550 156 428 156 m 583 1263 l 568 1081 l 376 1081 l 390 1263 l 583 1263 m 847 1263 l 833 1081 l 640 1081 l 656 1263 l 847 1263 z "},"Ȫ":{"ha":1093,"x_min":81,"x_max":1038,"o":"m 551 -14 q 302 43 408 -14 q 138 206 196 100 q 81 457 81 313 q 140 738 81 617 q 310 926 200 860 q 565 993 421 993 q 815 936 708 993 q 980 773 922 879 q 1038 522 1038 667 q 977 241 1038 363 q 807 53 917 119 q 551 -14 697 -14 m 550 156 q 748 253 675 156 q 821 522 821 350 q 755 745 821 667 q 568 824 689 824 q 369 726 442 824 q 297 457 297 628 q 363 234 297 313 q 550 156 428 156 m 583 1263 l 568 1081 l 376 1081 l 390 1263 l 583 1263 m 847 1263 l 833 1081 l 640 1081 l 656 1263 l 847 1263 m 418 1458 l 853 1458 l 843 1328 l 408 1328 l 418 1458 z "},"Ȱ":{"ha":1093,"x_min":81,"x_max":1038,"o":"m 551 -14 q 302 43 408 -14 q 138 206 196 100 q 81 457 81 313 q 140 738 81 617 q 310 926 200 860 q 565 993 421 993 q 815 936 708 993 q 980 773 922 879 q 1038 522 1038 667 q 977 241 1038 363 q 807 53 917 119 q 551 -14 697 -14 m 550 156 q 748 253 675 156 q 821 522 821 350 q 755 745 821 667 q 568 824 689 824 q 369 726 442 824 q 297 457 297 628 q 363 234 297 313 q 550 156 428 156 m 732 1269 l 717 1074 l 492 1074 l 507 1269 l 732 1269 m 418 1458 l 853 1458 l 843 1328 l 408 1328 l 418 1458 z "},"Ọ":{"ha":1093,"x_min":81,"x_max":1038,"o":"m 551 -14 q 302 43 408 -14 q 138 206 196 100 q 81 457 81 313 q 140 738 81 617 q 310 926 200 860 q 565 993 421 993 q 815 936 708 993 q 980 773 922 879 q 1038 522 1038 667 q 977 241 1038 363 q 807 53 917 119 q 551 -14 697 -14 m 550 156 q 748 253 675 156 q 821 522 821 350 q 755 745 821 667 q 568 824 689 824 q 369 726 442 824 q 297 457 297 628 q 363 234 297 313 q 550 156 428 156 m 610 -93 l 594 -276 l 403 -276 l 418 -93 l 610 -93 z "},"Ò":{"ha":1093,"x_min":81,"x_max":1038,"o":"m 551 -14 q 302 43 408 -14 q 138 206 196 100 q 81 457 81 313 q 140 738 81 617 q 310 926 200 860 q 565 993 421 993 q 815 936 708 993 q 980 773 922 879 q 1038 522 1038 667 q 977 241 1038 363 q 807 53 917 119 q 551 -14 697 -14 m 550 156 q 748 253 675 156 q 821 522 821 350 q 755 745 821 667 q 568 824 689 824 q 369 726 442 824 q 297 457 297 628 q 363 234 297 313 q 550 156 428 156 m 353 1279 l 536 1279 l 668 1063 l 538 1063 l 353 1279 z "},"Ỏ":{"ha":1093,"x_min":81,"x_max":1038,"o":"m 551 -14 q 302 43 408 -14 q 138 206 196 100 q 81 457 81 313 q 140 738 81 617 q 310 926 200 860 q 565 993 421 993 q 815 936 708 993 q 980 773 922 879 q 1038 522 1038 667 q 977 241 1038 363 q 807 53 917 119 q 551 -14 697 -14 m 550 156 q 748 253 675 156 q 821 522 821 350 q 755 745 821 667 q 568 824 689 824 q 369 726 442 824 q 297 457 297 628 q 363 234 297 313 q 550 156 428 156 m 654 1063 l 551 1063 l 554 1093 q 572 1131 556 1118 q 617 1157 588 1143 q 642 1169 633 1163 q 651 1183 651 1175 q 642 1197 651 1192 q 611 1203 632 1203 q 526 1186 571 1203 l 504 1263 q 636 1285 568 1285 q 742 1261 703 1285 q 781 1201 781 1238 q 763 1157 781 1172 q 708 1125 744 1142 q 669 1103 682 1113 q 656 1081 657 1094 l 654 1063 z "},"Ơ":{"ha":1093,"x_min":81,"x_max":1089,"o":"m 1085 1094 q 1028 950 1078 1008 q 897 881 978 892 q 1001 730 965 821 q 1038 522 1038 639 q 977 241 1038 363 q 807 53 917 119 q 551 -14 697 -14 q 302 43 408 -14 q 138 206 196 100 q 81 457 81 313 q 141 739 81 618 q 315 926 201 860 q 579 993 428 993 q 645 990 613 993 q 689 986 678 988 q 772 979 735 979 q 872 1010 843 979 q 906 1121 900 1042 l 908 1147 l 1089 1147 l 1085 1094 m 550 156 q 748 253 675 156 q 821 522 821 350 q 755 745 821 667 q 568 824 689 824 q 369 726 442 824 q 297 457 297 628 q 363 234 297 313 q 550 156 428 156 z "},"Ớ":{"ha":1093,"x_min":81,"x_max":1089,"o":"m 1085 1094 q 1028 950 1078 1008 q 897 881 978 892 q 1001 730 965 821 q 1038 522 1038 639 q 977 241 1038 363 q 807 53 917 119 q 551 -14 697 -14 q 302 43 408 -14 q 138 206 196 100 q 81 457 81 313 q 141 739 81 618 q 315 926 201 860 q 579 993 428 993 q 645 990 613 993 q 689 986 678 988 q 772 979 735 979 q 872 1010 843 979 q 906 1121 900 1042 l 908 1147 l 1089 1147 l 1085 1094 m 550 156 q 748 253 675 156 q 821 522 821 350 q 755 745 821 667 q 568 824 689 824 q 369 726 442 824 q 297 457 297 628 q 363 234 297 313 q 550 156 428 156 m 538 1063 l 692 1279 l 896 1279 l 668 1063 l 538 1063 z "},"Ợ":{"ha":1093,"x_min":81,"x_max":1089,"o":"m 1085 1094 q 1028 950 1078 1008 q 897 881 978 892 q 1001 730 965 821 q 1038 522 1038 639 q 977 241 1038 363 q 807 53 917 119 q 551 -14 697 -14 q 302 43 408 -14 q 138 206 196 100 q 81 457 81 313 q 141 739 81 618 q 315 926 201 860 q 579 993 428 993 q 645 990 613 993 q 689 986 678 988 q 772 979 735 979 q 872 1010 843 979 q 906 1121 900 1042 l 908 1147 l 1089 1147 l 1085 1094 m 550 156 q 748 253 675 156 q 821 522 821 350 q 755 745 821 667 q 568 824 689 824 q 369 726 442 824 q 297 457 297 628 q 363 234 297 313 q 550 156 428 156 m 610 -93 l 594 -276 l 403 -276 l 418 -93 l 610 -93 z "},"Ờ":{"ha":1093,"x_min":81,"x_max":1089,"o":"m 1085 1094 q 1028 950 1078 1008 q 897 881 978 892 q 1001 730 965 821 q 1038 522 1038 639 q 977 241 1038 363 q 807 53 917 119 q 551 -14 697 -14 q 302 43 408 -14 q 138 206 196 100 q 81 457 81 313 q 141 739 81 618 q 315 926 201 860 q 579 993 428 993 q 645 990 613 993 q 689 986 678 988 q 772 979 735 979 q 872 1010 843 979 q 906 1121 900 1042 l 908 1147 l 1089 1147 l 1085 1094 m 550 156 q 748 253 675 156 q 821 522 821 350 q 755 745 821 667 q 568 824 689 824 q 369 726 442 824 q 297 457 297 628 q 363 234 297 313 q 550 156 428 156 m 353 1279 l 536 1279 l 668 1063 l 538 1063 l 353 1279 z "},"Ở":{"ha":1093,"x_min":81,"x_max":1089,"o":"m 1085 1094 q 1028 950 1078 1008 q 897 881 978 892 q 1001 730 965 821 q 1038 522 1038 639 q 977 241 1038 363 q 807 53 917 119 q 551 -14 697 -14 q 302 43 408 -14 q 138 206 196 100 q 81 457 81 313 q 141 739 81 618 q 315 926 201 860 q 579 993 428 993 q 645 990 613 993 q 689 986 678 988 q 772 979 735 979 q 872 1010 843 979 q 906 1121 900 1042 l 908 1147 l 1089 1147 l 1085 1094 m 550 156 q 748 253 675 156 q 821 522 821 350 q 755 745 821 667 q 568 824 689 824 q 369 726 442 824 q 297 457 297 628 q 363 234 297 313 q 550 156 428 156 m 654 1063 l 551 1063 l 554 1093 q 572 1131 556 1118 q 617 1157 588 1143 q 642 1169 633 1163 q 651 1183 651 1175 q 642 1197 651 1192 q 611 1203 632 1203 q 526 1186 571 1203 l 504 1263 q 636 1285 568 1285 q 742 1261 703 1285 q 781 1201 781 1238 q 763 1157 781 1172 q 708 1125 744 1142 q 669 1103 682 1113 q 656 1081 657 1094 l 654 1063 z "},"Ỡ":{"ha":1093,"x_min":81,"x_max":1089,"o":"m 1085 1094 q 1028 950 1078 1008 q 897 881 978 892 q 1001 730 965 821 q 1038 522 1038 639 q 977 241 1038 363 q 807 53 917 119 q 551 -14 697 -14 q 302 43 408 -14 q 138 206 196 100 q 81 457 81 313 q 141 739 81 618 q 315 926 201 860 q 579 993 428 993 q 645 990 613 993 q 689 986 678 988 q 772 979 735 979 q 872 1010 843 979 q 906 1121 900 1042 l 908 1147 l 1089 1147 l 1085 1094 m 550 156 q 748 253 675 156 q 821 522 821 350 q 755 745 821 667 q 568 824 689 824 q 369 726 442 824 q 297 457 297 628 q 363 234 297 313 q 550 156 428 156 m 363 1072 q 414 1226 368 1176 q 528 1275 460 1275 q 578 1265 554 1275 q 632 1233 601 1254 q 674 1209 658 1217 q 707 1201 690 1201 q 751 1219 733 1201 q 771 1271 768 1236 l 861 1271 q 809 1117 856 1167 q 694 1068 763 1068 q 645 1078 668 1068 q 592 1108 622 1089 q 549 1133 565 1125 q 517 1140 533 1140 q 473 1124 490 1140 q 453 1072 456 1107 l 363 1072 z "},"Ő":{"ha":1093,"x_min":81,"x_max":1038,"o":"m 551 -14 q 302 43 408 -14 q 138 206 196 100 q 81 457 81 313 q 140 738 81 617 q 310 926 200 860 q 565 993 421 993 q 815 936 708 993 q 980 773 922 879 q 1038 522 1038 667 q 977 241 1038 363 q 807 53 917 119 q 551 -14 697 -14 m 550 156 q 748 253 675 156 q 821 522 821 350 q 755 745 821 667 q 568 824 689 824 q 369 726 442 824 q 297 457 297 628 q 363 234 297 313 q 550 156 428 156 m 456 1063 l 571 1279 l 715 1279 l 558 1063 l 456 1063 m 647 1063 l 763 1279 l 908 1279 l 750 1063 l 647 1063 z "},"Ȏ":{"ha":1093,"x_min":81,"x_max":1038,"o":"m 551 -14 q 302 43 408 -14 q 138 206 196 100 q 81 457 81 313 q 140 738 81 617 q 310 926 200 860 q 565 993 421 993 q 815 936 708 993 q 980 773 922 879 q 1038 522 1038 667 q 977 241 1038 363 q 807 53 917 119 q 551 -14 697 -14 m 550 156 q 748 253 675 156 q 821 522 821 350 q 755 745 821 667 q 568 824 689 824 q 369 726 442 824 q 297 457 297 628 q 363 234 297 313 q 550 156 428 156 m 608 1268 q 765 1227 699 1268 q 854 1117 832 1186 l 753 1075 q 693 1126 732 1108 q 604 1144 654 1144 q 453 1075 503 1144 l 360 1117 q 455 1227 389 1186 q 608 1268 521 1268 z "},"Ō":{"ha":1093,"x_min":81,"x_max":1038,"o":"m 551 -14 q 302 43 408 -14 q 138 206 196 100 q 81 457 81 313 q 140 738 81 617 q 310 926 200 860 q 565 993 421 993 q 815 936 708 993 q 980 773 922 879 q 1038 522 1038 667 q 977 241 1038 363 q 807 53 917 119 q 551 -14 697 -14 m 550 156 q 748 253 675 156 q 821 522 821 350 q 755 745 821 667 q 568 824 689 824 q 369 726 442 824 q 297 457 297 628 q 363 234 297 313 q 550 156 428 156 m 400 1236 l 835 1236 l 825 1106 l 390 1106 l 400 1236 z "},"Ṓ":{"ha":1093,"x_min":81,"x_max":1038,"o":"m 551 -14 q 302 43 408 -14 q 138 206 196 100 q 81 457 81 313 q 140 738 81 617 q 310 926 200 860 q 565 993 421 993 q 815 936 708 993 q 980 773 922 879 q 1038 522 1038 667 q 977 241 1038 363 q 807 53 917 119 q 551 -14 697 -14 m 550 156 q 748 253 675 156 q 821 522 821 350 q 755 745 821 667 q 568 824 689 824 q 369 726 442 824 q 297 457 297 628 q 363 234 297 313 q 550 156 428 156 m 400 1236 l 835 1236 l 825 1106 l 390 1106 l 400 1236 m 556 1285 l 710 1501 l 914 1501 l 686 1285 l 556 1285 z "},"Ṑ":{"ha":1093,"x_min":81,"x_max":1038,"o":"m 551 -14 q 302 43 408 -14 q 138 206 196 100 q 81 457 81 313 q 140 738 81 617 q 310 926 200 860 q 565 993 421 993 q 815 936 708 993 q 980 773 922 879 q 1038 522 1038 667 q 977 241 1038 363 q 807 53 917 119 q 551 -14 697 -14 m 550 156 q 748 253 675 156 q 821 522 821 350 q 755 745 821 667 q 568 824 689 824 q 369 726 442 824 q 297 457 297 628 q 363 234 297 313 q 550 156 428 156 m 400 1236 l 835 1236 l 825 1106 l 390 1106 l 400 1236 m 371 1501 l 554 1501 l 686 1285 l 556 1285 l 371 1501 z "},"Ǫ":{"ha":1093,"x_min":81,"x_max":1038,"o":"m 679 1 q 579 -94 579 -22 q 599 -147 579 -128 q 654 -165 619 -165 q 733 -147 683 -165 l 749 -246 q 618 -274 685 -274 q 490 -233 538 -274 q 443 -126 443 -192 q 492 -11 443 -57 q 274 58 367 -1 q 131 219 182 117 q 81 457 81 322 q 140 738 81 617 q 310 926 200 860 q 565 993 421 993 q 817 936 711 993 q 981 773 924 879 q 1038 522 1038 667 q 992 271 1038 381 q 865 93 946 161 q 679 1 785 25 m 550 156 q 748 253 675 156 q 821 522 821 350 q 755 745 821 667 q 568 824 689 824 q 369 726 442 824 q 297 457 297 628 q 363 234 297 313 q 550 156 428 156 z "},"Ø":{"ha":1093,"x_min":81,"x_max":1038,"o":"m 904 872 q 1003 722 969 811 q 1038 522 1038 633 q 977 241 1038 363 q 807 53 917 119 q 551 -14 697 -14 q 344 24 433 -14 l 267 -94 l 135 -11 l 213 107 q 115 258 149 169 q 81 457 81 347 q 140 738 81 617 q 310 926 200 860 q 565 993 421 993 q 774 956 682 993 l 851 1074 l 982 990 l 904 872 m 297 457 q 331 285 297 354 l 674 804 q 568 824 626 824 q 369 726 442 824 q 297 457 297 628 m 550 156 q 748 253 675 156 q 821 522 821 350 q 788 694 821 626 l 444 175 q 550 156 492 156 z "},"Ǿ":{"ha":1093,"x_min":81,"x_max":1038,"o":"m 904 872 q 1003 722 969 811 q 1038 522 1038 633 q 977 241 1038 363 q 807 53 917 119 q 551 -14 697 -14 q 344 24 433 -14 l 267 -94 l 135 -11 l 213 107 q 115 258 149 169 q 81 457 81 347 q 140 738 81 617 q 310 926 200 860 q 565 993 421 993 q 774 956 682 993 l 851 1074 l 982 990 l 904 872 m 297 457 q 331 285 297 354 l 674 804 q 568 824 626 824 q 369 726 442 824 q 297 457 297 628 m 550 156 q 748 253 675 156 q 821 522 821 350 q 788 694 821 626 l 444 175 q 550 156 492 156 m 538 1063 l 692 1279 l 896 1279 l 668 1063 l 538 1063 z "},"Õ":{"ha":1093,"x_min":81,"x_max":1038,"o":"m 551 -14 q 302 43 408 -14 q 138 206 196 100 q 81 457 81 313 q 140 738 81 617 q 310 926 200 860 q 565 993 421 993 q 815 936 708 993 q 980 773 922 879 q 1038 522 1038 667 q 977 241 1038 363 q 807 53 917 119 q 551 -14 697 -14 m 550 156 q 748 253 675 156 q 821 522 821 350 q 755 745 821 667 q 568 824 689 824 q 369 726 442 824 q 297 457 297 628 q 363 234 297 313 q 550 156 428 156 m 363 1072 q 414 1226 368 1176 q 528 1275 460 1275 q 578 1265 554 1275 q 632 1233 601 1254 q 674 1209 658 1217 q 707 1201 690 1201 q 751 1219 733 1201 q 771 1271 768 1236 l 861 1271 q 809 1117 856 1167 q 694 1068 763 1068 q 645 1078 668 1068 q 592 1108 622 1089 q 549 1133 565 1125 q 517 1140 533 1140 q 473 1124 490 1140 q 453 1072 456 1107 l 363 1072 z "},"Ṍ":{"ha":1093,"x_min":81,"x_max":1038,"o":"m 551 -14 q 302 43 408 -14 q 138 206 196 100 q 81 457 81 313 q 140 738 81 617 q 310 926 200 860 q 565 993 421 993 q 815 936 708 993 q 980 773 922 879 q 1038 522 1038 667 q 977 241 1038 363 q 807 53 917 119 q 551 -14 697 -14 m 550 156 q 748 253 675 156 q 821 522 821 350 q 755 745 821 667 q 568 824 689 824 q 369 726 442 824 q 297 457 297 628 q 363 234 297 313 q 550 156 428 156 m 363 1072 q 414 1226 368 1176 q 528 1275 460 1275 q 578 1265 554 1275 q 632 1233 601 1254 q 674 1209 658 1217 q 707 1201 690 1201 q 751 1219 733 1201 q 771 1271 768 1236 l 861 1271 q 809 1117 856 1167 q 694 1068 763 1068 q 645 1078 668 1068 q 592 1108 622 1089 q 549 1133 565 1125 q 517 1140 533 1140 q 473 1124 490 1140 q 453 1072 456 1107 l 363 1072 m 556 1285 l 710 1501 l 914 1501 l 686 1285 l 556 1285 z "},"Ṏ":{"ha":1093,"x_min":81,"x_max":1038,"o":"m 551 -14 q 302 43 408 -14 q 138 206 196 100 q 81 457 81 313 q 140 738 81 617 q 310 926 200 860 q 565 993 421 993 q 815 936 708 993 q 980 773 922 879 q 1038 522 1038 667 q 977 241 1038 363 q 807 53 917 119 q 551 -14 697 -14 m 550 156 q 748 253 675 156 q 821 522 821 350 q 755 745 821 667 q 568 824 689 824 q 369 726 442 824 q 297 457 297 628 q 363 234 297 313 q 550 156 428 156 m 363 1072 q 414 1226 368 1176 q 528 1275 460 1275 q 578 1265 554 1275 q 632 1233 601 1254 q 674 1209 658 1217 q 707 1201 690 1201 q 751 1219 733 1201 q 771 1271 768 1236 l 861 1271 q 809 1117 856 1167 q 694 1068 763 1068 q 645 1078 668 1068 q 592 1108 622 1089 q 549 1133 565 1125 q 517 1140 533 1140 q 473 1124 490 1140 q 453 1072 456 1107 l 363 1072 m 601 1485 l 586 1303 l 394 1303 l 408 1485 l 601 1485 m 865 1485 l 851 1303 l 658 1303 l 674 1485 l 865 1485 z "},"Ȭ":{"ha":1093,"x_min":81,"x_max":1038,"o":"m 551 -14 q 302 43 408 -14 q 138 206 196 100 q 81 457 81 313 q 140 738 81 617 q 310 926 200 860 q 565 993 421 993 q 815 936 708 993 q 980 773 922 879 q 1038 522 1038 667 q 977 241 1038 363 q 807 53 917 119 q 551 -14 697 -14 m 550 156 q 748 253 675 156 q 821 522 821 350 q 755 745 821 667 q 568 824 689 824 q 369 726 442 824 q 297 457 297 628 q 363 234 297 313 q 550 156 428 156 m 363 1072 q 414 1226 368 1176 q 528 1275 460 1275 q 578 1265 554 1275 q 632 1233 601 1254 q 674 1209 658 1217 q 707 1201 690 1201 q 751 1219 733 1201 q 771 1271 768 1236 l 861 1271 q 809 1117 856 1167 q 694 1068 763 1068 q 645 1078 668 1068 q 592 1108 622 1089 q 549 1133 565 1125 q 517 1140 533 1140 q 473 1124 490 1140 q 453 1072 456 1107 l 363 1072 m 418 1458 l 853 1458 l 843 1328 l 408 1328 l 418 1458 z "},"Œ":{"ha":1450,"x_min":81,"x_max":1450,"o":"m 972 811 l 954 582 l 1390 582 l 1376 414 l 942 414 l 922 168 l 1386 168 l 1372 0 l 558 0 q 303 56 411 0 q 138 214 196 111 q 81 457 81 317 q 144 738 81 621 q 327 917 207 856 q 615 979 447 979 l 1450 979 l 1438 811 l 972 811 m 761 811 l 633 811 q 297 456 297 811 q 371 242 297 317 q 585 168 444 168 l 711 168 l 761 811 z "},"P":{"ha":928,"x_min":71,"x_max":911,"o":"m 583 979 q 825 902 739 979 q 911 693 911 825 q 819 452 911 536 q 554 368 726 368 l 317 368 l 288 0 l 71 0 l 149 979 l 583 979 m 535 532 q 708 681 708 532 q 671 781 708 749 q 556 814 633 814 l 351 814 l 329 532 l 535 532 z "},"Þ":{"ha":929,"x_min":71,"x_max":897,"o":"m 592 782 q 817 712 736 782 q 897 515 897 642 q 811 291 897 369 q 565 213 725 213 l 300 213 l 283 0 l 71 0 l 149 979 l 361 979 l 346 782 l 592 782 m 547 376 q 696 503 696 376 q 664 589 696 561 q 567 617 632 617 l 332 617 l 314 376 l 547 376 z "},"Q":{"ha":1093,"x_min":81,"x_max":1038,"o":"m 775 36 q 860 -49 828 14 l 953 -218 l 763 -304 l 635 -68 q 526 -12 604 -14 q 290 49 390 -10 q 135 212 189 107 q 81 457 81 317 q 140 738 81 617 q 310 926 200 860 q 565 993 421 993 q 817 937 711 993 q 981 774 924 881 q 1038 522 1038 668 q 969 224 1038 350 q 775 36 901 97 m 550 156 q 749 253 676 156 q 821 522 821 351 q 755 745 821 667 q 568 824 689 824 q 369 726 442 824 q 297 457 297 628 q 363 234 297 313 q 550 156 428 156 z "},"R":{"ha":974,"x_min":71,"x_max":925,"o":"m 668 397 q 733 360 707 386 q 781 290 758 335 l 922 0 l 689 0 l 538 313 q 492 365 519 349 q 419 381 464 381 l 314 381 l 285 0 l 71 0 l 147 979 l 603 979 q 840 904 756 979 q 925 699 925 829 q 668 397 925 438 m 556 544 q 680 581 638 544 q 722 686 722 617 q 686 783 722 751 q 575 814 650 814 l 346 814 l 325 544 l 556 544 z "},"Ŕ":{"ha":974,"x_min":71,"x_max":925,"o":"m 668 397 q 733 360 707 386 q 781 290 758 335 l 922 0 l 689 0 l 538 313 q 492 365 519 349 q 419 381 464 381 l 314 381 l 285 0 l 71 0 l 147 979 l 603 979 q 840 904 756 979 q 925 699 925 829 q 668 397 925 438 m 556 544 q 680 581 638 544 q 722 686 722 617 q 686 783 722 751 q 575 814 650 814 l 346 814 l 325 544 l 556 544 m 481 1063 l 635 1279 l 839 1279 l 611 1063 l 481 1063 z "},"Ř":{"ha":974,"x_min":71,"x_max":925,"o":"m 668 397 q 733 360 707 386 q 781 290 758 335 l 922 0 l 689 0 l 538 313 q 492 365 519 349 q 419 381 464 381 l 314 381 l 285 0 l 71 0 l 147 979 l 603 979 q 840 904 756 979 q 925 699 925 829 q 668 397 925 438 m 556 544 q 680 581 638 544 q 722 686 722 617 q 686 783 722 751 q 575 814 650 814 l 346 814 l 325 544 l 556 544 m 806 1279 l 606 1063 l 486 1063 l 319 1279 l 476 1279 l 558 1160 l 649 1279 l 806 1279 z "},"Ŗ":{"ha":974,"x_min":71,"x_max":925,"o":"m 668 397 q 733 360 707 386 q 781 290 758 335 l 922 0 l 689 0 l 538 313 q 492 365 519 349 q 419 381 464 381 l 314 381 l 285 0 l 71 0 l 147 979 l 603 979 q 840 904 756 979 q 925 699 925 829 q 668 397 925 438 m 556 544 q 680 581 638 544 q 722 686 722 617 q 686 783 722 751 q 575 814 650 814 l 346 814 l 325 544 l 556 544 m 560 -90 l 553 -181 q 525 -293 547 -244 q 453 -382 503 -342 l 382 -331 q 438 -249 425 -292 l 340 -249 l 353 -90 l 560 -90 z "},"Ȑ":{"ha":974,"x_min":71,"x_max":925,"o":"m 668 397 q 733 360 707 386 q 781 290 758 335 l 922 0 l 689 0 l 538 313 q 492 365 519 349 q 419 381 464 381 l 314 381 l 285 0 l 71 0 l 147 979 l 603 979 q 840 904 756 979 q 925 699 925 829 q 668 397 925 438 m 556 544 q 680 581 638 544 q 722 686 722 617 q 686 783 722 751 q 575 814 650 814 l 346 814 l 325 544 l 556 544 m 279 1279 l 414 1279 l 501 1063 l 399 1063 l 279 1279 m 471 1279 l 606 1279 l 693 1063 l 590 1063 l 471 1279 z "},"Ṛ":{"ha":974,"x_min":71,"x_max":925,"o":"m 668 397 q 733 360 707 386 q 781 290 758 335 l 922 0 l 689 0 l 538 313 q 492 365 519 349 q 419 381 464 381 l 314 381 l 285 0 l 71 0 l 147 979 l 603 979 q 840 904 756 979 q 925 699 925 829 q 668 397 925 438 m 556 544 q 680 581 638 544 q 722 686 722 617 q 686 783 722 751 q 575 814 650 814 l 346 814 l 325 544 l 556 544 m 553 -93 l 538 -276 l 346 -276 l 361 -93 l 553 -93 z "},"Ȓ":{"ha":974,"x_min":71,"x_max":925,"o":"m 668 397 q 733 360 707 386 q 781 290 758 335 l 922 0 l 689 0 l 538 313 q 492 365 519 349 q 419 381 464 381 l 314 381 l 285 0 l 71 0 l 147 979 l 603 979 q 840 904 756 979 q 925 699 925 829 q 668 397 925 438 m 556 544 q 680 581 638 544 q 722 686 722 617 q 686 783 722 751 q 575 814 650 814 l 346 814 l 325 544 l 556 544 m 551 1268 q 708 1227 642 1268 q 797 1117 775 1186 l 696 1075 q 636 1126 675 1108 q 547 1144 597 1144 q 396 1075 446 1144 l 303 1117 q 398 1227 332 1186 q 551 1268 464 1268 z "},"Ṟ":{"ha":974,"x_min":71,"x_max":925,"o":"m 668 397 q 733 360 707 386 q 781 290 758 335 l 922 0 l 689 0 l 538 313 q 492 365 519 349 q 419 381 464 381 l 314 381 l 285 0 l 71 0 l 147 979 l 603 979 q 840 904 756 979 q 925 699 925 829 q 668 397 925 438 m 556 544 q 680 581 638 544 q 722 686 722 617 q 686 783 722 751 q 575 814 650 814 l 346 814 l 325 544 l 556 544 m 236 -124 l 671 -124 l 663 -246 l 228 -246 l 236 -124 z "},"S":{"ha":904,"x_min":38,"x_max":863,"o":"m 432 -12 q 216 17 318 -12 q 38 100 114 46 l 118 254 q 440 156 264 156 q 578 183 531 156 q 626 263 626 211 q 601 322 626 297 q 535 361 575 346 q 425 397 494 376 q 258 456 322 428 q 147 542 193 485 q 100 689 100 599 q 150 848 100 779 q 292 954 200 917 q 506 992 383 992 q 707 961 611 992 q 863 879 803 931 l 781 725 q 647 798 719 772 q 501 824 574 824 q 365 793 414 824 q 315 708 315 763 q 342 646 315 671 q 410 605 369 621 q 524 568 451 589 q 688 510 624 539 q 797 428 751 482 q 842 286 842 374 q 734 66 842 144 q 432 -12 626 -12 z "},"Ś":{"ha":904,"x_min":38,"x_max":863,"o":"m 432 -12 q 216 17 318 -12 q 38 100 114 46 l 118 254 q 440 156 264 156 q 578 183 531 156 q 626 263 626 211 q 601 322 626 297 q 535 361 575 346 q 425 397 494 376 q 258 456 322 428 q 147 542 193 485 q 100 689 100 599 q 150 848 100 779 q 292 954 200 917 q 506 992 383 992 q 707 961 611 992 q 863 879 803 931 l 781 725 q 647 798 719 772 q 501 824 574 824 q 365 793 414 824 q 315 708 315 763 q 342 646 315 671 q 410 605 369 621 q 524 568 451 589 q 688 510 624 539 q 797 428 751 482 q 842 286 842 374 q 734 66 842 144 q 432 -12 626 -12 m 449 1063 l 603 1279 l 807 1279 l 579 1063 l 449 1063 z "},"Ṥ":{"ha":904,"x_min":38,"x_max":863,"o":"m 432 -12 q 216 17 318 -12 q 38 100 114 46 l 118 254 q 440 156 264 156 q 578 183 531 156 q 626 263 626 211 q 601 322 626 297 q 535 361 575 346 q 425 397 494 376 q 258 456 322 428 q 147 542 193 485 q 100 689 100 599 q 150 848 100 779 q 292 954 200 917 q 506 992 383 992 q 707 961 611 992 q 863 879 803 931 l 781 725 q 647 798 719 772 q 501 824 574 824 q 365 793 414 824 q 315 708 315 763 q 342 646 315 671 q 410 605 369 621 q 524 568 451 589 q 688 510 624 539 q 797 428 751 482 q 842 286 842 374 q 734 66 842 144 q 432 -12 626 -12 m 483 1063 l 638 1279 l 842 1279 l 614 1063 l 483 1063 m 472 1278 l 457 1082 l 232 1082 l 247 1278 l 472 1278 z "},"Š":{"ha":904,"x_min":38,"x_max":863,"o":"m 432 -12 q 216 17 318 -12 q 38 100 114 46 l 118 254 q 440 156 264 156 q 578 183 531 156 q 626 263 626 211 q 601 322 626 297 q 535 361 575 346 q 425 397 494 376 q 258 456 322 428 q 147 542 193 485 q 100 689 100 599 q 150 848 100 779 q 292 954 200 917 q 506 992 383 992 q 707 961 611 992 q 863 879 803 931 l 781 725 q 647 798 719 772 q 501 824 574 824 q 365 793 414 824 q 315 708 315 763 q 342 646 315 671 q 410 605 369 621 q 524 568 451 589 q 688 510 624 539 q 797 428 751 482 q 842 286 842 374 q 734 66 842 144 q 432 -12 626 -12 m 774 1279 l 574 1063 l 454 1063 l 288 1279 l 444 1279 l 526 1160 l 617 1279 l 774 1279 z "},"Ṧ":{"ha":904,"x_min":38,"x_max":863,"o":"m 432 -12 q 216 17 318 -12 q 38 100 114 46 l 118 254 q 440 156 264 156 q 578 183 531 156 q 626 263 626 211 q 601 322 626 297 q 535 361 575 346 q 425 397 494 376 q 258 456 322 428 q 147 542 193 485 q 100 689 100 599 q 150 848 100 779 q 292 954 200 917 q 506 992 383 992 q 707 961 611 992 q 863 879 803 931 l 781 725 q 647 798 719 772 q 501 824 574 824 q 365 793 414 824 q 315 708 315 763 q 342 646 315 671 q 410 605 369 621 q 524 568 451 589 q 688 510 624 539 q 797 428 751 482 q 842 286 842 374 q 734 66 842 144 q 432 -12 626 -12 m 774 1279 l 574 1063 l 454 1063 l 288 1279 l 444 1279 l 526 1160 l 617 1279 l 774 1279 m 661 1492 l 646 1296 l 421 1296 l 436 1492 l 661 1492 z "},"Ş":{"ha":904,"x_min":38,"x_max":863,"o":"m 315 708 q 342 646 315 671 q 410 605 369 621 q 524 568 451 589 q 688 510 624 539 q 797 428 751 482 q 842 286 842 374 q 743 73 842 151 q 464 -12 644 -6 l 454 -56 l 464 -56 q 547 -81 515 -56 q 579 -150 579 -106 q 530 -238 579 -203 q 394 -274 481 -274 q 320 -267 357 -274 q 256 -249 283 -261 l 276 -168 q 389 -187 339 -187 q 450 -151 450 -187 q 408 -125 450 -125 q 357 -133 385 -125 l 332 -104 l 351 -8 q 181 28 261 0 q 38 100 100 56 l 118 254 q 440 156 264 156 q 578 183 531 156 q 626 263 626 211 q 601 322 626 297 q 535 361 575 346 q 425 397 494 376 q 258 456 322 428 q 147 542 193 485 q 100 689 100 599 q 150 848 100 779 q 292 954 200 917 q 506 992 383 992 q 707 961 611 992 q 863 879 803 931 l 781 725 q 647 798 719 772 q 501 824 574 824 q 365 793 414 824 q 315 708 315 763 z "},"Ŝ":{"ha":904,"x_min":38,"x_max":863,"o":"m 432 -12 q 216 17 318 -12 q 38 100 114 46 l 118 254 q 440 156 264 156 q 578 183 531 156 q 626 263 626 211 q 601 322 626 297 q 535 361 575 346 q 425 397 494 376 q 258 456 322 428 q 147 542 193 485 q 100 689 100 599 q 150 848 100 779 q 292 954 200 917 q 506 992 383 992 q 707 961 611 992 q 863 879 803 931 l 781 725 q 647 798 719 772 q 501 824 574 824 q 365 793 414 824 q 315 708 315 763 q 342 646 315 671 q 410 605 369 621 q 524 568 451 589 q 688 510 624 539 q 797 428 751 482 q 842 286 842 374 q 734 66 842 144 q 432 -12 626 -12 m 271 1063 l 471 1279 l 590 1279 l 757 1063 l 600 1063 l 528 1181 l 428 1063 l 271 1063 z "},"Ș":{"ha":904,"x_min":38,"x_max":863,"o":"m 432 -12 q 216 17 318 -12 q 38 100 114 46 l 118 254 q 440 156 264 156 q 578 183 531 156 q 626 263 626 211 q 601 322 626 297 q 535 361 575 346 q 425 397 494 376 q 258 456 322 428 q 147 542 193 485 q 100 689 100 599 q 150 848 100 779 q 292 954 200 917 q 506 992 383 992 q 707 961 611 992 q 863 879 803 931 l 781 725 q 647 798 719 772 q 501 824 574 824 q 365 793 414 824 q 315 708 315 763 q 342 646 315 671 q 410 605 369 621 q 524 568 451 589 q 688 510 624 539 q 797 428 751 482 q 842 286 842 374 q 734 66 842 144 q 432 -12 626 -12 m 519 -90 l 513 -181 q 485 -293 507 -244 q 413 -382 463 -342 l 342 -331 q 397 -249 385 -292 l 300 -249 l 313 -90 l 519 -90 z "},"Ṡ":{"ha":904,"x_min":38,"x_max":863,"o":"m 432 -12 q 216 17 318 -12 q 38 100 114 46 l 118 254 q 440 156 264 156 q 578 183 531 156 q 626 263 626 211 q 601 322 626 297 q 535 361 575 346 q 425 397 494 376 q 258 456 322 428 q 147 542 193 485 q 100 689 100 599 q 150 848 100 779 q 292 954 200 917 q 506 992 383 992 q 707 961 611 992 q 863 879 803 931 l 781 725 q 647 798 719 772 q 501 824 574 824 q 365 793 414 824 q 315 708 315 763 q 342 646 315 671 q 410 605 369 621 q 524 568 451 589 q 688 510 624 539 q 797 428 751 482 q 842 286 842 374 q 734 66 842 144 q 432 -12 626 -12 m 643 1269 l 628 1074 l 403 1074 l 418 1269 l 643 1269 z "},"Ṣ":{"ha":904,"x_min":38,"x_max":863,"o":"m 432 -12 q 216 17 318 -12 q 38 100 114 46 l 118 254 q 440 156 264 156 q 578 183 531 156 q 626 263 626 211 q 601 322 626 297 q 535 361 575 346 q 425 397 494 376 q 258 456 322 428 q 147 542 193 485 q 100 689 100 599 q 150 848 100 779 q 292 954 200 917 q 506 992 383 992 q 707 961 611 992 q 863 879 803 931 l 781 725 q 647 798 719 772 q 501 824 574 824 q 365 793 414 824 q 315 708 315 763 q 342 646 315 671 q 410 605 369 621 q 524 568 451 589 q 688 510 624 539 q 797 428 751 482 q 842 286 842 374 q 734 66 842 144 q 432 -12 626 -12 m 513 -93 l 497 -276 l 306 -276 l 321 -93 l 513 -93 z "},"Ṩ":{"ha":904,"x_min":38,"x_max":863,"o":"m 432 -12 q 216 17 318 -12 q 38 100 114 46 l 118 254 q 440 156 264 156 q 578 183 531 156 q 626 263 626 211 q 601 322 626 297 q 535 361 575 346 q 425 397 494 376 q 258 456 322 428 q 147 542 193 485 q 100 689 100 599 q 150 848 100 779 q 292 954 200 917 q 506 992 383 992 q 707 961 611 992 q 863 879 803 931 l 781 725 q 647 798 719 772 q 501 824 574 824 q 365 793 414 824 q 315 708 315 763 q 342 646 315 671 q 410 605 369 621 q 524 568 451 589 q 688 510 624 539 q 797 428 751 482 q 842 286 842 374 q 734 66 842 144 q 432 -12 626 -12 m 513 -93 l 497 -276 l 306 -276 l 321 -93 l 513 -93 m 643 1269 l 628 1074 l 403 1074 l 418 1269 l 643 1269 z "},"ẞ":{"ha":986,"x_min":71,"x_max":932,"o":"m 747 510 q 883 430 835 489 q 932 281 932 371 q 890 133 932 199 q 772 29 847 67 q 601 -8 697 -8 q 466 10 526 -8 q 343 69 406 28 l 411 222 q 597 153 514 153 q 693 187 660 153 q 726 285 726 221 q 685 381 726 351 q 550 411 644 411 l 411 411 l 425 579 l 551 579 q 652 612 617 579 q 688 706 688 644 q 647 790 688 758 q 538 821 606 821 q 333 635 349 821 l 283 0 l 71 0 l 121 628 q 247 895 136 801 q 549 989 357 989 q 731 956 654 989 q 850 864 808 924 q 892 726 892 804 q 856 594 892 650 q 747 510 819 539 z "},"Ə":{"ha":1065,"x_min":81,"x_max":1008,"o":"m 543 992 q 789 935 683 992 q 951 772 894 878 q 1008 522 1008 665 q 949 240 1008 361 q 780 53 889 119 q 528 -12 671 -12 q 197 107 314 -12 q 81 443 81 226 q 83 507 81 463 l 89 578 l 790 578 q 708 758 776 696 q 525 819 640 819 q 377 798 442 819 q 238 725 313 776 l 181 879 q 343 962 249 932 q 543 992 438 992 m 526 156 q 696 224 629 156 q 785 413 763 292 l 290 413 q 351 222 288 288 q 526 156 414 156 z "},"T":{"ha":864,"x_min":53,"x_max":897,"o":"m 360 803 l 53 803 l 67 979 l 897 979 l 885 803 l 578 803 l 514 0 l 297 0 l 360 803 z "},"Ŧ":{"ha":864,"x_min":53,"x_max":897,"o":"m 578 803 l 560 576 l 749 576 l 735 413 l 547 413 l 514 0 l 297 0 l 329 413 l 140 413 l 154 576 l 342 576 l 360 803 l 53 803 l 67 979 l 897 979 l 885 803 l 578 803 z "},"Ť":{"ha":864,"x_min":53,"x_max":897,"o":"m 360 803 l 53 803 l 67 979 l 897 979 l 885 803 l 578 803 l 514 0 l 297 0 l 360 803 m 749 1279 l 549 1063 l 429 1063 l 263 1279 l 419 1279 l 501 1160 l 592 1279 l 749 1279 z "},"Ţ":{"ha":864,"x_min":53,"x_max":897,"o":"m 897 979 l 885 803 l 578 803 l 514 0 l 449 0 l 436 -56 l 446 -56 q 529 -81 497 -56 q 561 -150 561 -106 q 512 -238 561 -203 q 376 -274 463 -274 q 302 -267 339 -274 q 238 -249 265 -261 l 258 -168 q 371 -187 321 -187 q 432 -151 432 -187 q 390 -125 432 -125 q 339 -133 367 -125 l 314 -104 l 336 0 l 297 0 l 360 803 l 53 803 l 67 979 l 897 979 z "},"Ț":{"ha":864,"x_min":53,"x_max":897,"o":"m 360 803 l 53 803 l 67 979 l 897 979 l 885 803 l 578 803 l 514 0 l 297 0 l 360 803 m 501 -90 l 494 -181 q 467 -293 489 -244 q 394 -382 444 -342 l 324 -331 q 379 -249 367 -292 l 282 -249 l 294 -90 l 501 -90 z "},"Ṭ":{"ha":864,"x_min":53,"x_max":897,"o":"m 360 803 l 53 803 l 67 979 l 897 979 l 885 803 l 578 803 l 514 0 l 297 0 l 360 803 m 494 -93 l 479 -276 l 288 -276 l 303 -93 l 494 -93 z "},"Ṯ":{"ha":864,"x_min":53,"x_max":897,"o":"m 360 803 l 53 803 l 67 979 l 897 979 l 885 803 l 578 803 l 514 0 l 297 0 l 360 803 m 178 -124 l 613 -124 l 604 -246 l 169 -246 l 178 -124 z "},"U":{"ha":1026,"x_min":94,"x_max":985,"o":"m 506 -12 q 198 81 301 -12 q 94 360 94 175 q 97 417 94 378 l 142 979 l 354 979 l 310 411 q 308 368 308 396 q 360 208 308 261 q 517 156 411 156 q 663 209 610 156 q 725 383 715 263 l 772 979 l 985 979 l 939 399 q 814 91 924 194 q 506 -12 704 -12 z "},"Ú":{"ha":1026,"x_min":94,"x_max":985,"o":"m 506 -12 q 198 81 301 -12 q 94 360 94 175 q 97 417 94 378 l 142 979 l 354 979 l 310 411 q 308 368 308 396 q 360 208 308 261 q 517 156 411 156 q 663 209 610 156 q 725 383 715 263 l 772 979 l 985 979 l 939 399 q 814 91 924 194 q 506 -12 704 -12 m 504 1063 l 658 1279 l 863 1279 l 635 1063 l 504 1063 z "},"Ŭ":{"ha":1026,"x_min":94,"x_max":985,"o":"m 506 -12 q 198 81 301 -12 q 94 360 94 175 q 97 417 94 378 l 142 979 l 354 979 l 310 411 q 308 368 308 396 q 360 208 308 261 q 517 156 411 156 q 663 209 610 156 q 725 383 715 263 l 772 979 l 985 979 l 939 399 q 814 91 924 194 q 506 -12 704 -12 m 581 1075 q 424 1116 490 1075 q 335 1226 357 1157 l 436 1267 q 496 1216 457 1233 q 585 1199 535 1199 q 672 1215 632 1199 q 736 1267 711 1232 l 829 1226 q 735 1116 801 1157 q 581 1075 668 1075 z "},"Û":{"ha":1026,"x_min":94,"x_max":985,"o":"m 506 -12 q 198 81 301 -12 q 94 360 94 175 q 97 417 94 378 l 142 979 l 354 979 l 310 411 q 308 368 308 396 q 360 208 308 261 q 517 156 411 156 q 663 209 610 156 q 725 383 715 263 l 772 979 l 985 979 l 939 399 q 814 91 924 194 q 506 -12 704 -12 m 326 1063 l 526 1279 l 646 1279 l 813 1063 l 656 1063 l 583 1181 l 483 1063 l 326 1063 z "},"Ȕ":{"ha":1026,"x_min":94,"x_max":985,"o":"m 506 -12 q 198 81 301 -12 q 94 360 94 175 q 97 417 94 378 l 142 979 l 354 979 l 310 411 q 308 368 308 396 q 360 208 308 261 q 517 156 411 156 q 663 209 610 156 q 725 383 715 263 l 772 979 l 985 979 l 939 399 q 814 91 924 194 q 506 -12 704 -12 m 303 1279 l 438 1279 l 525 1063 l 422 1063 l 303 1279 m 494 1279 l 629 1279 l 717 1063 l 614 1063 l 494 1279 z "},"Ü":{"ha":1026,"x_min":94,"x_max":985,"o":"m 506 -12 q 198 81 301 -12 q 94 360 94 175 q 97 417 94 378 l 142 979 l 354 979 l 310 411 q 308 368 308 396 q 360 208 308 261 q 517 156 411 156 q 663 209 610 156 q 725 383 715 263 l 772 979 l 985 979 l 939 399 q 814 91 924 194 q 506 -12 704 -12 m 550 1263 l 535 1081 l 343 1081 l 357 1263 l 550 1263 m 814 1263 l 800 1081 l 607 1081 l 622 1263 l 814 1263 z "},"Ụ":{"ha":1026,"x_min":94,"x_max":985,"o":"m 506 -12 q 198 81 301 -12 q 94 360 94 175 q 97 417 94 378 l 142 979 l 354 979 l 310 411 q 308 368 308 396 q 360 208 308 261 q 517 156 411 156 q 663 209 610 156 q 725 383 715 263 l 772 979 l 985 979 l 939 399 q 814 91 924 194 q 506 -12 704 -12 m 575 -93 l 560 -276 l 368 -276 l 383 -93 l 575 -93 z "},"Ù":{"ha":1026,"x_min":94,"x_max":985,"o":"m 506 -12 q 198 81 301 -12 q 94 360 94 175 q 97 417 94 378 l 142 979 l 354 979 l 310 411 q 308 368 308 396 q 360 208 308 261 q 517 156 411 156 q 663 209 610 156 q 725 383 715 263 l 772 979 l 985 979 l 939 399 q 814 91 924 194 q 506 -12 704 -12 m 319 1279 l 503 1279 l 635 1063 l 504 1063 l 319 1279 z "},"Ủ":{"ha":1026,"x_min":94,"x_max":985,"o":"m 506 -12 q 198 81 301 -12 q 94 360 94 175 q 97 417 94 378 l 142 979 l 354 979 l 310 411 q 308 368 308 396 q 360 208 308 261 q 517 156 411 156 q 663 209 610 156 q 725 383 715 263 l 772 979 l 985 979 l 939 399 q 814 91 924 194 q 506 -12 704 -12 m 621 1063 l 518 1063 l 521 1093 q 538 1131 522 1118 q 583 1157 554 1143 q 609 1169 600 1163 q 618 1183 618 1175 q 608 1197 618 1192 q 578 1203 599 1203 q 493 1186 538 1203 l 471 1263 q 603 1285 535 1285 q 708 1261 669 1285 q 747 1201 747 1238 q 729 1157 747 1172 q 675 1125 711 1142 q 636 1103 649 1113 q 622 1081 624 1094 l 621 1063 z "},"Ư":{"ha":1026,"x_min":94,"x_max":1154,"o":"m 1154 1147 l 1150 1094 q 1099 956 1143 1013 q 978 885 1054 900 l 939 399 q 813 91 922 194 q 506 -12 704 -12 q 198 81 301 -12 q 94 360 94 175 q 97 417 94 378 l 142 979 l 354 979 l 310 411 q 308 368 308 396 q 360 208 308 261 q 517 156 411 156 q 663 209 610 156 q 725 383 715 263 l 772 979 l 833 979 q 935 1010 904 979 q 971 1121 965 1042 l 974 1147 l 1154 1147 z "},"Ứ":{"ha":1026,"x_min":94,"x_max":1154,"o":"m 1154 1147 l 1150 1094 q 1099 956 1143 1013 q 978 885 1054 900 l 939 399 q 813 91 922 194 q 506 -12 704 -12 q 198 81 301 -12 q 94 360 94 175 q 97 417 94 378 l 142 979 l 354 979 l 310 411 q 308 368 308 396 q 360 208 308 261 q 517 156 411 156 q 663 209 610 156 q 725 383 715 263 l 772 979 l 833 979 q 935 1010 904 979 q 971 1121 965 1042 l 974 1147 l 1154 1147 m 504 1063 l 658 1279 l 863 1279 l 635 1063 l 504 1063 z "},"Ự":{"ha":1026,"x_min":94,"x_max":1154,"o":"m 1154 1147 l 1150 1094 q 1099 956 1143 1013 q 978 885 1054 900 l 939 399 q 813 91 922 194 q 506 -12 704 -12 q 198 81 301 -12 q 94 360 94 175 q 97 417 94 378 l 142 979 l 354 979 l 310 411 q 308 368 308 396 q 360 208 308 261 q 517 156 411 156 q 663 209 610 156 q 725 383 715 263 l 772 979 l 833 979 q 935 1010 904 979 q 971 1121 965 1042 l 974 1147 l 1154 1147 m 575 -93 l 560 -276 l 368 -276 l 383 -93 l 575 -93 z "},"Ừ":{"ha":1026,"x_min":94,"x_max":1154,"o":"m 1154 1147 l 1150 1094 q 1099 956 1143 1013 q 978 885 1054 900 l 939 399 q 813 91 922 194 q 506 -12 704 -12 q 198 81 301 -12 q 94 360 94 175 q 97 417 94 378 l 142 979 l 354 979 l 310 411 q 308 368 308 396 q 360 208 308 261 q 517 156 411 156 q 663 209 610 156 q 725 383 715 263 l 772 979 l 833 979 q 935 1010 904 979 q 971 1121 965 1042 l 974 1147 l 1154 1147 m 319 1279 l 503 1279 l 635 1063 l 504 1063 l 319 1279 z "},"Ử":{"ha":1026,"x_min":94,"x_max":1154,"o":"m 1154 1147 l 1150 1094 q 1099 956 1143 1013 q 978 885 1054 900 l 939 399 q 813 91 922 194 q 506 -12 704 -12 q 198 81 301 -12 q 94 360 94 175 q 97 417 94 378 l 142 979 l 354 979 l 310 411 q 308 368 308 396 q 360 208 308 261 q 517 156 411 156 q 663 209 610 156 q 725 383 715 263 l 772 979 l 833 979 q 935 1010 904 979 q 971 1121 965 1042 l 974 1147 l 1154 1147 m 621 1063 l 518 1063 l 521 1093 q 538 1131 522 1118 q 583 1157 554 1143 q 609 1169 600 1163 q 618 1183 618 1175 q 608 1197 618 1192 q 578 1203 599 1203 q 493 1186 538 1203 l 471 1263 q 603 1285 535 1285 q 708 1261 669 1285 q 747 1201 747 1238 q 729 1157 747 1172 q 675 1125 711 1142 q 636 1103 649 1113 q 622 1081 624 1094 l 621 1063 z "},"Ữ":{"ha":1026,"x_min":94,"x_max":1154,"o":"m 1154 1147 l 1150 1094 q 1099 956 1143 1013 q 978 885 1054 900 l 939 399 q 813 91 922 194 q 506 -12 704 -12 q 198 81 301 -12 q 94 360 94 175 q 97 417 94 378 l 142 979 l 354 979 l 310 411 q 308 368 308 396 q 360 208 308 261 q 517 156 411 156 q 663 209 610 156 q 725 383 715 263 l 772 979 l 833 979 q 935 1010 904 979 q 971 1121 965 1042 l 974 1147 l 1154 1147 m 329 1072 q 381 1226 335 1176 q 494 1275 426 1275 q 544 1265 521 1275 q 599 1233 568 1254 q 641 1209 625 1217 q 674 1201 657 1201 q 717 1219 700 1201 q 738 1271 735 1236 l 828 1271 q 776 1117 822 1167 q 661 1068 729 1068 q 612 1078 635 1068 q 558 1108 589 1089 q 516 1133 532 1125 q 483 1140 500 1140 q 440 1124 457 1140 q 419 1072 422 1107 l 329 1072 z "},"Ű":{"ha":1026,"x_min":94,"x_max":985,"o":"m 506 -12 q 198 81 301 -12 q 94 360 94 175 q 97 417 94 378 l 142 979 l 354 979 l 310 411 q 308 368 308 396 q 360 208 308 261 q 517 156 411 156 q 663 209 610 156 q 725 383 715 263 l 772 979 l 985 979 l 939 399 q 814 91 924 194 q 506 -12 704 -12 m 422 1063 l 538 1279 l 682 1279 l 525 1063 l 422 1063 m 614 1063 l 729 1279 l 875 1279 l 717 1063 l 614 1063 z "},"Ȗ":{"ha":1026,"x_min":94,"x_max":985,"o":"m 506 -12 q 198 81 301 -12 q 94 360 94 175 q 97 417 94 378 l 142 979 l 354 979 l 310 411 q 308 368 308 396 q 360 208 308 261 q 517 156 411 156 q 663 209 610 156 q 725 383 715 263 l 772 979 l 985 979 l 939 399 q 814 91 924 194 q 506 -12 704 -12 m 575 1268 q 732 1227 665 1268 q 821 1117 799 1186 l 719 1075 q 660 1126 699 1108 q 571 1144 621 1144 q 419 1075 469 1144 l 326 1117 q 422 1227 356 1186 q 575 1268 488 1268 z "},"Ū":{"ha":1026,"x_min":94,"x_max":985,"o":"m 506 -12 q 198 81 301 -12 q 94 360 94 175 q 97 417 94 378 l 142 979 l 354 979 l 310 411 q 308 368 308 396 q 360 208 308 261 q 517 156 411 156 q 663 209 610 156 q 725 383 715 263 l 772 979 l 985 979 l 939 399 q 814 91 924 194 q 506 -12 704 -12 m 367 1236 l 801 1236 l 792 1106 l 357 1106 l 367 1236 z "},"Ṻ":{"ha":1026,"x_min":94,"x_max":985,"o":"m 506 -12 q 198 81 301 -12 q 94 360 94 175 q 97 417 94 378 l 142 979 l 354 979 l 310 411 q 308 368 308 396 q 360 208 308 261 q 517 156 411 156 q 663 209 610 156 q 725 383 715 263 l 772 979 l 985 979 l 939 399 q 814 91 924 194 q 506 -12 704 -12 m 367 1236 l 801 1236 l 792 1106 l 357 1106 l 367 1236 m 568 1485 l 553 1303 l 361 1303 l 375 1485 l 568 1485 m 832 1485 l 818 1303 l 625 1303 l 640 1485 l 832 1485 z "},"Ų":{"ha":1026,"x_min":94,"x_max":985,"o":"m 985 979 l 939 399 q 854 136 926 236 q 643 0 782 36 q 551 -94 551 -24 q 572 -147 551 -128 q 625 -165 592 -165 q 704 -147 654 -165 l 721 -246 q 589 -274 654 -274 q 462 -233 510 -274 q 414 -126 414 -192 q 465 -11 414 -54 q 188 90 282 -4 q 94 360 94 183 q 97 417 94 378 l 142 979 l 354 979 l 310 411 q 308 368 308 396 q 360 208 308 261 q 517 156 411 156 q 663 209 610 156 q 725 383 715 263 l 772 979 l 985 979 z "},"Ů":{"ha":1026,"x_min":94,"x_max":985,"o":"m 506 -12 q 198 81 301 -12 q 94 360 94 175 q 97 417 94 378 l 142 979 l 354 979 l 310 411 q 308 368 308 396 q 360 208 308 261 q 517 156 411 156 q 663 209 610 156 q 725 383 715 263 l 772 979 l 985 979 l 939 399 q 814 91 924 194 q 506 -12 704 -12 m 581 1056 q 473 1099 517 1056 q 429 1204 429 1142 q 473 1311 429 1268 q 581 1354 517 1354 q 688 1311 644 1354 q 732 1204 732 1268 q 688 1099 732 1142 q 581 1056 644 1056 m 581 1142 q 624 1160 607 1142 q 640 1204 640 1178 q 624 1250 640 1232 q 581 1268 607 1268 q 538 1250 554 1268 q 521 1204 521 1232 q 538 1160 521 1178 q 581 1142 554 1142 z "},"Ũ":{"ha":1026,"x_min":94,"x_max":985,"o":"m 506 -12 q 198 81 301 -12 q 94 360 94 175 q 97 417 94 378 l 142 979 l 354 979 l 310 411 q 308 368 308 396 q 360 208 308 261 q 517 156 411 156 q 663 209 610 156 q 725 383 715 263 l 772 979 l 985 979 l 939 399 q 814 91 924 194 q 506 -12 704 -12 m 329 1072 q 381 1226 335 1176 q 494 1275 426 1275 q 544 1265 521 1275 q 599 1233 568 1254 q 641 1209 625 1217 q 674 1201 657 1201 q 717 1219 700 1201 q 738 1271 735 1236 l 828 1271 q 776 1117 822 1167 q 661 1068 729 1068 q 612 1078 635 1068 q 558 1108 589 1089 q 516 1133 532 1125 q 483 1140 500 1140 q 440 1124 457 1140 q 419 1072 422 1107 l 329 1072 z "},"Ṹ":{"ha":1026,"x_min":94,"x_max":985,"o":"m 506 -12 q 198 81 301 -12 q 94 360 94 175 q 97 417 94 378 l 142 979 l 354 979 l 310 411 q 308 368 308 396 q 360 208 308 261 q 517 156 411 156 q 663 209 610 156 q 725 383 715 263 l 772 979 l 985 979 l 939 399 q 814 91 924 194 q 506 -12 704 -12 m 329 1072 q 381 1226 335 1176 q 494 1275 426 1275 q 544 1265 521 1275 q 599 1233 568 1254 q 641 1209 625 1217 q 674 1201 657 1201 q 717 1219 700 1201 q 738 1271 735 1236 l 828 1271 q 776 1117 822 1167 q 661 1068 729 1068 q 612 1078 635 1068 q 558 1108 589 1089 q 516 1133 532 1125 q 483 1140 500 1140 q 440 1124 457 1140 q 419 1072 422 1107 l 329 1072 m 522 1285 l 676 1501 l 881 1501 l 653 1285 l 522 1285 z "},"V":{"ha":1011,"x_min":28,"x_max":1083,"o":"m 1083 979 l 567 0 l 393 0 l 28 979 l 253 979 l 503 269 l 863 979 l 1083 979 z "},"W":{"ha":1549,"x_min":75,"x_max":1574,"o":"m 1574 979 l 1149 0 l 975 0 l 797 647 l 519 0 l 346 0 l 75 979 l 293 979 l 464 304 l 754 979 l 906 979 l 1081 296 l 1367 979 l 1574 979 z "},"Ẃ":{"ha":1549,"x_min":75,"x_max":1574,"o":"m 1574 979 l 1149 0 l 975 0 l 797 647 l 519 0 l 346 0 l 75 979 l 293 979 l 464 304 l 754 979 l 906 979 l 1081 296 l 1367 979 l 1574 979 m 765 1063 l 919 1279 l 1124 1279 l 896 1063 l 765 1063 z "},"Ŵ":{"ha":1549,"x_min":75,"x_max":1574,"o":"m 1574 979 l 1149 0 l 975 0 l 797 647 l 519 0 l 346 0 l 75 979 l 293 979 l 464 304 l 754 979 l 906 979 l 1081 296 l 1367 979 l 1574 979 m 588 1063 l 788 1279 l 907 1279 l 1074 1063 l 917 1063 l 844 1181 l 744 1063 l 588 1063 z "},"Ẅ":{"ha":1549,"x_min":75,"x_max":1574,"o":"m 1574 979 l 1149 0 l 975 0 l 797 647 l 519 0 l 346 0 l 75 979 l 293 979 l 464 304 l 754 979 l 906 979 l 1081 296 l 1367 979 l 1574 979 m 811 1263 l 796 1081 l 604 1081 l 618 1263 l 811 1263 m 1075 1263 l 1061 1081 l 868 1081 l 883 1263 l 1075 1263 z "},"Ẁ":{"ha":1549,"x_min":75,"x_max":1574,"o":"m 1574 979 l 1149 0 l 975 0 l 797 647 l 519 0 l 346 0 l 75 979 l 293 979 l 464 304 l 754 979 l 906 979 l 1081 296 l 1367 979 l 1574 979 m 581 1279 l 764 1279 l 896 1063 l 765 1063 l 581 1279 z "},"X":{"ha":938,"x_min":-54,"x_max":1006,"o":"m 601 493 l 938 0 l 690 0 l 469 333 l 201 0 l -54 0 l 360 499 l 32 979 l 281 979 l 492 658 l 750 979 l 1006 979 l 601 493 z "},"Y":{"ha":883,"x_min":-21,"x_max":1006,"o":"m 558 443 l 524 0 l 307 0 l 342 443 l -21 979 l 221 979 l 461 618 l 757 979 l 1006 979 l 558 443 z "},"Ý":{"ha":883,"x_min":-21,"x_max":1006,"o":"m 558 443 l 524 0 l 307 0 l 342 443 l -21 979 l 221 979 l 461 618 l 757 979 l 1006 979 l 558 443 m 433 1063 l 588 1279 l 792 1279 l 564 1063 l 433 1063 z "},"Ŷ":{"ha":883,"x_min":-21,"x_max":1006,"o":"m 558 443 l 524 0 l 307 0 l 342 443 l -21 979 l 221 979 l 461 618 l 757 979 l 1006 979 l 558 443 m 256 1063 l 456 1279 l 575 1279 l 742 1063 l 585 1063 l 513 1181 l 413 1063 l 256 1063 z "},"Ÿ":{"ha":883,"x_min":-21,"x_max":1006,"o":"m 558 443 l 524 0 l 307 0 l 342 443 l -21 979 l 221 979 l 461 618 l 757 979 l 1006 979 l 558 443 m 479 1263 l 464 1081 l 272 1081 l 286 1263 l 479 1263 m 743 1263 l 729 1081 l 536 1081 l 551 1263 l 743 1263 z "},"Ẏ":{"ha":883,"x_min":-21,"x_max":1006,"o":"m 558 443 l 524 0 l 307 0 l 342 443 l -21 979 l 221 979 l 461 618 l 757 979 l 1006 979 l 558 443 m 628 1269 l 613 1074 l 388 1074 l 403 1269 l 628 1269 z "},"Ỵ":{"ha":883,"x_min":-21,"x_max":1006,"o":"m 558 443 l 524 0 l 307 0 l 342 443 l -21 979 l 221 979 l 461 618 l 757 979 l 1006 979 l 558 443 m 506 -93 l 490 -276 l 299 -276 l 314 -93 l 506 -93 z "},"Ỳ":{"ha":883,"x_min":-21,"x_max":1006,"o":"m 558 443 l 524 0 l 307 0 l 342 443 l -21 979 l 221 979 l 461 618 l 757 979 l 1006 979 l 558 443 m 249 1279 l 432 1279 l 564 1063 l 433 1063 l 249 1279 z "},"Ỷ":{"ha":883,"x_min":-21,"x_max":1006,"o":"m 558 443 l 524 0 l 307 0 l 342 443 l -21 979 l 221 979 l 461 618 l 757 979 l 1006 979 l 558 443 m 550 1063 l 447 1063 l 450 1093 q 467 1131 451 1118 q 513 1157 483 1143 q 538 1169 529 1163 q 547 1183 547 1175 q 538 1197 547 1192 q 507 1203 528 1203 q 422 1186 467 1203 l 400 1263 q 532 1285 464 1285 q 638 1261 599 1285 q 676 1201 676 1238 q 658 1157 676 1172 q 604 1125 640 1142 q 565 1103 578 1113 q 551 1081 553 1094 l 550 1063 z "},"Ȳ":{"ha":883,"x_min":-21,"x_max":1006,"o":"m 558 443 l 524 0 l 307 0 l 342 443 l -21 979 l 221 979 l 461 618 l 757 979 l 1006 979 l 558 443 m 296 1236 l 731 1236 l 721 1106 l 286 1106 l 296 1236 z "},"Ỹ":{"ha":883,"x_min":-21,"x_max":1006,"o":"m 558 443 l 524 0 l 307 0 l 342 443 l -21 979 l 221 979 l 461 618 l 757 979 l 1006 979 l 558 443 m 258 1072 q 310 1226 264 1176 q 424 1275 356 1275 q 474 1265 450 1275 q 528 1233 497 1254 q 570 1209 554 1217 q 603 1201 586 1201 q 647 1219 629 1201 q 667 1271 664 1236 l 757 1271 q 705 1117 751 1167 q 590 1068 658 1068 q 541 1078 564 1068 q 488 1108 518 1089 q 445 1133 461 1125 q 413 1140 429 1140 q 369 1124 386 1140 q 349 1072 351 1107 l 258 1072 z "},"Z":{"ha":847,"x_min":43,"x_max":833,"o":"m 821 824 l 304 171 l 785 171 l 771 0 l 43 0 l 54 158 l 569 808 l 106 808 l 119 979 l 833 979 l 821 824 z "},"Ź":{"ha":847,"x_min":43,"x_max":833,"o":"m 821 824 l 304 171 l 785 171 l 771 0 l 43 0 l 54 158 l 569 808 l 106 808 l 119 979 l 833 979 l 821 824 m 417 1063 l 571 1279 l 775 1279 l 547 1063 l 417 1063 z "},"Ž":{"ha":847,"x_min":43,"x_max":833,"o":"m 821 824 l 304 171 l 785 171 l 771 0 l 43 0 l 54 158 l 569 808 l 106 808 l 119 979 l 833 979 l 821 824 m 742 1279 l 542 1063 l 422 1063 l 256 1279 l 413 1279 l 494 1160 l 585 1279 l 742 1279 z "},"Ż":{"ha":847,"x_min":43,"x_max":833,"o":"m 821 824 l 304 171 l 785 171 l 771 0 l 43 0 l 54 158 l 569 808 l 106 808 l 119 979 l 833 979 l 821 824 m 611 1269 l 596 1074 l 371 1074 l 386 1269 l 611 1269 z "},"Ẓ":{"ha":847,"x_min":43,"x_max":833,"o":"m 821 824 l 304 171 l 785 171 l 771 0 l 43 0 l 54 158 l 569 808 l 106 808 l 119 979 l 833 979 l 821 824 m 483 -93 l 468 -276 l 276 -276 l 292 -93 l 483 -93 z "},"a":{"ha":758,"x_min":43,"x_max":688,"o":"m 410 699 q 619 634 550 699 q 688 439 688 569 q 686 393 688 408 l 656 0 l 457 0 l 464 93 q 390 16 438 43 q 281 -11 343 -11 q 158 15 213 -11 q 74 88 104 42 q 43 190 43 133 q 83 315 43 268 q 208 384 122 363 q 438 406 294 406 l 488 406 l 489 424 q 465 513 493 485 q 371 542 436 542 q 260 524 319 542 q 149 474 201 506 l 103 614 q 244 675 160 651 q 410 699 329 699 m 339 133 q 434 174 396 133 q 478 281 472 215 l 479 304 l 442 304 q 290 283 333 304 q 247 213 247 263 q 272 155 247 176 q 339 133 297 133 z "},"á":{"ha":758,"x_min":43,"x_max":725,"o":"m 410 699 q 619 634 550 699 q 688 439 688 569 q 686 393 688 408 l 656 0 l 457 0 l 464 93 q 390 16 438 43 q 281 -11 343 -11 q 158 15 213 -11 q 74 88 104 42 q 43 190 43 133 q 83 315 43 268 q 208 384 122 363 q 438 406 294 406 l 488 406 l 489 424 q 465 513 493 485 q 371 542 436 542 q 260 524 319 542 q 149 474 201 506 l 103 614 q 244 675 160 651 q 410 699 329 699 m 339 133 q 434 174 396 133 q 478 281 472 215 l 479 304 l 442 304 q 290 283 333 304 q 247 213 247 263 q 272 155 247 176 q 339 133 297 133 m 357 771 l 510 1056 l 725 1056 l 488 771 l 357 771 z "},"ă":{"ha":758,"x_min":43,"x_max":697,"o":"m 410 699 q 619 634 550 699 q 688 439 688 569 q 686 393 688 408 l 656 0 l 457 0 l 464 93 q 390 16 438 43 q 281 -11 343 -11 q 158 15 213 -11 q 74 88 104 42 q 43 190 43 133 q 83 315 43 268 q 208 384 122 363 q 438 406 294 406 l 488 406 l 489 424 q 465 513 493 485 q 371 542 436 542 q 260 524 319 542 q 149 474 201 506 l 103 614 q 244 675 160 651 q 410 699 329 699 m 339 133 q 434 174 396 133 q 478 281 472 215 l 479 304 l 442 304 q 290 283 333 304 q 247 213 247 263 q 272 155 247 176 q 339 133 297 133 m 432 801 q 274 853 343 801 q 182 1003 206 906 l 282 1043 q 350 960 308 986 q 442 933 392 933 q 604 1043 536 933 l 697 1003 q 595 853 668 904 q 432 801 522 801 z "},"ắ":{"ha":758,"x_min":43,"x_max":713,"o":"m 410 699 q 619 634 550 699 q 688 439 688 569 q 686 393 688 408 l 656 0 l 457 0 l 464 93 q 390 16 438 43 q 281 -11 343 -11 q 158 15 213 -11 q 74 88 104 42 q 43 190 43 133 q 83 315 43 268 q 208 384 122 363 q 438 406 294 406 l 488 406 l 489 424 q 465 513 493 485 q 371 542 436 542 q 260 524 319 542 q 149 474 201 506 l 103 614 q 244 675 160 651 q 410 699 329 699 m 339 133 q 434 174 396 133 q 478 281 472 215 l 479 304 l 442 304 q 290 283 333 304 q 247 213 247 263 q 272 155 247 176 q 339 133 297 133 m 372 918 l 521 1115 l 713 1115 l 494 918 l 372 918 m 431 764 q 274 803 339 764 q 186 915 210 842 l 264 946 q 335 889 288 908 q 439 869 382 869 q 533 890 485 869 q 607 946 582 910 l 681 915 q 581 803 649 842 q 431 764 513 764 z "},"ặ":{"ha":758,"x_min":43,"x_max":697,"o":"m 410 699 q 619 634 550 699 q 688 439 688 569 q 686 393 688 408 l 656 0 l 457 0 l 464 93 q 390 16 438 43 q 281 -11 343 -11 q 158 15 213 -11 q 74 88 104 42 q 43 190 43 133 q 83 315 43 268 q 208 384 122 363 q 438 406 294 406 l 488 406 l 489 424 q 465 513 493 485 q 371 542 436 542 q 260 524 319 542 q 149 474 201 506 l 103 614 q 244 675 160 651 q 410 699 329 699 m 339 133 q 434 174 396 133 q 478 281 472 215 l 479 304 l 442 304 q 290 283 333 304 q 247 213 247 263 q 272 155 247 176 q 339 133 297 133 m 444 -93 l 429 -276 l 238 -276 l 253 -93 l 444 -93 m 432 801 q 274 853 343 801 q 182 1003 206 906 l 282 1043 q 350 960 308 986 q 442 933 392 933 q 604 1043 536 933 l 697 1003 q 595 853 668 904 q 432 801 522 801 z "},"ằ":{"ha":758,"x_min":43,"x_max":688,"o":"m 410 699 q 619 634 550 699 q 688 439 688 569 q 686 393 688 408 l 656 0 l 457 0 l 464 93 q 390 16 438 43 q 281 -11 343 -11 q 158 15 213 -11 q 74 88 104 42 q 43 190 43 133 q 83 315 43 268 q 208 384 122 363 q 438 406 294 406 l 488 406 l 489 424 q 465 513 493 485 q 371 542 436 542 q 260 524 319 542 q 149 474 201 506 l 103 614 q 244 675 160 651 q 410 699 329 699 m 339 133 q 434 174 396 133 q 478 281 472 215 l 479 304 l 442 304 q 290 283 333 304 q 247 213 247 263 q 272 155 247 176 q 339 133 297 133 m 196 1115 l 365 1115 l 494 918 l 372 918 l 196 1115 m 431 764 q 274 803 339 764 q 186 915 210 842 l 264 946 q 335 889 288 908 q 439 869 382 869 q 533 890 485 869 q 607 946 582 910 l 681 915 q 581 803 649 842 q 431 764 513 764 z "},"ẳ":{"ha":758,"x_min":43,"x_max":688,"o":"m 410 699 q 619 634 550 699 q 688 439 688 569 q 686 393 688 408 l 656 0 l 457 0 l 464 93 q 390 16 438 43 q 281 -11 343 -11 q 158 15 213 -11 q 74 88 104 42 q 43 190 43 133 q 83 315 43 268 q 208 384 122 363 q 438 406 294 406 l 488 406 l 489 424 q 465 513 493 485 q 371 542 436 542 q 260 524 319 542 q 149 474 201 506 l 103 614 q 244 675 160 651 q 410 699 329 699 m 339 133 q 434 174 396 133 q 478 281 472 215 l 479 304 l 442 304 q 290 283 333 304 q 247 213 247 263 q 272 155 247 176 q 339 133 297 133 m 385 947 q 406 988 388 974 q 454 1014 425 1003 q 465 1019 457 1015 q 477 1026 474 1022 q 481 1032 481 1029 q 450 1043 481 1043 q 354 1029 408 1043 l 333 1100 q 468 1122 389 1122 q 572 1101 533 1122 q 610 1044 610 1079 q 591 1000 610 1015 q 539 972 572 985 q 500 953 513 961 q 486 931 488 944 l 485 919 l 382 919 l 385 947 m 431 764 q 274 803 339 764 q 186 915 210 842 l 264 946 q 335 889 288 908 q 439 869 382 869 q 533 890 485 869 q 607 946 582 910 l 681 915 q 581 803 649 842 q 431 764 513 764 z "},"ẵ":{"ha":758,"x_min":43,"x_max":690,"o":"m 410 699 q 619 634 550 699 q 688 439 688 569 q 686 393 688 408 l 656 0 l 457 0 l 464 93 q 390 16 438 43 q 281 -11 343 -11 q 158 15 213 -11 q 74 88 104 42 q 43 190 43 133 q 83 315 43 268 q 208 384 122 363 q 438 406 294 406 l 488 406 l 489 424 q 465 513 493 485 q 371 542 436 542 q 260 524 319 542 q 149 474 201 506 l 103 614 q 244 675 160 651 q 410 699 329 699 m 339 133 q 434 174 396 133 q 478 281 472 215 l 479 304 l 442 304 q 290 283 333 304 q 247 213 247 263 q 272 155 247 176 q 339 133 297 133 m 535 972 q 482 978 507 972 q 425 997 457 985 q 342 1018 372 1018 q 286 976 292 1018 l 196 976 q 245 1082 199 1042 q 353 1122 292 1122 q 403 1116 381 1122 q 463 1096 426 1110 q 546 1075 515 1075 q 600 1118 597 1075 l 690 1118 q 642 1013 689 1053 q 535 972 594 972 m 431 764 q 274 803 339 764 q 186 915 210 842 l 264 946 q 335 889 288 908 q 439 869 382 869 q 533 890 485 869 q 607 946 582 910 l 681 915 q 581 803 649 842 q 431 764 513 764 z "},"ǎ":{"ha":758,"x_min":43,"x_max":688,"o":"m 410 699 q 619 634 550 699 q 688 439 688 569 q 686 393 688 408 l 656 0 l 457 0 l 464 93 q 390 16 438 43 q 281 -11 343 -11 q 158 15 213 -11 q 74 88 104 42 q 43 190 43 133 q 83 315 43 268 q 208 384 122 363 q 438 406 294 406 l 488 406 l 489 424 q 465 513 493 485 q 371 542 436 542 q 260 524 319 542 q 149 474 201 506 l 103 614 q 244 675 160 651 q 410 699 329 699 m 339 133 q 434 174 396 133 q 478 281 472 215 l 479 304 l 442 304 q 290 283 333 304 q 247 213 247 263 q 272 155 247 176 q 339 133 297 133 m 688 1056 l 485 771 l 360 771 l 201 1056 l 360 1056 l 432 894 l 521 1056 l 688 1056 z "},"â":{"ha":758,"x_min":43,"x_max":688,"o":"m 410 699 q 619 634 550 699 q 688 439 688 569 q 686 393 688 408 l 656 0 l 457 0 l 464 93 q 390 16 438 43 q 281 -11 343 -11 q 158 15 213 -11 q 74 88 104 42 q 43 190 43 133 q 83 315 43 268 q 208 384 122 363 q 438 406 294 406 l 488 406 l 489 424 q 465 513 493 485 q 371 542 436 542 q 260 524 319 542 q 149 474 201 506 l 103 614 q 244 675 160 651 q 410 699 329 699 m 339 133 q 434 174 396 133 q 478 281 472 215 l 479 304 l 442 304 q 290 283 333 304 q 247 213 247 263 q 272 155 247 176 q 339 133 297 133 m 179 771 l 382 1056 l 507 1056 l 665 771 l 507 771 l 435 932 l 346 771 l 179 771 z "},"ấ":{"ha":758,"x_min":43,"x_max":858,"o":"m 410 699 q 619 634 550 699 q 688 439 688 569 q 686 393 688 408 l 656 0 l 457 0 l 464 93 q 390 16 438 43 q 281 -11 343 -11 q 158 15 213 -11 q 74 88 104 42 q 43 190 43 133 q 83 315 43 268 q 208 384 122 363 q 438 406 294 406 l 488 406 l 489 424 q 465 513 493 485 q 371 542 436 542 q 260 524 319 542 q 149 474 201 506 l 103 614 q 244 675 160 651 q 410 699 329 699 m 339 133 q 434 174 396 133 q 478 281 472 215 l 479 304 l 442 304 q 290 283 333 304 q 247 213 247 263 q 272 155 247 176 q 339 133 297 133 m 564 918 l 674 1115 l 858 1115 l 667 918 l 564 918 m 179 771 l 378 963 l 497 963 l 665 771 l 513 771 l 433 869 l 335 771 l 179 771 z "},"ậ":{"ha":758,"x_min":43,"x_max":688,"o":"m 410 699 q 619 634 550 699 q 688 439 688 569 q 686 393 688 408 l 656 0 l 457 0 l 464 93 q 390 16 438 43 q 281 -11 343 -11 q 158 15 213 -11 q 74 88 104 42 q 43 190 43 133 q 83 315 43 268 q 208 384 122 363 q 438 406 294 406 l 488 406 l 489 424 q 465 513 493 485 q 371 542 436 542 q 260 524 319 542 q 149 474 201 506 l 103 614 q 244 675 160 651 q 410 699 329 699 m 339 133 q 434 174 396 133 q 478 281 472 215 l 479 304 l 442 304 q 290 283 333 304 q 247 213 247 263 q 272 155 247 176 q 339 133 297 133 m 444 -93 l 429 -276 l 238 -276 l 253 -93 l 444 -93 m 179 771 l 382 1056 l 507 1056 l 665 771 l 507 771 l 435 932 l 346 771 l 179 771 z "},"ầ":{"ha":758,"x_min":43,"x_max":725,"o":"m 410 699 q 619 634 550 699 q 688 439 688 569 q 686 393 688 408 l 656 0 l 457 0 l 464 93 q 390 16 438 43 q 281 -11 343 -11 q 158 15 213 -11 q 74 88 104 42 q 43 190 43 133 q 83 315 43 268 q 208 384 122 363 q 438 406 294 406 l 488 406 l 489 424 q 465 513 493 485 q 371 542 436 542 q 260 524 319 542 q 149 474 201 506 l 103 614 q 244 675 160 651 q 410 699 329 699 m 339 133 q 434 174 396 133 q 478 281 472 215 l 479 304 l 442 304 q 290 283 333 304 q 247 213 247 263 q 272 155 247 176 q 339 133 297 133 m 474 1115 l 636 1115 l 725 918 l 622 918 l 474 1115 m 378 963 l 497 963 l 665 771 l 513 771 l 433 869 l 335 771 l 179 771 l 378 963 z "},"ẩ":{"ha":758,"x_min":43,"x_max":790,"o":"m 410 699 q 619 634 550 699 q 688 439 688 569 q 686 393 688 408 l 656 0 l 457 0 l 464 93 q 390 16 438 43 q 281 -11 343 -11 q 158 15 213 -11 q 74 88 104 42 q 43 190 43 133 q 83 315 43 268 q 208 384 122 363 q 438 406 294 406 l 488 406 l 489 424 q 465 513 493 485 q 371 542 436 542 q 260 524 319 542 q 149 474 201 506 l 103 614 q 244 675 160 651 q 410 699 329 699 m 339 133 q 434 174 396 133 q 478 281 472 215 l 479 304 l 442 304 q 290 283 333 304 q 247 213 247 263 q 272 155 247 176 q 339 133 297 133 m 565 947 q 587 988 568 974 q 635 1014 606 1003 q 646 1019 638 1015 q 658 1026 654 1022 q 661 1032 661 1029 q 631 1043 661 1043 q 536 1029 590 1043 l 515 1100 q 650 1122 571 1122 q 753 1101 715 1122 q 790 1044 790 1079 q 772 1000 790 1015 q 719 972 753 985 q 682 953 694 961 q 668 931 669 944 l 667 919 l 563 919 l 565 947 m 378 963 l 497 963 l 665 771 l 513 771 l 433 869 l 335 771 l 179 771 l 378 963 z "},"ẫ":{"ha":758,"x_min":43,"x_max":692,"o":"m 410 699 q 619 634 550 699 q 688 439 688 569 q 686 393 688 408 l 656 0 l 457 0 l 464 93 q 390 16 438 43 q 281 -11 343 -11 q 158 15 213 -11 q 74 88 104 42 q 43 190 43 133 q 83 315 43 268 q 208 384 122 363 q 438 406 294 406 l 488 406 l 489 424 q 465 513 493 485 q 371 542 436 542 q 260 524 319 542 q 149 474 201 506 l 103 614 q 244 675 160 651 q 410 699 329 699 m 339 133 q 434 174 396 133 q 478 281 472 215 l 479 304 l 442 304 q 290 283 333 304 q 247 213 247 263 q 272 155 247 176 q 339 133 297 133 m 197 988 q 247 1093 200 1053 q 354 1133 293 1133 q 407 1127 382 1133 q 464 1108 432 1121 q 547 1088 515 1088 q 601 1129 599 1088 l 692 1129 q 643 1024 690 1064 q 536 983 596 983 q 483 990 508 983 q 426 1008 458 996 q 343 1029 375 1029 q 288 988 293 1029 l 197 988 m 378 963 l 497 963 l 665 771 l 513 771 l 433 869 l 335 771 l 179 771 l 378 963 z "},"ȁ":{"ha":758,"x_min":43,"x_max":688,"o":"m 410 699 q 619 634 550 699 q 688 439 688 569 q 686 393 688 408 l 656 0 l 457 0 l 464 93 q 390 16 438 43 q 281 -11 343 -11 q 158 15 213 -11 q 74 88 104 42 q 43 190 43 133 q 83 315 43 268 q 208 384 122 363 q 438 406 294 406 l 488 406 l 489 424 q 465 513 493 485 q 371 542 436 542 q 260 524 319 542 q 149 474 201 506 l 103 614 q 244 675 160 651 q 410 699 329 699 m 339 133 q 434 174 396 133 q 478 281 472 215 l 479 304 l 442 304 q 290 283 333 304 q 247 213 247 263 q 272 155 247 176 q 339 133 297 133 m 197 1056 l 343 1056 l 371 771 l 281 771 l 197 1056 m 390 1056 l 536 1056 l 563 771 l 474 771 l 390 1056 z "},"ä":{"ha":758,"x_min":43,"x_max":688,"o":"m 410 699 q 619 634 550 699 q 688 439 688 569 q 686 393 688 408 l 656 0 l 457 0 l 464 93 q 390 16 438 43 q 281 -11 343 -11 q 158 15 213 -11 q 74 88 104 42 q 43 190 43 133 q 83 315 43 268 q 208 384 122 363 q 438 406 294 406 l 488 406 l 489 424 q 465 513 493 485 q 371 542 436 542 q 260 524 319 542 q 149 474 201 506 l 103 614 q 244 675 160 651 q 410 699 329 699 m 339 133 q 434 174 396 133 q 478 281 472 215 l 479 304 l 442 304 q 290 283 333 304 q 247 213 247 263 q 272 155 247 176 q 339 133 297 133 m 404 1003 l 389 819 l 197 819 l 211 1003 l 404 1003 m 668 1003 l 654 819 l 461 819 l 476 1003 l 668 1003 z "},"ȧ":{"ha":758,"x_min":43,"x_max":688,"o":"m 410 699 q 619 634 550 699 q 688 439 688 569 q 686 393 688 408 l 656 0 l 457 0 l 464 93 q 390 16 438 43 q 281 -11 343 -11 q 158 15 213 -11 q 74 88 104 42 q 43 190 43 133 q 83 315 43 268 q 208 384 122 363 q 438 406 294 406 l 488 406 l 489 424 q 465 513 493 485 q 371 542 436 542 q 260 524 319 542 q 149 474 201 506 l 103 614 q 244 675 160 651 q 410 699 329 699 m 339 133 q 434 174 396 133 q 478 281 472 215 l 479 304 l 442 304 q 290 283 333 304 q 247 213 247 263 q 272 155 247 176 q 339 133 297 133 m 553 1010 l 538 814 l 313 814 l 328 1010 l 553 1010 z "},"ạ":{"ha":758,"x_min":43,"x_max":688,"o":"m 410 699 q 619 634 550 699 q 688 439 688 569 q 686 393 688 408 l 656 0 l 457 0 l 464 93 q 390 16 438 43 q 281 -11 343 -11 q 158 15 213 -11 q 74 88 104 42 q 43 190 43 133 q 83 315 43 268 q 208 384 122 363 q 438 406 294 406 l 488 406 l 489 424 q 465 513 493 485 q 371 542 436 542 q 260 524 319 542 q 149 474 201 506 l 103 614 q 244 675 160 651 q 410 699 329 699 m 339 133 q 434 174 396 133 q 478 281 472 215 l 479 304 l 442 304 q 290 283 333 304 q 247 213 247 263 q 272 155 247 176 q 339 133 297 133 m 444 -93 l 429 -276 l 238 -276 l 253 -93 l 444 -93 z "},"à":{"ha":758,"x_min":43,"x_max":688,"o":"m 410 699 q 619 634 550 699 q 688 439 688 569 q 686 393 688 408 l 656 0 l 457 0 l 464 93 q 390 16 438 43 q 281 -11 343 -11 q 158 15 213 -11 q 74 88 104 42 q 43 190 43 133 q 83 315 43 268 q 208 384 122 363 q 438 406 294 406 l 488 406 l 489 424 q 465 513 493 485 q 371 542 436 542 q 260 524 319 542 q 149 474 201 506 l 103 614 q 244 675 160 651 q 410 699 329 699 m 339 133 q 434 174 396 133 q 478 281 472 215 l 479 304 l 442 304 q 290 283 333 304 q 247 213 247 263 q 272 155 247 176 q 339 133 297 133 m 174 1056 l 368 1056 l 488 771 l 357 771 l 174 1056 z "},"ả":{"ha":758,"x_min":43,"x_max":688,"o":"m 410 699 q 619 634 550 699 q 688 439 688 569 q 686 393 688 408 l 656 0 l 457 0 l 464 93 q 390 16 438 43 q 281 -11 343 -11 q 158 15 213 -11 q 74 88 104 42 q 43 190 43 133 q 83 315 43 268 q 208 384 122 363 q 438 406 294 406 l 488 406 l 489 424 q 465 513 493 485 q 371 542 436 542 q 260 524 319 542 q 149 474 201 506 l 103 614 q 244 675 160 651 q 410 699 329 699 m 339 133 q 434 174 396 133 q 478 281 472 215 l 479 304 l 442 304 q 290 283 333 304 q 247 213 247 263 q 272 155 247 176 q 339 133 297 133 m 476 771 l 372 771 l 375 806 q 390 853 376 835 q 432 894 404 871 q 457 917 449 907 q 465 938 465 926 q 422 967 465 967 q 351 954 389 967 l 329 1038 q 458 1058 392 1058 q 565 1031 526 1058 q 603 961 603 1003 q 584 905 603 926 q 529 858 565 883 q 492 828 504 842 q 478 799 479 815 l 476 771 z "},"ȃ":{"ha":758,"x_min":43,"x_max":688,"o":"m 410 699 q 619 634 550 699 q 688 439 688 569 q 686 393 688 408 l 656 0 l 457 0 l 464 93 q 390 16 438 43 q 281 -11 343 -11 q 158 15 213 -11 q 74 88 104 42 q 43 190 43 133 q 83 315 43 268 q 208 384 122 363 q 438 406 294 406 l 488 406 l 489 424 q 465 513 493 485 q 371 542 436 542 q 260 524 319 542 q 149 474 201 506 l 103 614 q 244 675 160 651 q 410 699 329 699 m 339 133 q 434 174 396 133 q 478 281 472 215 l 479 304 l 442 304 q 290 283 333 304 q 247 213 247 263 q 272 155 247 176 q 339 133 297 133 m 435 1039 q 592 987 524 1039 q 685 838 661 935 l 585 796 q 517 880 558 853 q 425 907 475 907 q 263 796 329 907 l 168 838 q 272 987 199 935 q 435 1039 344 1039 z "},"ā":{"ha":758,"x_min":43,"x_max":688,"o":"m 410 699 q 619 634 550 699 q 688 439 688 569 q 686 393 688 408 l 656 0 l 457 0 l 464 93 q 390 16 438 43 q 281 -11 343 -11 q 158 15 213 -11 q 74 88 104 42 q 43 190 43 133 q 83 315 43 268 q 208 384 122 363 q 438 406 294 406 l 488 406 l 489 424 q 465 513 493 485 q 371 542 436 542 q 260 524 319 542 q 149 474 201 506 l 103 614 q 244 675 160 651 q 410 699 329 699 m 339 133 q 434 174 396 133 q 478 281 472 215 l 479 304 l 442 304 q 290 283 333 304 q 247 213 247 263 q 272 155 247 176 q 339 133 297 133 m 221 976 l 656 976 l 646 846 l 211 846 l 221 976 z "},"ą":{"ha":758,"x_min":43,"x_max":688,"o":"m 593 -165 q 672 -147 622 -165 l 688 -246 q 557 -274 624 -274 q 429 -233 476 -274 q 382 -126 382 -192 q 458 13 382 -40 l 464 93 q 390 16 438 43 q 275 -11 342 -11 q 157 15 210 -11 q 74 87 104 40 q 43 190 43 133 q 83 315 43 268 q 208 384 122 363 q 438 406 294 406 l 488 406 l 489 424 q 465 513 493 485 q 371 542 436 542 q 260 524 319 542 q 149 474 201 506 l 103 614 q 244 675 160 651 q 410 699 329 699 q 619 634 550 699 q 688 439 688 569 q 686 393 688 408 l 656 0 l 633 0 q 550 -25 582 0 q 518 -94 518 -50 q 539 -147 518 -128 q 593 -165 560 -165 m 339 133 q 434 174 396 133 q 478 281 472 215 l 479 304 l 442 304 q 290 283 333 304 q 247 208 247 261 q 272 154 247 175 q 339 133 297 133 z "},"å":{"ha":758,"x_min":43,"x_max":688,"o":"m 410 699 q 619 634 550 699 q 688 439 688 569 q 686 393 688 408 l 656 0 l 457 0 l 464 93 q 390 16 438 43 q 281 -11 343 -11 q 158 15 213 -11 q 74 88 104 42 q 43 190 43 133 q 83 315 43 268 q 208 384 122 363 q 438 406 294 406 l 488 406 l 489 424 q 465 513 493 485 q 371 542 436 542 q 260 524 319 542 q 149 474 201 506 l 103 614 q 244 675 160 651 q 410 699 329 699 m 339 133 q 434 174 396 133 q 478 281 472 215 l 479 304 l 442 304 q 290 283 333 304 q 247 213 247 263 q 272 155 247 176 q 339 133 297 133 m 433 764 q 326 807 369 764 q 282 914 282 850 q 326 1019 282 976 q 433 1063 369 1063 q 541 1019 497 1063 q 585 914 585 976 q 541 807 585 850 q 433 764 497 764 m 433 850 q 476 868 460 850 q 493 914 493 886 q 476 958 493 940 q 433 976 460 976 q 390 958 407 976 q 374 914 374 940 q 390 868 374 886 q 433 850 407 850 z "},"ǻ":{"ha":758,"x_min":43,"x_max":796,"o":"m 421 764 q 320 803 360 764 q 281 901 281 842 q 328 1015 281 968 q 443 1063 376 1063 q 503 1050 476 1063 l 607 1186 l 796 1175 l 576 976 q 585 925 585 951 q 536 811 585 858 q 421 764 488 764 m 372 908 q 388 867 372 883 q 428 850 403 850 q 474 870 456 850 q 493 919 493 890 q 477 960 493 944 q 436 976 461 976 q 391 956 410 976 q 372 908 372 936 m 410 699 q 619 634 550 699 q 688 439 688 569 q 686 393 688 408 l 656 0 l 457 0 l 464 93 q 390 16 438 43 q 281 -11 343 -11 q 158 15 213 -11 q 74 87 104 40 q 43 190 43 133 q 83 315 43 268 q 208 384 122 363 q 438 406 294 406 l 488 406 l 489 424 q 465 513 493 485 q 371 542 436 542 q 260 524 319 542 q 149 474 201 506 l 103 614 q 244 675 160 651 q 410 699 329 699 m 339 133 q 434 174 396 133 q 478 281 472 215 l 479 304 l 442 304 q 290 283 333 304 q 247 208 247 261 q 272 154 247 175 q 339 133 297 133 z "},"ã":{"ha":758,"x_min":43,"x_max":688,"o":"m 410 699 q 619 634 550 699 q 688 439 688 569 q 686 393 688 408 l 656 0 l 457 0 l 464 93 q 390 16 438 43 q 281 -11 343 -11 q 158 15 213 -11 q 74 88 104 42 q 43 190 43 133 q 83 315 43 268 q 208 384 122 363 q 438 406 294 406 l 488 406 l 489 424 q 465 513 493 485 q 371 542 436 542 q 260 524 319 542 q 149 474 201 506 l 103 614 q 244 675 160 651 q 410 699 329 699 m 339 133 q 434 174 396 133 q 478 281 472 215 l 479 304 l 442 304 q 290 283 333 304 q 247 213 247 263 q 272 155 247 176 q 339 133 297 133 m 183 815 q 235 969 189 919 q 343 1018 281 1018 q 397 1007 372 1018 q 456 975 422 996 q 499 951 485 958 q 529 944 514 944 q 572 962 556 944 q 593 1014 589 979 l 683 1014 q 631 860 676 910 q 524 811 586 811 q 472 822 496 811 q 411 853 447 832 q 367 876 382 869 q 338 883 353 883 q 274 815 282 883 l 183 815 z "},"æ":{"ha":1163,"x_min":43,"x_max":1119,"o":"m 833 699 q 1041 613 963 699 q 1119 371 1119 528 q 1115 301 1119 338 l 681 301 q 729 185 686 224 q 847 146 772 146 q 1040 213 947 146 l 1085 72 q 972 11 1042 33 q 832 -11 903 -11 q 666 24 736 -11 q 556 126 596 60 q 448 24 515 60 q 297 -11 381 -11 q 113 45 183 -11 q 43 190 43 101 q 83 315 43 268 q 208 384 122 363 q 438 406 294 406 l 486 406 l 488 424 q 463 513 492 485 q 368 542 433 542 q 260 524 319 542 q 149 474 201 506 l 103 614 q 244 675 160 651 q 410 699 329 699 q 618 615 554 699 q 715 677 660 656 q 833 699 771 699 m 832 554 q 685 406 708 554 l 944 406 q 915 517 946 479 q 832 554 885 554 m 338 133 q 432 174 393 133 q 476 281 471 215 l 478 304 l 442 304 q 290 283 333 304 q 247 208 247 261 q 272 154 247 175 q 338 133 297 133 z "},"ǽ":{"ha":1163,"x_min":43,"x_max":1119,"o":"m 833 699 q 1041 613 963 699 q 1119 371 1119 528 q 1115 301 1119 338 l 681 301 q 729 185 686 224 q 847 146 772 146 q 1040 213 947 146 l 1085 72 q 972 11 1042 33 q 832 -11 903 -11 q 666 24 736 -11 q 556 126 596 60 q 448 24 515 60 q 297 -11 381 -11 q 113 45 183 -11 q 43 190 43 101 q 83 315 43 268 q 208 384 122 363 q 438 406 294 406 l 486 406 l 488 424 q 463 513 492 485 q 368 542 433 542 q 260 524 319 542 q 149 474 201 506 l 103 614 q 244 675 160 651 q 410 699 329 699 q 618 615 554 699 q 715 677 660 656 q 833 699 771 699 m 832 554 q 685 406 708 554 l 944 406 q 915 517 946 479 q 832 554 885 554 m 338 133 q 432 174 393 133 q 476 281 471 215 l 478 304 l 442 304 q 290 283 333 304 q 247 208 247 261 q 272 154 247 175 q 338 133 297 133 m 549 771 l 701 1056 l 917 1056 l 679 771 l 549 771 z "},"b":{"ha":851,"x_min":54,"x_max":806,"o":"m 515 699 q 667 659 601 699 q 769 545 733 619 q 806 371 806 471 q 765 173 806 260 q 649 38 724 86 q 479 -11 575 -11 q 268 96 338 -11 l 261 0 l 54 0 l 131 979 l 340 979 l 310 603 q 397 673 343 647 q 515 699 451 699 m 438 147 q 555 203 513 147 q 597 357 597 260 q 558 493 597 446 q 444 540 518 540 q 330 484 372 540 q 288 332 288 428 q 326 194 288 242 q 438 147 365 147 z "},"c":{"ha":686,"x_min":47,"x_max":694,"o":"m 406 -11 q 216 31 297 -11 q 91 147 135 72 q 47 322 47 222 q 94 523 47 438 q 226 653 140 608 q 428 699 313 699 q 694 614 590 699 l 626 471 q 439 538 536 538 q 309 482 356 538 q 263 325 263 426 q 304 195 263 240 q 419 150 346 150 q 608 217 513 150 l 651 72 q 540 11 604 33 q 406 -11 475 -11 z "},"ć":{"ha":686,"x_min":47,"x_max":746,"o":"m 406 -11 q 216 31 297 -11 q 91 147 135 72 q 47 322 47 222 q 94 523 47 438 q 226 653 140 608 q 428 699 313 699 q 694 614 590 699 l 626 471 q 439 538 536 538 q 309 482 356 538 q 263 325 263 426 q 304 195 263 240 q 419 150 346 150 q 608 217 513 150 l 651 72 q 540 11 604 33 q 406 -11 475 -11 m 378 771 l 531 1056 l 746 1056 l 508 771 l 378 771 z "},"č":{"ha":686,"x_min":47,"x_max":708,"o":"m 406 -11 q 216 31 297 -11 q 91 147 135 72 q 47 322 47 222 q 94 523 47 438 q 226 653 140 608 q 428 699 313 699 q 694 614 590 699 l 626 471 q 439 538 536 538 q 309 482 356 538 q 263 325 263 426 q 304 195 263 240 q 419 150 346 150 q 608 217 513 150 l 651 72 q 540 11 604 33 q 406 -11 475 -11 m 708 1056 l 506 771 l 381 771 l 222 1056 l 381 1056 l 453 894 l 542 1056 l 708 1056 z "},"ç":{"ha":686,"x_min":47,"x_max":694,"o":"m 651 72 q 542 12 606 33 q 410 -11 478 -10 l 400 -56 l 410 -56 q 493 -81 461 -56 q 525 -150 525 -106 q 476 -238 525 -203 q 340 -274 426 -274 q 266 -267 303 -274 q 201 -249 229 -261 l 222 -168 q 335 -187 285 -187 q 396 -151 396 -187 q 354 -125 396 -125 q 303 -133 331 -125 l 278 -104 l 300 0 q 115 113 182 26 q 47 322 47 199 q 94 523 47 438 q 226 653 140 608 q 428 699 313 699 q 694 614 590 699 l 626 471 q 439 538 536 538 q 309 482 356 538 q 263 325 263 426 q 304 195 263 240 q 419 150 346 150 q 608 217 513 150 l 651 72 z "},"ḉ":{"ha":686,"x_min":47,"x_max":746,"o":"m 508 771 l 378 771 l 531 1056 l 746 1056 l 508 771 m 439 538 q 309 482 356 538 q 263 325 263 426 q 304 195 263 240 q 419 150 346 150 q 608 217 513 150 l 651 72 q 542 12 606 33 q 410 -11 478 -10 l 400 -56 l 410 -56 q 493 -81 461 -56 q 525 -150 525 -106 q 476 -238 525 -203 q 340 -274 426 -274 q 266 -267 303 -274 q 201 -249 229 -261 l 222 -168 q 335 -187 285 -187 q 396 -151 396 -187 q 354 -125 396 -125 q 303 -133 331 -125 l 278 -104 l 300 0 q 115 113 182 26 q 47 322 47 199 q 94 523 47 438 q 226 653 140 608 q 428 699 313 699 q 694 614 590 699 l 626 471 q 439 538 536 538 z "},"ĉ":{"ha":686,"x_min":47,"x_max":694,"o":"m 406 -11 q 216 31 297 -11 q 91 147 135 72 q 47 322 47 222 q 94 523 47 438 q 226 653 140 608 q 428 699 313 699 q 694 614 590 699 l 626 471 q 439 538 536 538 q 309 482 356 538 q 263 325 263 426 q 304 195 263 240 q 419 150 346 150 q 608 217 513 150 l 651 72 q 540 11 604 33 q 406 -11 475 -11 m 200 771 l 403 1056 l 528 1056 l 686 771 l 528 771 l 456 932 l 367 771 l 200 771 z "},"ċ":{"ha":686,"x_min":47,"x_max":694,"o":"m 406 -11 q 216 31 297 -11 q 91 147 135 72 q 47 322 47 222 q 94 523 47 438 q 226 653 140 608 q 428 699 313 699 q 694 614 590 699 l 626 471 q 439 538 536 538 q 309 482 356 538 q 263 325 263 426 q 304 195 263 240 q 419 150 346 150 q 608 217 513 150 l 651 72 q 540 11 604 33 q 406 -11 475 -11 m 574 1010 l 558 814 l 333 814 l 349 1010 l 574 1010 z "},"d":{"ha":851,"x_min":47,"x_max":821,"o":"m 821 979 l 743 0 l 536 0 l 543 85 q 456 15 510 40 q 338 -11 401 -11 q 185 28 251 -11 q 83 142 119 68 q 47 317 47 217 q 88 515 47 428 q 203 650 129 601 q 372 699 276 699 q 581 596 511 699 l 611 979 l 821 979 m 408 147 q 523 204 481 147 q 565 356 565 261 q 526 493 565 446 q 415 540 488 540 q 298 484 340 540 q 256 329 256 428 q 295 194 256 242 q 408 147 335 147 z "},"ð":{"ha":825,"x_min":44,"x_max":808,"o":"m 690 765 q 786 442 786 624 q 682 99 786 210 q 403 -11 578 -11 q 213 27 293 -11 q 88 135 132 65 q 44 297 44 204 q 90 474 44 399 q 214 591 135 550 q 392 632 293 632 q 585 564 518 632 q 507 717 564 651 l 258 650 l 238 757 l 401 800 q 246 851 332 839 l 303 994 q 610 857 488 968 l 788 904 l 808 797 l 690 765 m 400 149 q 520 199 481 149 q 560 329 560 250 q 522 437 560 397 q 413 476 483 476 q 292 426 332 476 q 253 299 253 376 q 291 190 253 232 q 400 149 329 149 z "},"ď":{"ha":851,"x_min":47,"x_max":964,"o":"m 611 979 l 821 979 l 743 0 l 536 0 l 543 85 q 456 15 510 40 q 338 -11 401 -11 q 185 28 251 -11 q 83 142 119 68 q 47 317 47 217 q 88 515 47 428 q 203 650 129 601 q 372 699 276 699 q 581 596 511 699 l 611 979 m 964 979 l 907 710 l 835 710 l 856 979 l 964 979 m 408 147 q 523 204 481 147 q 565 356 565 261 q 526 493 565 446 q 415 540 488 540 q 298 484 340 540 q 256 329 256 428 q 295 194 256 242 q 408 147 335 147 z "},"đ":{"ha":851,"x_min":47,"x_max":931,"o":"m 919 740 l 803 740 l 744 0 l 536 0 l 543 85 q 456 14 510 39 q 338 -11 403 -11 q 185 30 251 -11 q 83 148 119 71 q 47 331 47 225 q 88 517 47 433 q 203 650 129 601 q 372 699 278 699 q 581 596 511 699 l 592 740 l 333 740 l 344 885 l 604 885 l 611 979 l 821 979 l 814 885 l 931 885 l 919 740 m 408 147 q 524 204 483 147 q 565 368 565 261 q 526 497 565 453 q 413 540 488 540 q 299 484 342 540 q 256 329 256 428 q 296 193 256 239 q 408 147 336 147 z "},"ḍ":{"ha":851,"x_min":47,"x_max":821,"o":"m 821 979 l 743 0 l 536 0 l 543 85 q 456 15 510 40 q 338 -11 401 -11 q 185 28 251 -11 q 83 142 119 68 q 47 317 47 217 q 88 515 47 428 q 203 650 129 601 q 372 699 276 699 q 581 596 511 699 l 611 979 l 821 979 m 408 147 q 523 204 481 147 q 565 356 565 261 q 526 493 565 446 q 415 540 488 540 q 298 484 340 540 q 256 329 256 428 q 295 194 256 242 q 408 147 335 147 m 489 -93 l 474 -276 l 282 -276 l 297 -93 l 489 -93 z "},"ḏ":{"ha":851,"x_min":47,"x_max":821,"o":"m 821 979 l 743 0 l 536 0 l 543 85 q 456 15 510 40 q 338 -11 401 -11 q 185 28 251 -11 q 83 142 119 68 q 47 317 47 217 q 88 515 47 428 q 203 650 129 601 q 372 699 276 699 q 581 596 511 699 l 611 979 l 821 979 m 408 147 q 523 204 481 147 q 565 356 565 261 q 526 493 565 446 q 415 540 488 540 q 298 484 340 540 q 256 329 256 428 q 295 194 256 242 q 408 147 335 147 m 172 -124 l 607 -124 l 599 -246 l 164 -246 l 172 -124 z "},"ǆ":{"ha":1565,"x_min":47,"x_max":1532,"o":"m 821 979 l 743 0 l 536 0 l 543 85 q 456 15 510 40 q 338 -11 401 -11 q 185 28 251 -11 q 83 142 119 68 q 47 317 47 217 q 88 515 47 428 q 203 650 129 601 q 372 699 276 699 q 581 596 511 699 l 611 979 l 821 979 m 408 147 q 523 204 481 147 q 565 356 565 261 q 526 493 565 446 q 415 540 488 540 q 298 484 340 540 q 256 329 256 428 q 295 194 256 242 q 408 147 335 147 m 1521 542 l 1153 157 l 1504 157 l 1493 0 l 889 0 l 901 146 l 1264 525 l 935 525 l 947 682 l 1532 682 l 1521 542 m 1519 1056 l 1317 771 l 1192 771 l 1033 1056 l 1192 1056 l 1264 894 l 1353 1056 l 1519 1056 z "},"e":{"ha":740,"x_min":47,"x_max":696,"o":"m 393 699 q 614 615 532 699 q 696 372 696 531 q 692 301 696 339 l 249 301 q 419 146 261 146 q 618 213 524 146 l 663 72 q 549 11 618 33 q 404 -11 479 -11 q 217 31 297 -11 q 92 148 136 72 q 47 324 47 224 q 92 519 47 433 q 216 651 138 604 q 393 699 294 699 m 400 554 q 253 406 276 554 l 522 406 q 490 517 522 481 q 400 554 457 554 z "},"é":{"ha":740,"x_min":47,"x_max":721,"o":"m 393 699 q 614 615 532 699 q 696 372 696 531 q 692 301 696 339 l 249 301 q 419 146 261 146 q 618 213 524 146 l 663 72 q 549 11 618 33 q 404 -11 479 -11 q 217 31 297 -11 q 92 148 136 72 q 47 324 47 224 q 92 519 47 433 q 216 651 138 604 q 393 699 294 699 m 400 554 q 253 406 276 554 l 522 406 q 490 517 522 481 q 400 554 457 554 m 353 771 l 506 1056 l 721 1056 l 483 771 l 353 771 z "},"ĕ":{"ha":740,"x_min":47,"x_max":696,"o":"m 393 699 q 614 615 532 699 q 696 372 696 531 q 692 301 696 339 l 249 301 q 419 146 261 146 q 618 213 524 146 l 663 72 q 549 11 618 33 q 404 -11 479 -11 q 217 31 297 -11 q 92 148 136 72 q 47 324 47 224 q 92 519 47 433 q 216 651 138 604 q 393 699 294 699 m 400 554 q 253 406 276 554 l 522 406 q 490 517 522 481 q 400 554 457 554 m 428 801 q 270 853 339 801 q 178 1003 201 906 l 278 1043 q 346 960 304 986 q 438 933 388 933 q 600 1043 532 933 l 693 1003 q 591 853 664 904 q 428 801 518 801 z "},"ě":{"ha":740,"x_min":47,"x_max":696,"o":"m 393 699 q 614 615 532 699 q 696 372 696 531 q 692 301 696 339 l 249 301 q 419 146 261 146 q 618 213 524 146 l 663 72 q 549 11 618 33 q 404 -11 479 -11 q 217 31 297 -11 q 92 148 136 72 q 47 324 47 224 q 92 519 47 433 q 216 651 138 604 q 393 699 294 699 m 400 554 q 253 406 276 554 l 522 406 q 490 517 522 481 q 400 554 457 554 m 683 1056 l 481 771 l 356 771 l 197 1056 l 356 1056 l 428 894 l 517 1056 l 683 1056 z "},"ḝ":{"ha":740,"x_min":47,"x_max":696,"o":"m 428 801 q 270 853 339 801 q 178 1003 201 906 l 278 1043 q 346 960 304 986 q 438 933 388 933 q 600 1043 532 933 l 693 1003 q 591 853 664 904 q 428 801 518 801 m 393 699 q 614 615 532 699 q 696 372 696 531 q 692 301 696 339 l 249 301 q 419 146 261 146 q 618 213 524 146 l 663 72 q 558 15 621 38 q 426 -11 496 -7 l 417 -56 l 426 -56 q 510 -81 478 -56 q 542 -150 542 -106 q 492 -238 542 -203 q 357 -274 443 -274 q 283 -267 319 -274 q 218 -249 246 -261 l 239 -168 q 351 -187 301 -187 q 413 -151 413 -187 q 371 -125 413 -125 q 319 -133 347 -125 l 294 -104 l 315 -3 q 119 108 192 21 q 47 324 47 194 q 92 519 47 433 q 216 651 138 604 q 393 699 294 699 m 400 554 q 253 406 276 554 l 522 406 q 490 517 522 481 q 400 554 457 554 z "},"ê":{"ha":740,"x_min":47,"x_max":696,"o":"m 393 699 q 614 615 532 699 q 696 372 696 531 q 692 301 696 339 l 249 301 q 419 146 261 146 q 618 213 524 146 l 663 72 q 549 11 618 33 q 404 -11 479 -11 q 217 31 297 -11 q 92 148 136 72 q 47 324 47 224 q 92 519 47 433 q 216 651 138 604 q 393 699 294 699 m 400 554 q 253 406 276 554 l 522 406 q 490 517 522 481 q 400 554 457 554 m 175 771 l 378 1056 l 503 1056 l 661 771 l 503 771 l 431 932 l 342 771 l 175 771 z "},"ế":{"ha":740,"x_min":47,"x_max":854,"o":"m 393 699 q 614 615 532 699 q 696 372 696 531 q 692 301 696 339 l 249 301 q 419 146 261 146 q 618 213 524 146 l 663 72 q 549 11 618 33 q 404 -11 479 -11 q 217 31 297 -11 q 92 148 136 72 q 47 324 47 224 q 92 519 47 433 q 216 651 138 604 q 393 699 294 699 m 400 554 q 253 406 276 554 l 522 406 q 490 517 522 481 q 400 554 457 554 m 560 918 l 669 1115 l 854 1115 l 663 918 l 560 918 m 175 771 l 374 963 l 493 963 l 661 771 l 508 771 l 429 869 l 331 771 l 175 771 z "},"ệ":{"ha":740,"x_min":47,"x_max":696,"o":"m 393 699 q 614 615 532 699 q 696 372 696 531 q 692 301 696 339 l 249 301 q 419 146 261 146 q 618 213 524 146 l 663 72 q 549 11 618 33 q 404 -11 479 -11 q 217 31 297 -11 q 92 148 136 72 q 47 324 47 224 q 92 519 47 433 q 216 651 138 604 q 393 699 294 699 m 400 554 q 253 406 276 554 l 522 406 q 490 517 522 481 q 400 554 457 554 m 475 -93 l 460 -276 l 268 -276 l 283 -93 l 475 -93 m 175 771 l 378 1056 l 503 1056 l 661 771 l 503 771 l 431 932 l 342 771 l 175 771 z "},"ề":{"ha":740,"x_min":47,"x_max":721,"o":"m 393 699 q 614 615 532 699 q 696 372 696 531 q 692 301 696 339 l 249 301 q 419 146 261 146 q 618 213 524 146 l 663 72 q 549 11 618 33 q 404 -11 479 -11 q 217 31 297 -11 q 92 148 136 72 q 47 324 47 224 q 92 519 47 433 q 216 651 138 604 q 393 699 294 699 m 400 554 q 253 406 276 554 l 522 406 q 490 517 522 481 q 400 554 457 554 m 469 1115 l 632 1115 l 721 918 l 618 918 l 469 1115 m 374 963 l 493 963 l 661 771 l 508 771 l 429 869 l 331 771 l 175 771 l 374 963 z "},"ể":{"ha":740,"x_min":47,"x_max":786,"o":"m 393 699 q 614 615 532 699 q 696 372 696 531 q 692 301 696 339 l 249 301 q 419 146 261 146 q 618 213 524 146 l 663 72 q 549 11 618 33 q 404 -11 479 -11 q 217 31 297 -11 q 92 148 136 72 q 47 324 47 224 q 92 519 47 433 q 216 651 138 604 q 393 699 294 699 m 400 554 q 253 406 276 554 l 522 406 q 490 517 522 481 q 400 554 457 554 m 561 947 q 583 988 564 974 q 631 1014 601 1003 q 642 1019 633 1015 q 653 1026 650 1022 q 657 1032 657 1029 q 626 1043 657 1043 q 532 1029 586 1043 l 511 1100 q 646 1122 567 1122 q 749 1101 711 1122 q 786 1044 786 1079 q 767 1000 786 1015 q 715 972 749 985 q 678 953 690 961 q 664 931 665 944 l 663 919 l 558 919 l 561 947 m 374 963 l 493 963 l 661 771 l 508 771 l 429 869 l 331 771 l 175 771 l 374 963 z "},"ễ":{"ha":740,"x_min":47,"x_max":696,"o":"m 393 699 q 614 615 532 699 q 696 372 696 531 q 692 301 696 339 l 249 301 q 419 146 261 146 q 618 213 524 146 l 663 72 q 549 11 618 33 q 404 -11 479 -11 q 217 31 297 -11 q 92 148 136 72 q 47 324 47 224 q 92 519 47 433 q 216 651 138 604 q 393 699 294 699 m 400 554 q 253 406 276 554 l 522 406 q 490 517 522 481 q 400 554 457 554 m 193 988 q 242 1093 196 1053 q 350 1133 289 1133 q 403 1127 378 1133 q 460 1108 428 1121 q 543 1088 511 1088 q 597 1129 594 1088 l 688 1129 q 639 1024 686 1064 q 532 983 592 983 q 479 990 504 983 q 422 1008 454 996 q 339 1029 371 1029 q 283 988 289 1029 l 193 988 m 374 963 l 493 963 l 661 771 l 508 771 l 429 869 l 331 771 l 175 771 l 374 963 z "},"ȅ":{"ha":740,"x_min":47,"x_max":696,"o":"m 393 699 q 614 615 532 699 q 696 372 696 531 q 692 301 696 339 l 249 301 q 419 146 261 146 q 618 213 524 146 l 663 72 q 549 11 618 33 q 404 -11 479 -11 q 217 31 297 -11 q 92 148 136 72 q 47 324 47 224 q 92 519 47 433 q 216 651 138 604 q 393 699 294 699 m 400 554 q 253 406 276 554 l 522 406 q 490 517 522 481 q 400 554 457 554 m 193 1056 l 339 1056 l 367 771 l 276 771 l 193 1056 m 386 1056 l 532 1056 l 558 771 l 469 771 l 386 1056 z "},"ë":{"ha":740,"x_min":47,"x_max":696,"o":"m 393 699 q 614 615 532 699 q 696 372 696 531 q 692 301 696 339 l 249 301 q 419 146 261 146 q 618 213 524 146 l 663 72 q 549 11 618 33 q 404 -11 479 -11 q 217 31 297 -11 q 92 148 136 72 q 47 324 47 224 q 92 519 47 433 q 216 651 138 604 q 393 699 294 699 m 400 554 q 253 406 276 554 l 522 406 q 490 517 522 481 q 400 554 457 554 m 400 1003 l 385 819 l 193 819 l 207 1003 l 400 1003 m 664 1003 l 650 819 l 457 819 l 472 1003 l 664 1003 z "},"ė":{"ha":740,"x_min":47,"x_max":696,"o":"m 393 699 q 614 615 532 699 q 696 372 696 531 q 692 301 696 339 l 249 301 q 419 146 261 146 q 618 213 524 146 l 663 72 q 549 11 618 33 q 404 -11 479 -11 q 217 31 297 -11 q 92 148 136 72 q 47 324 47 224 q 92 519 47 433 q 216 651 138 604 q 393 699 294 699 m 400 554 q 253 406 276 554 l 522 406 q 490 517 522 481 q 400 554 457 554 m 549 1010 l 533 814 l 308 814 l 324 1010 l 549 1010 z "},"ẹ":{"ha":740,"x_min":47,"x_max":696,"o":"m 393 699 q 614 615 532 699 q 696 372 696 531 q 692 301 696 339 l 249 301 q 419 146 261 146 q 618 213 524 146 l 663 72 q 549 11 618 33 q 404 -11 479 -11 q 217 31 297 -11 q 92 148 136 72 q 47 324 47 224 q 92 519 47 433 q 216 651 138 604 q 393 699 294 699 m 400 554 q 253 406 276 554 l 522 406 q 490 517 522 481 q 400 554 457 554 m 475 -93 l 460 -276 l 268 -276 l 283 -93 l 475 -93 z "},"è":{"ha":740,"x_min":47,"x_max":696,"o":"m 393 699 q 614 615 532 699 q 696 372 696 531 q 692 301 696 339 l 249 301 q 419 146 261 146 q 618 213 524 146 l 663 72 q 549 11 618 33 q 404 -11 479 -11 q 217 31 297 -11 q 92 148 136 72 q 47 324 47 224 q 92 519 47 433 q 216 651 138 604 q 393 699 294 699 m 400 554 q 253 406 276 554 l 522 406 q 490 517 522 481 q 400 554 457 554 m 169 1056 l 364 1056 l 483 771 l 353 771 l 169 1056 z "},"ẻ":{"ha":740,"x_min":47,"x_max":696,"o":"m 393 699 q 614 615 532 699 q 696 372 696 531 q 692 301 696 339 l 249 301 q 419 146 261 146 q 618 213 524 146 l 663 72 q 549 11 618 33 q 404 -11 479 -11 q 217 31 297 -11 q 92 148 136 72 q 47 324 47 224 q 92 519 47 433 q 216 651 138 604 q 393 699 294 699 m 400 554 q 253 406 276 554 l 522 406 q 490 517 522 481 q 400 554 457 554 m 472 771 l 368 771 l 371 806 q 386 853 372 835 q 428 894 400 871 q 453 917 444 907 q 461 938 461 926 q 418 967 461 967 q 347 954 385 967 l 325 1038 q 454 1058 388 1058 q 560 1031 522 1058 q 599 961 599 1003 q 580 905 599 926 q 525 858 561 883 q 488 828 500 842 q 474 799 475 815 l 472 771 z "},"ȇ":{"ha":740,"x_min":47,"x_max":696,"o":"m 393 699 q 614 615 532 699 q 696 372 696 531 q 692 301 696 339 l 249 301 q 419 146 261 146 q 618 213 524 146 l 663 72 q 549 11 618 33 q 404 -11 479 -11 q 217 31 297 -11 q 92 148 136 72 q 47 324 47 224 q 92 519 47 433 q 216 651 138 604 q 393 699 294 699 m 400 554 q 253 406 276 554 l 522 406 q 490 517 522 481 q 400 554 457 554 m 431 1039 q 588 987 519 1039 q 681 838 657 935 l 581 796 q 513 880 554 853 q 421 907 471 907 q 258 796 325 907 l 164 838 q 267 987 194 935 q 431 1039 340 1039 z "},"ē":{"ha":740,"x_min":47,"x_max":696,"o":"m 393 699 q 614 615 532 699 q 696 372 696 531 q 692 301 696 339 l 249 301 q 419 146 261 146 q 618 213 524 146 l 663 72 q 549 11 618 33 q 404 -11 479 -11 q 217 31 297 -11 q 92 148 136 72 q 47 324 47 224 q 92 519 47 433 q 216 651 138 604 q 393 699 294 699 m 400 554 q 253 406 276 554 l 522 406 q 490 517 522 481 q 400 554 457 554 m 217 976 l 651 976 l 642 846 l 207 846 l 217 976 z "},"ḗ":{"ha":740,"x_min":47,"x_max":742,"o":"m 393 699 q 614 615 532 699 q 696 372 696 531 q 692 301 696 339 l 249 301 q 419 146 261 146 q 618 213 524 146 l 663 72 q 549 11 618 33 q 404 -11 479 -11 q 217 31 297 -11 q 92 148 136 72 q 47 324 47 224 q 92 519 47 433 q 216 651 138 604 q 393 699 294 699 m 400 554 q 253 406 276 554 l 522 406 q 490 517 522 481 q 400 554 457 554 m 217 976 l 651 976 l 642 846 l 207 846 l 217 976 m 374 1035 l 526 1319 l 742 1319 l 504 1035 l 374 1035 z "},"ḕ":{"ha":740,"x_min":47,"x_max":696,"o":"m 393 699 q 614 615 532 699 q 696 372 696 531 q 692 301 696 339 l 249 301 q 419 146 261 146 q 618 213 524 146 l 663 72 q 549 11 618 33 q 404 -11 479 -11 q 217 31 297 -11 q 92 148 136 72 q 47 324 47 224 q 92 519 47 433 q 216 651 138 604 q 393 699 294 699 m 400 554 q 253 406 276 554 l 522 406 q 490 517 522 481 q 400 554 457 554 m 217 976 l 651 976 l 642 846 l 207 846 l 217 976 m 190 1319 l 385 1319 l 504 1035 l 374 1035 l 190 1319 z "},"ę":{"ha":740,"x_min":47,"x_max":696,"o":"m 393 699 q 614 615 532 699 q 696 372 696 531 q 692 301 696 339 l 249 301 q 419 146 261 146 q 618 213 524 146 l 663 72 q 579 22 639 47 q 492 -31 518 -3 q 467 -94 467 -58 q 487 -147 467 -128 q 542 -165 507 -165 q 621 -147 571 -165 l 636 -246 q 506 -274 572 -274 q 378 -233 425 -274 q 331 -126 331 -192 q 344 -62 331 -92 q 381 -11 357 -32 q 205 36 281 -7 q 88 153 129 79 q 47 324 47 228 q 92 519 47 433 q 216 651 138 604 q 393 699 294 699 m 400 554 q 253 406 276 554 l 522 406 q 490 517 522 481 q 400 554 457 554 z "},"ẽ":{"ha":740,"x_min":47,"x_max":696,"o":"m 393 699 q 614 615 532 699 q 696 372 696 531 q 692 301 696 339 l 249 301 q 419 146 261 146 q 618 213 524 146 l 663 72 q 549 11 618 33 q 404 -11 479 -11 q 217 31 297 -11 q 92 148 136 72 q 47 324 47 224 q 92 519 47 433 q 216 651 138 604 q 393 699 294 699 m 400 554 q 253 406 276 554 l 522 406 q 490 517 522 481 q 400 554 457 554 m 179 815 q 231 969 185 919 q 339 1018 276 1018 q 393 1007 368 1018 q 451 975 418 996 q 495 951 481 958 q 525 944 510 944 q 568 962 551 944 q 589 1014 585 979 l 679 1014 q 627 860 672 910 q 519 811 582 811 q 467 822 492 811 q 407 853 443 832 q 363 876 378 869 q 333 883 349 883 q 269 815 278 883 l 179 815 z "},"ə":{"ha":740,"x_min":44,"x_max":694,"o":"m 350 699 q 602 608 510 699 q 694 364 694 517 q 649 169 694 254 q 526 36 604 83 q 349 -11 447 -11 q 126 72 208 -11 q 44 314 44 156 q 49 386 44 349 l 493 386 q 447 503 488 464 q 331 542 406 542 q 124 474 221 542 l 79 614 q 200 676 126 653 q 350 699 274 699 m 343 133 q 489 281 467 133 l 222 281 q 253 169 221 206 q 343 133 285 133 z "},"f":{"ha":522,"x_min":21,"x_max":594,"o":"m 372 682 l 543 682 l 532 525 l 360 525 l 318 0 l 108 0 l 150 525 l 21 525 l 33 682 l 163 682 l 164 700 q 260 903 175 833 q 514 982 346 972 l 590 986 l 594 832 l 503 828 q 410 799 440 825 q 375 715 379 774 l 372 682 z "},"g":{"ha":857,"x_min":39,"x_max":803,"o":"m 803 682 l 754 81 q 644 -178 740 -96 q 369 -261 547 -261 q 39 -176 176 -261 l 106 -32 q 375 -104 242 -104 q 497 -65 454 -104 q 546 58 540 -26 l 550 110 q 463 43 517 67 q 342 19 410 19 q 188 58 254 19 q 85 168 122 97 q 49 333 49 239 q 90 521 49 438 q 206 651 131 604 q 376 699 281 699 q 588 594 521 699 l 594 682 l 803 682 m 411 179 q 528 231 485 179 q 571 369 571 282 q 531 497 571 454 q 418 540 492 540 q 300 488 343 540 q 257 342 257 435 q 297 222 257 265 q 411 179 338 179 z "},"ğ":{"ha":857,"x_min":39,"x_max":803,"o":"m 803 682 l 754 81 q 644 -178 740 -96 q 369 -261 547 -261 q 39 -176 176 -261 l 106 -32 q 375 -104 242 -104 q 497 -65 454 -104 q 546 58 540 -26 l 550 110 q 463 43 517 67 q 342 19 410 19 q 188 58 254 19 q 85 168 122 97 q 49 333 49 239 q 90 521 49 438 q 206 651 131 604 q 376 699 281 699 q 588 594 521 699 l 594 682 l 803 682 m 411 179 q 528 231 485 179 q 571 369 571 282 q 531 497 571 454 q 418 540 492 540 q 300 488 343 540 q 257 342 257 435 q 297 222 257 265 q 411 179 338 179 m 474 801 q 316 853 385 801 q 224 1003 247 906 l 324 1043 q 392 960 350 986 q 483 933 433 933 q 646 1043 578 933 l 739 1003 q 637 853 710 904 q 474 801 564 801 z "},"ǧ":{"ha":857,"x_min":39,"x_max":803,"o":"m 803 682 l 754 81 q 644 -178 740 -96 q 369 -261 547 -261 q 39 -176 176 -261 l 106 -32 q 375 -104 242 -104 q 497 -65 454 -104 q 546 58 540 -26 l 550 110 q 463 43 517 67 q 342 19 410 19 q 188 58 254 19 q 85 168 122 97 q 49 333 49 239 q 90 521 49 438 q 206 651 131 604 q 376 699 281 699 q 588 594 521 699 l 594 682 l 803 682 m 411 179 q 528 231 485 179 q 571 369 571 282 q 531 497 571 454 q 418 540 492 540 q 300 488 343 540 q 257 342 257 435 q 297 222 257 265 q 411 179 338 179 m 729 1056 l 526 771 l 401 771 l 243 1056 l 401 1056 l 474 894 l 563 1056 l 729 1056 z "},"ĝ":{"ha":857,"x_min":39,"x_max":803,"o":"m 803 682 l 754 81 q 644 -178 740 -96 q 369 -261 547 -261 q 39 -176 176 -261 l 106 -32 q 375 -104 242 -104 q 497 -65 454 -104 q 546 58 540 -26 l 550 110 q 463 43 517 67 q 342 19 410 19 q 188 58 254 19 q 85 168 122 97 q 49 333 49 239 q 90 521 49 438 q 206 651 131 604 q 376 699 281 699 q 588 594 521 699 l 594 682 l 803 682 m 411 179 q 528 231 485 179 q 571 369 571 282 q 531 497 571 454 q 418 540 492 540 q 300 488 343 540 q 257 342 257 435 q 297 222 257 265 q 411 179 338 179 m 221 771 l 424 1056 l 549 1056 l 707 771 l 549 771 l 476 932 l 388 771 l 221 771 z "},"ģ":{"ha":857,"x_min":39,"x_max":803,"o":"m 803 682 l 754 81 q 644 -178 740 -96 q 369 -261 547 -261 q 39 -176 176 -261 l 106 -32 q 375 -104 242 -104 q 497 -65 454 -104 q 546 58 540 -26 l 550 110 q 463 43 517 67 q 342 19 410 19 q 188 58 254 19 q 85 168 122 97 q 49 333 49 239 q 90 521 49 438 q 206 651 131 604 q 376 699 281 699 q 588 594 521 699 l 594 682 l 803 682 m 411 179 q 528 231 485 179 q 571 369 571 282 q 531 497 571 454 q 418 540 492 540 q 300 488 343 540 q 257 342 257 435 q 297 222 257 265 q 411 179 338 179 m 582 969 l 569 811 l 363 811 l 369 900 q 397 1013 375 965 q 469 1101 419 1061 l 540 1050 q 485 969 497 1014 l 582 969 z "},"ġ":{"ha":857,"x_min":39,"x_max":803,"o":"m 803 682 l 754 81 q 644 -178 740 -96 q 369 -261 547 -261 q 39 -176 176 -261 l 106 -32 q 375 -104 242 -104 q 497 -65 454 -104 q 546 58 540 -26 l 550 110 q 463 43 517 67 q 342 19 410 19 q 188 58 254 19 q 85 168 122 97 q 49 333 49 239 q 90 521 49 438 q 206 651 131 604 q 376 699 281 699 q 588 594 521 699 l 594 682 l 803 682 m 411 179 q 528 231 485 179 q 571 369 571 282 q 531 497 571 454 q 418 540 492 540 q 300 488 343 540 q 257 342 257 435 q 297 222 257 265 q 411 179 338 179 m 594 1010 l 579 814 l 354 814 l 369 1010 l 594 1010 z "},"ḡ":{"ha":857,"x_min":39,"x_max":803,"o":"m 803 682 l 754 81 q 644 -178 740 -96 q 369 -261 547 -261 q 39 -176 176 -261 l 106 -32 q 375 -104 242 -104 q 497 -65 454 -104 q 546 58 540 -26 l 550 110 q 463 43 517 67 q 342 19 410 19 q 188 58 254 19 q 85 168 122 97 q 49 333 49 239 q 90 521 49 438 q 206 651 131 604 q 376 699 281 699 q 588 594 521 699 l 594 682 l 803 682 m 411 179 q 528 231 485 179 q 571 369 571 282 q 531 497 571 454 q 418 540 492 540 q 300 488 343 540 q 257 342 257 435 q 297 222 257 265 q 411 179 338 179 m 263 976 l 697 976 l 688 846 l 253 846 l 263 976 z "},"h":{"ha":826,"x_min":54,"x_max":757,"o":"m 526 699 q 699 635 640 699 q 757 450 757 572 q 756 406 757 421 l 724 0 l 514 0 l 546 397 q 524 500 551 465 q 440 535 497 535 q 338 494 375 535 q 294 382 300 453 l 264 0 l 54 0 l 131 979 l 340 979 l 311 607 q 403 674 347 650 q 526 699 458 699 z "},"ħ":{"ha":826,"x_min":-6,"x_max":757,"o":"m 526 699 q 699 635 640 699 q 757 450 757 572 q 756 406 757 421 l 724 0 l 514 0 l 546 397 q 524 500 551 465 q 440 535 497 535 q 338 494 375 535 q 294 382 300 453 l 264 0 l 54 0 l 113 740 l -6 740 l 6 885 l 124 885 l 131 979 l 340 979 l 333 885 l 592 885 l 581 740 l 321 740 l 311 607 q 403 674 347 650 q 526 699 458 699 z "},"ḫ":{"ha":826,"x_min":54,"x_max":757,"o":"m 526 699 q 699 635 640 699 q 757 450 757 572 q 756 406 757 421 l 724 0 l 514 0 l 546 397 q 524 500 551 465 q 440 535 497 535 q 338 494 375 535 q 294 382 300 453 l 264 0 l 54 0 l 131 979 l 340 979 l 311 607 q 403 674 347 650 q 526 699 458 699 m 372 -315 q 215 -263 283 -315 q 122 -114 146 -211 l 222 -74 q 290 -157 249 -131 q 382 -183 332 -183 q 544 -74 476 -183 l 638 -114 q 535 -264 608 -212 q 372 -315 463 -315 z "},"ĥ":{"ha":826,"x_min":3,"x_max":757,"o":"m 526 699 q 699 635 640 699 q 757 450 757 572 q 756 406 757 421 l 724 0 l 514 0 l 546 397 q 524 500 551 465 q 440 535 497 535 q 338 494 375 535 q 294 382 300 453 l 264 0 l 54 0 l 131 979 l 340 979 l 311 607 q 403 674 347 650 q 526 699 458 699 m 3 1063 l 203 1279 l 322 1279 l 489 1063 l 332 1063 l 260 1181 l 160 1063 l 3 1063 z "},"ḥ":{"ha":826,"x_min":54,"x_max":757,"o":"m 526 699 q 699 635 640 699 q 757 450 757 572 q 756 406 757 421 l 724 0 l 514 0 l 546 397 q 524 500 551 465 q 440 535 497 535 q 338 494 375 535 q 294 382 300 453 l 264 0 l 54 0 l 131 979 l 340 979 l 311 607 q 403 674 347 650 q 526 699 458 699 m 478 -93 l 463 -276 l 271 -276 l 286 -93 l 478 -93 z "},"i":{"ha":371,"x_min":54,"x_max":351,"o":"m 108 682 l 318 682 l 264 0 l 54 0 l 108 682 m 351 1010 l 336 814 l 111 814 l 126 1010 l 351 1010 z "},"ı":{"ha":371,"x_min":54,"x_max":318,"o":"m 108 682 l 318 682 l 264 0 l 54 0 l 108 682 z "},"í":{"ha":371,"x_min":54,"x_max":524,"o":"m 108 682 l 318 682 l 264 0 l 54 0 l 108 682 m 156 771 l 308 1056 l 524 1056 l 286 771 l 156 771 z "},"ĭ":{"ha":371,"x_min":-19,"x_max":496,"o":"m 108 682 l 318 682 l 264 0 l 54 0 l 108 682 m 231 801 q 73 853 142 801 q -19 1003 4 906 l 81 1043 q 149 960 107 986 q 240 933 190 933 q 403 1043 335 933 l 496 1003 q 394 853 467 904 q 231 801 321 801 z "},"î":{"ha":371,"x_min":-22,"x_max":464,"o":"m 108 682 l 318 682 l 264 0 l 54 0 l 108 682 m -22 771 l 181 1056 l 306 1056 l 464 771 l 306 771 l 233 932 l 144 771 l -22 771 z "},"ȉ":{"ha":371,"x_min":-4,"x_max":361,"o":"m 108 682 l 318 682 l 264 0 l 54 0 l 108 682 m -4 1056 l 142 1056 l 169 771 l 79 771 l -4 1056 m 189 1056 l 335 1056 l 361 771 l 272 771 l 189 1056 z "},"ï":{"ha":371,"x_min":-4,"x_max":467,"o":"m 108 682 l 318 682 l 264 0 l 54 0 l 108 682 m 203 1003 l 188 819 l -4 819 l 10 1003 l 203 1003 m 467 1003 l 453 819 l 260 819 l 275 1003 l 467 1003 z "},"ḯ":{"ha":371,"x_min":-4,"x_max":544,"o":"m 108 682 l 318 682 l 264 0 l 54 0 l 108 682 m 203 1003 l 188 819 l -4 819 l 10 1003 l 203 1003 m 467 1003 l 453 819 l 260 819 l 275 1003 l 467 1003 m 176 1035 l 329 1319 l 544 1319 l 307 1035 l 176 1035 z "},"ị":{"ha":371,"x_min":42,"x_max":351,"o":"m 108 682 l 318 682 l 264 0 l 54 0 l 108 682 m 351 1010 l 336 814 l 111 814 l 126 1010 l 351 1010 m 249 -93 l 233 -276 l 42 -276 l 57 -93 l 249 -93 z "},"ì":{"ha":371,"x_min":-28,"x_max":318,"o":"m 108 682 l 318 682 l 264 0 l 54 0 l 108 682 m -28 1056 l 167 1056 l 286 771 l 156 771 l -28 1056 z "},"ỉ":{"ha":371,"x_min":54,"x_max":401,"o":"m 108 682 l 318 682 l 264 0 l 54 0 l 108 682 m 275 771 l 171 771 l 174 806 q 189 853 175 835 q 231 894 203 871 q 256 917 247 907 q 264 938 264 926 q 221 967 264 967 q 150 954 188 967 l 128 1038 q 257 1058 190 1058 q 363 1031 325 1058 q 401 961 401 1003 q 383 905 401 926 q 328 858 364 883 q 290 828 303 842 q 276 799 278 815 l 275 771 z "},"ȋ":{"ha":371,"x_min":-33,"x_max":483,"o":"m 108 682 l 318 682 l 264 0 l 54 0 l 108 682 m 233 1039 q 391 987 322 1039 q 483 838 460 935 l 383 796 q 315 880 357 853 q 224 907 274 907 q 61 796 128 907 l -33 838 q 70 987 -3 935 q 233 1039 143 1039 z "},"ī":{"ha":371,"x_min":10,"x_max":454,"o":"m 108 682 l 318 682 l 264 0 l 54 0 l 108 682 m 19 976 l 454 976 l 444 846 l 10 846 l 19 976 z "},"į":{"ha":371,"x_min":-10,"x_max":350,"o":"m 350 1010 l 336 814 l 111 814 l 126 1010 l 350 1010 m 251 0 q 159 -26 190 0 q 128 -94 128 -53 q 148 -147 128 -128 q 201 -165 168 -165 q 282 -147 232 -165 l 297 -246 q 167 -274 231 -274 q 38 -232 86 -274 q -10 -124 -10 -190 q 54 7 -10 -42 l 108 682 l 318 682 l 264 0 l 251 0 z "},"ĩ":{"ha":371,"x_min":-18,"x_max":482,"o":"m 108 682 l 318 682 l 264 0 l 54 0 l 108 682 m -18 815 q 33 969 -12 919 q 142 1018 79 1018 q 196 1007 171 1018 q 254 975 221 996 q 298 951 283 958 q 328 944 313 944 q 371 962 354 944 q 392 1014 388 979 l 482 1014 q 430 860 475 910 q 322 811 385 811 q 270 822 294 811 q 210 853 246 832 q 166 876 181 869 q 136 883 151 883 q 72 815 81 883 l -18 815 z "},"j":{"ha":371,"x_min":-136,"x_max":350,"o":"m 267 32 q 227 -127 258 -68 q 128 -217 196 -186 q -61 -254 60 -247 l -131 -258 l -136 -108 l -58 -103 q 24 -75 -3 -99 q 54 1 50 -51 l 108 682 l 318 682 l 267 32 m 350 1010 l 335 814 l 110 814 l 125 1010 l 350 1010 z "},"ȷ":{"ha":371,"x_min":-136,"x_max":318,"o":"m 267 32 q 227 -127 258 -68 q 128 -217 196 -186 q -61 -254 60 -247 l -131 -258 l -136 -108 l -58 -103 q 24 -75 -3 -99 q 54 1 50 -51 l 108 682 l 318 682 l 267 32 z "},"ĵ":{"ha":371,"x_min":-136,"x_max":463,"o":"m 267 32 q 227 -127 258 -68 q 128 -217 196 -186 q -61 -254 60 -247 l -131 -258 l -136 -108 l -58 -103 q 24 -75 -3 -99 q 54 1 50 -51 l 108 682 l 318 682 l 267 32 m -24 771 l 179 1056 l 304 1056 l 463 771 l 304 771 l 232 932 l 143 771 l -24 771 z "},"k":{"ha":775,"x_min":54,"x_max":819,"o":"m 508 351 l 782 0 l 529 0 l 288 306 l 264 0 l 54 0 l 131 979 l 340 979 l 294 390 l 564 681 l 819 681 l 508 351 z "},"ķ":{"ha":775,"x_min":54,"x_max":819,"o":"m 508 351 l 782 0 l 529 0 l 288 306 l 264 0 l 54 0 l 131 979 l 340 979 l 294 390 l 564 681 l 819 681 l 508 351 m 457 -90 l 450 -181 q 422 -293 444 -244 q 350 -382 400 -342 l 279 -331 q 335 -249 322 -292 l 238 -249 l 250 -90 l 457 -90 z "},"ĸ":{"ha":775,"x_min":54,"x_max":819,"o":"m 508 351 l 782 0 l 529 0 l 288 304 l 264 0 l 54 0 l 108 682 l 318 682 l 294 392 l 564 681 l 819 681 l 508 351 z "},"l":{"ha":371,"x_min":54,"x_max":342,"o":"m 132 979 l 342 979 l 264 0 l 54 0 l 132 979 z "},"ĺ":{"ha":371,"x_min":54,"x_max":536,"o":"m 132 979 l 342 979 l 264 0 l 54 0 l 132 979 m 178 1063 l 332 1279 l 536 1279 l 308 1063 l 178 1063 z "},"ľ":{"ha":371,"x_min":54,"x_max":485,"o":"m 132 979 l 342 979 l 264 0 l 54 0 l 132 979 m 356 710 l 376 979 l 485 979 l 428 710 l 356 710 z "},"ļ":{"ha":371,"x_min":36,"x_max":342,"o":"m 132 979 l 342 979 l 264 0 l 54 0 l 132 979 m 256 -90 l 249 -181 q 221 -293 243 -244 q 149 -382 199 -342 l 78 -331 q 133 -249 121 -292 l 36 -249 l 49 -90 l 256 -90 z "},"ŀ":{"ha":519,"x_min":54,"x_max":568,"o":"m 132 979 l 342 979 l 264 0 l 54 0 l 132 979 m 568 586 l 551 392 l 326 392 l 343 586 l 568 586 z "},"ḷ":{"ha":371,"x_min":42,"x_max":342,"o":"m 132 979 l 342 979 l 264 0 l 54 0 l 132 979 m 249 -93 l 233 -276 l 42 -276 l 57 -93 l 249 -93 z "},"ǉ":{"ha":742,"x_min":54,"x_max":721,"o":"m 132 979 l 342 979 l 264 0 l 54 0 l 132 979 m 638 32 q 598 -127 629 -68 q 499 -217 567 -186 q 310 -254 431 -247 l 240 -258 l 235 -108 l 313 -103 q 394 -75 368 -99 q 425 1 421 -51 l 479 682 l 689 682 l 638 32 m 721 1010 l 706 814 l 481 814 l 496 1010 l 721 1010 z "},"ḻ":{"ha":371,"x_min":-76,"x_max":367,"o":"m 132 979 l 342 979 l 264 0 l 54 0 l 132 979 m -68 -124 l 367 -124 l 358 -246 l -76 -246 l -68 -124 z "},"ł":{"ha":488,"x_min":-15,"x_max":528,"o":"m 358 460 l 322 0 l 113 0 l 139 339 l 51 290 l -15 431 l 154 524 l 190 979 l 400 979 l 374 644 l 461 693 l 528 553 l 358 460 z "},"m":{"ha":1229,"x_min":54,"x_max":1158,"o":"m 940 699 q 1103 635 1047 699 q 1158 450 1158 572 q 1157 407 1158 422 l 1125 0 l 915 0 l 947 401 q 949 429 949 411 q 857 535 949 535 q 724 371 736 535 l 694 0 l 485 0 l 517 400 q 518 428 518 410 q 426 535 518 535 q 293 371 306 535 l 264 0 l 54 0 l 108 681 l 313 681 l 306 606 q 514 699 385 699 q 633 669 583 699 q 708 585 683 640 q 808 669 749 640 q 940 699 868 699 z "},"ṃ":{"ha":1229,"x_min":54,"x_max":1158,"o":"m 940 699 q 1103 635 1047 699 q 1158 450 1158 572 q 1157 407 1158 422 l 1125 0 l 915 0 l 947 401 q 949 429 949 411 q 857 535 949 535 q 724 371 736 535 l 694 0 l 485 0 l 517 400 q 518 428 518 410 q 426 535 518 535 q 293 371 306 535 l 264 0 l 54 0 l 108 681 l 313 681 l 306 606 q 514 699 385 699 q 633 669 583 699 q 708 585 683 640 q 808 669 749 640 q 940 699 868 699 m 679 -93 l 664 -276 l 472 -276 l 488 -93 l 679 -93 z "},"n":{"ha":826,"x_min":54,"x_max":757,"o":"m 526 699 q 699 635 640 699 q 757 450 757 572 q 756 406 757 421 l 724 0 l 514 0 l 546 397 q 524 500 551 465 q 440 535 497 535 q 338 494 375 535 q 294 382 300 453 l 264 0 l 54 0 l 108 682 l 313 682 l 306 601 q 399 673 342 647 q 526 699 456 699 z "},"ń":{"ha":826,"x_min":54,"x_max":757,"o":"m 526 699 q 699 635 640 699 q 757 450 757 572 q 756 406 757 421 l 724 0 l 514 0 l 546 397 q 524 500 551 465 q 440 535 497 535 q 338 494 375 535 q 294 382 300 453 l 264 0 l 54 0 l 108 682 l 313 682 l 306 601 q 399 673 342 647 q 526 699 456 699 m 385 771 l 538 1056 l 753 1056 l 515 771 l 385 771 z "},"ŉ":{"ha":826,"x_min":54,"x_max":757,"o":"m 365 1056 l 358 965 q 330 853 353 901 q 258 764 307 804 l 188 815 q 243 897 231 854 l 146 897 l 158 1056 l 365 1056 m 526 699 q 699 635 640 699 q 757 450 757 572 q 756 406 757 421 l 724 0 l 514 0 l 546 397 q 524 500 551 465 q 440 535 497 535 q 338 494 375 535 q 294 382 300 453 l 264 0 l 54 0 l 108 682 l 313 682 l 306 601 q 399 673 342 647 q 526 699 456 699 z "},"ň":{"ha":826,"x_min":54,"x_max":757,"o":"m 526 699 q 699 635 640 699 q 757 450 757 572 q 756 406 757 421 l 724 0 l 514 0 l 546 397 q 524 500 551 465 q 440 535 497 535 q 338 494 375 535 q 294 382 300 453 l 264 0 l 54 0 l 108 682 l 313 682 l 306 601 q 399 673 342 647 q 526 699 456 699 m 715 1056 l 513 771 l 388 771 l 229 1056 l 388 1056 l 460 894 l 549 1056 l 715 1056 z "},"ņ":{"ha":826,"x_min":54,"x_max":757,"o":"m 526 699 q 699 635 640 699 q 757 450 757 572 q 756 406 757 421 l 724 0 l 514 0 l 546 397 q 524 500 551 465 q 440 535 497 535 q 338 494 375 535 q 294 382 300 453 l 264 0 l 54 0 l 108 682 l 313 682 l 306 601 q 399 673 342 647 q 526 699 456 699 m 485 -90 l 478 -181 q 450 -293 472 -244 q 378 -382 428 -342 l 307 -331 q 363 -249 350 -292 l 265 -249 l 278 -90 l 485 -90 z "},"ṅ":{"ha":826,"x_min":54,"x_max":757,"o":"m 526 699 q 699 635 640 699 q 757 450 757 572 q 756 406 757 421 l 724 0 l 514 0 l 546 397 q 524 500 551 465 q 440 535 497 535 q 338 494 375 535 q 294 382 300 453 l 264 0 l 54 0 l 108 682 l 313 682 l 306 601 q 399 673 342 647 q 526 699 456 699 m 581 1010 l 565 814 l 340 814 l 356 1010 l 581 1010 z "},"ṇ":{"ha":826,"x_min":54,"x_max":757,"o":"m 526 699 q 699 635 640 699 q 757 450 757 572 q 756 406 757 421 l 724 0 l 514 0 l 546 397 q 524 500 551 465 q 440 535 497 535 q 338 494 375 535 q 294 382 300 453 l 264 0 l 54 0 l 108 682 l 313 682 l 306 601 q 399 673 342 647 q 526 699 456 699 m 478 -93 l 463 -276 l 271 -276 l 286 -93 l 478 -93 z "},"ŋ":{"ha":826,"x_min":54,"x_max":757,"o":"m 526 699 q 698 635 639 699 q 757 450 757 572 q 756 406 757 421 l 728 46 q 685 -122 719 -60 q 582 -214 651 -183 q 393 -253 513 -244 l 328 -257 l 322 -107 l 399 -101 q 485 -73 460 -97 q 514 7 510 -49 l 546 397 q 524 500 551 465 q 440 535 497 535 q 338 494 375 535 q 294 382 300 453 l 264 0 l 54 0 l 108 682 l 313 682 l 306 601 q 399 673 342 647 q 526 699 456 699 z "},"ǌ":{"ha":1197,"x_min":54,"x_max":1176,"o":"m 526 699 q 699 635 640 699 q 757 450 757 572 q 756 406 757 421 l 724 0 l 514 0 l 546 397 q 524 500 551 465 q 440 535 497 535 q 338 494 375 535 q 294 382 300 453 l 264 0 l 54 0 l 108 682 l 313 682 l 306 601 q 399 673 342 647 q 526 699 456 699 m 1093 32 q 1053 -127 1085 -68 q 954 -217 1022 -186 q 765 -254 886 -247 l 696 -258 l 690 -108 l 768 -103 q 850 -75 824 -99 q 881 1 876 -51 l 935 682 l 1144 682 l 1093 32 m 1176 1010 l 1161 814 l 936 814 l 951 1010 l 1176 1010 z "},"ṉ":{"ha":826,"x_min":54,"x_max":757,"o":"m 526 699 q 699 635 640 699 q 757 450 757 572 q 756 406 757 421 l 724 0 l 514 0 l 546 397 q 524 500 551 465 q 440 535 497 535 q 338 494 375 535 q 294 382 300 453 l 264 0 l 54 0 l 108 682 l 313 682 l 306 601 q 399 673 342 647 q 526 699 456 699 m 161 -124 l 596 -124 l 588 -246 l 153 -246 l 161 -124 z "},"ñ":{"ha":826,"x_min":54,"x_max":757,"o":"m 526 699 q 699 635 640 699 q 757 450 757 572 q 756 406 757 421 l 724 0 l 514 0 l 546 397 q 524 500 551 465 q 440 535 497 535 q 338 494 375 535 q 294 382 300 453 l 264 0 l 54 0 l 108 682 l 313 682 l 306 601 q 399 673 342 647 q 526 699 456 699 m 211 815 q 263 969 217 919 q 371 1018 308 1018 q 425 1007 400 1018 q 483 975 450 996 q 527 951 513 958 q 557 944 542 944 q 600 962 583 944 q 621 1014 617 979 l 711 1014 q 659 860 704 910 q 551 811 614 811 q 499 822 524 811 q 439 853 475 832 q 395 876 410 869 q 365 883 381 883 q 301 815 310 883 l 211 815 z "},"o":{"ha":817,"x_min":47,"x_max":771,"o":"m 406 -11 q 215 31 296 -11 q 91 148 135 72 q 47 325 47 224 q 92 524 47 439 q 220 653 138 608 q 413 699 303 699 q 603 657 522 699 q 727 540 683 615 q 771 363 771 464 q 726 163 771 247 q 598 34 681 79 q 406 -11 515 -11 m 403 147 q 523 208 483 147 q 563 368 563 269 q 415 540 563 540 q 295 479 335 540 q 256 321 256 418 q 403 147 256 147 z "},"ó":{"ha":817,"x_min":47,"x_max":771,"o":"m 406 -11 q 215 31 296 -11 q 91 148 135 72 q 47 325 47 224 q 92 524 47 439 q 220 653 138 608 q 413 699 303 699 q 603 657 522 699 q 727 540 683 615 q 771 363 771 464 q 726 163 771 247 q 598 34 681 79 q 406 -11 515 -11 m 403 147 q 523 208 483 147 q 563 368 563 269 q 415 540 563 540 q 295 479 335 540 q 256 321 256 418 q 403 147 256 147 m 378 771 l 531 1056 l 746 1056 l 508 771 l 378 771 z "},"ŏ":{"ha":817,"x_min":47,"x_max":771,"o":"m 406 -11 q 215 31 296 -11 q 91 148 135 72 q 47 325 47 224 q 92 524 47 439 q 220 653 138 608 q 413 699 303 699 q 603 657 522 699 q 727 540 683 615 q 771 363 771 464 q 726 163 771 247 q 598 34 681 79 q 406 -11 515 -11 m 403 147 q 523 208 483 147 q 563 368 563 269 q 415 540 563 540 q 295 479 335 540 q 256 321 256 418 q 403 147 256 147 m 453 801 q 295 853 364 801 q 203 1003 226 906 l 303 1043 q 371 960 329 986 q 463 933 413 933 q 625 1043 557 933 l 718 1003 q 616 853 689 904 q 453 801 543 801 z "},"ô":{"ha":817,"x_min":47,"x_max":771,"o":"m 406 -11 q 215 31 296 -11 q 91 148 135 72 q 47 325 47 224 q 92 524 47 439 q 220 653 138 608 q 413 699 303 699 q 603 657 522 699 q 727 540 683 615 q 771 363 771 464 q 726 163 771 247 q 598 34 681 79 q 406 -11 515 -11 m 403 147 q 523 208 483 147 q 563 368 563 269 q 415 540 563 540 q 295 479 335 540 q 256 321 256 418 q 403 147 256 147 m 200 771 l 403 1056 l 528 1056 l 686 771 l 528 771 l 456 932 l 367 771 l 200 771 z "},"ố":{"ha":817,"x_min":47,"x_max":879,"o":"m 406 -11 q 215 31 296 -11 q 91 148 135 72 q 47 325 47 224 q 92 524 47 439 q 220 653 138 608 q 413 699 303 699 q 603 657 522 699 q 727 540 683 615 q 771 363 771 464 q 726 163 771 247 q 598 34 681 79 q 406 -11 515 -11 m 403 147 q 523 208 483 147 q 563 368 563 269 q 415 540 563 540 q 295 479 335 540 q 256 321 256 418 q 403 147 256 147 m 585 918 l 694 1115 l 879 1115 l 688 918 l 585 918 m 200 771 l 399 963 l 518 963 l 686 771 l 533 771 l 454 869 l 356 771 l 200 771 z "},"ộ":{"ha":817,"x_min":47,"x_max":771,"o":"m 406 -11 q 215 31 296 -11 q 91 148 135 72 q 47 325 47 224 q 92 524 47 439 q 220 653 138 608 q 413 699 303 699 q 603 657 522 699 q 727 540 683 615 q 771 363 771 464 q 726 163 771 247 q 598 34 681 79 q 406 -11 515 -11 m 403 147 q 523 208 483 147 q 563 368 563 269 q 415 540 563 540 q 295 479 335 540 q 256 321 256 418 q 403 147 256 147 m 471 -93 l 456 -276 l 264 -276 l 279 -93 l 471 -93 m 200 771 l 403 1056 l 528 1056 l 686 771 l 528 771 l 456 932 l 367 771 l 200 771 z "},"ồ":{"ha":817,"x_min":47,"x_max":771,"o":"m 406 -11 q 215 31 296 -11 q 91 148 135 72 q 47 325 47 224 q 92 524 47 439 q 220 653 138 608 q 413 699 303 699 q 603 657 522 699 q 727 540 683 615 q 771 363 771 464 q 726 163 771 247 q 598 34 681 79 q 406 -11 515 -11 m 403 147 q 523 208 483 147 q 563 368 563 269 q 415 540 563 540 q 295 479 335 540 q 256 321 256 418 q 403 147 256 147 m 494 1115 l 657 1115 l 746 918 l 643 918 l 494 1115 m 399 963 l 518 963 l 686 771 l 533 771 l 454 869 l 356 771 l 200 771 l 399 963 z "},"ổ":{"ha":817,"x_min":47,"x_max":811,"o":"m 406 -11 q 215 31 296 -11 q 91 148 135 72 q 47 325 47 224 q 92 524 47 439 q 220 653 138 608 q 413 699 303 699 q 603 657 522 699 q 727 540 683 615 q 771 363 771 464 q 726 163 771 247 q 598 34 681 79 q 406 -11 515 -11 m 403 147 q 523 208 483 147 q 563 368 563 269 q 415 540 563 540 q 295 479 335 540 q 256 321 256 418 q 403 147 256 147 m 586 947 q 608 988 589 974 q 656 1014 626 1003 q 667 1019 658 1015 q 678 1026 675 1022 q 682 1032 682 1029 q 651 1043 682 1043 q 557 1029 611 1043 l 536 1100 q 671 1122 592 1122 q 774 1101 736 1122 q 811 1044 811 1079 q 792 1000 811 1015 q 740 972 774 985 q 703 953 715 961 q 689 931 690 944 l 688 919 l 583 919 l 586 947 m 399 963 l 518 963 l 686 771 l 533 771 l 454 869 l 356 771 l 200 771 l 399 963 z "},"ỗ":{"ha":817,"x_min":47,"x_max":771,"o":"m 406 -11 q 215 31 296 -11 q 91 148 135 72 q 47 325 47 224 q 92 524 47 439 q 220 653 138 608 q 413 699 303 699 q 603 657 522 699 q 727 540 683 615 q 771 363 771 464 q 726 163 771 247 q 598 34 681 79 q 406 -11 515 -11 m 403 147 q 523 208 483 147 q 563 368 563 269 q 415 540 563 540 q 295 479 335 540 q 256 321 256 418 q 403 147 256 147 m 218 988 q 267 1093 221 1053 q 375 1133 314 1133 q 428 1127 403 1133 q 485 1108 453 1121 q 568 1088 536 1088 q 622 1129 619 1088 l 713 1129 q 664 1024 711 1064 q 557 983 617 983 q 504 990 529 983 q 447 1008 479 996 q 364 1029 396 1029 q 308 988 314 1029 l 218 988 m 399 963 l 518 963 l 686 771 l 533 771 l 454 869 l 356 771 l 200 771 l 399 963 z "},"ȍ":{"ha":817,"x_min":47,"x_max":771,"o":"m 406 -11 q 215 31 296 -11 q 91 148 135 72 q 47 325 47 224 q 92 524 47 439 q 220 653 138 608 q 413 699 303 699 q 603 657 522 699 q 727 540 683 615 q 771 363 771 464 q 726 163 771 247 q 598 34 681 79 q 406 -11 515 -11 m 403 147 q 523 208 483 147 q 563 368 563 269 q 415 540 563 540 q 295 479 335 540 q 256 321 256 418 q 403 147 256 147 m 218 1056 l 364 1056 l 392 771 l 301 771 l 218 1056 m 411 1056 l 557 1056 l 583 771 l 494 771 l 411 1056 z "},"ö":{"ha":817,"x_min":47,"x_max":771,"o":"m 406 -11 q 215 31 296 -11 q 91 148 135 72 q 47 325 47 224 q 92 524 47 439 q 220 653 138 608 q 413 699 303 699 q 603 657 522 699 q 727 540 683 615 q 771 363 771 464 q 726 163 771 247 q 598 34 681 79 q 406 -11 515 -11 m 403 147 q 523 208 483 147 q 563 368 563 269 q 415 540 563 540 q 295 479 335 540 q 256 321 256 418 q 403 147 256 147 m 425 1003 l 410 819 l 218 819 l 232 1003 l 425 1003 m 689 1003 l 675 819 l 482 819 l 497 1003 l 689 1003 z "},"ȫ":{"ha":817,"x_min":47,"x_max":771,"o":"m 406 -11 q 215 31 296 -11 q 91 148 135 72 q 47 325 47 224 q 92 524 47 439 q 220 653 138 608 q 413 699 303 699 q 603 657 522 699 q 727 540 683 615 q 771 363 771 464 q 726 163 771 247 q 598 34 681 79 q 406 -11 515 -11 m 403 147 q 523 208 483 147 q 563 368 563 269 q 415 540 563 540 q 295 479 335 540 q 256 321 256 418 q 403 147 256 147 m 425 1003 l 410 819 l 218 819 l 232 1003 l 425 1003 m 689 1003 l 675 819 l 482 819 l 497 1003 l 689 1003 m 263 1240 l 697 1240 l 688 1110 l 253 1110 l 263 1240 z "},"ȱ":{"ha":817,"x_min":47,"x_max":771,"o":"m 406 -11 q 215 31 296 -11 q 91 148 135 72 q 47 325 47 224 q 92 524 47 439 q 220 653 138 608 q 413 699 303 699 q 603 657 522 699 q 727 540 683 615 q 771 363 771 464 q 726 163 771 247 q 598 34 681 79 q 406 -11 515 -11 m 403 147 q 523 208 483 147 q 563 368 563 269 q 415 540 563 540 q 295 479 335 540 q 256 321 256 418 q 403 147 256 147 m 574 1010 l 558 814 l 333 814 l 349 1010 l 574 1010 m 263 1240 l 697 1240 l 688 1110 l 253 1110 l 263 1240 z "},"ọ":{"ha":817,"x_min":47,"x_max":771,"o":"m 406 -11 q 215 31 296 -11 q 91 148 135 72 q 47 325 47 224 q 92 524 47 439 q 220 653 138 608 q 413 699 303 699 q 603 657 522 699 q 727 540 683 615 q 771 363 771 464 q 726 163 771 247 q 598 34 681 79 q 406 -11 515 -11 m 403 147 q 523 208 483 147 q 563 368 563 269 q 415 540 563 540 q 295 479 335 540 q 256 321 256 418 q 403 147 256 147 m 471 -93 l 456 -276 l 264 -276 l 279 -93 l 471 -93 z "},"ò":{"ha":817,"x_min":47,"x_max":771,"o":"m 406 -11 q 215 31 296 -11 q 91 148 135 72 q 47 325 47 224 q 92 524 47 439 q 220 653 138 608 q 413 699 303 699 q 603 657 522 699 q 727 540 683 615 q 771 363 771 464 q 726 163 771 247 q 598 34 681 79 q 406 -11 515 -11 m 403 147 q 523 208 483 147 q 563 368 563 269 q 415 540 563 540 q 295 479 335 540 q 256 321 256 418 q 403 147 256 147 m 194 1056 l 389 1056 l 508 771 l 378 771 l 194 1056 z "},"ỏ":{"ha":817,"x_min":47,"x_max":771,"o":"m 406 -11 q 215 31 296 -11 q 91 148 135 72 q 47 325 47 224 q 92 524 47 439 q 220 653 138 608 q 413 699 303 699 q 603 657 522 699 q 727 540 683 615 q 771 363 771 464 q 726 163 771 247 q 598 34 681 79 q 406 -11 515 -11 m 403 147 q 523 208 483 147 q 563 368 563 269 q 415 540 563 540 q 295 479 335 540 q 256 321 256 418 q 403 147 256 147 m 497 771 l 393 771 l 396 806 q 411 853 397 835 q 453 894 425 871 q 478 917 469 907 q 486 938 486 926 q 443 967 486 967 q 372 954 410 967 l 350 1038 q 479 1058 413 1058 q 585 1031 547 1058 q 624 961 624 1003 q 605 905 624 926 q 550 858 586 883 q 513 828 525 842 q 499 799 500 815 l 497 771 z "},"ơ":{"ha":817,"x_min":47,"x_max":843,"o":"m 843 856 l 839 803 q 794 669 833 725 q 688 593 754 613 q 749 489 728 549 q 771 363 771 429 q 726 163 771 247 q 598 34 681 79 q 406 -11 515 -11 q 215 31 296 -11 q 91 148 135 72 q 47 325 47 224 q 92 524 47 439 q 220 653 138 608 q 413 699 303 699 q 493 692 449 699 q 521 689 507 690 q 547 688 535 688 q 624 717 594 688 q 661 828 654 747 l 663 856 l 843 856 m 403 147 q 523 208 483 147 q 563 368 563 269 q 415 540 563 540 q 295 479 335 540 q 256 321 256 418 q 403 147 256 147 z "},"ớ":{"ha":817,"x_min":47,"x_max":843,"o":"m 843 856 l 839 803 q 794 669 833 725 q 688 593 754 613 q 749 489 728 549 q 771 363 771 429 q 726 163 771 247 q 598 34 681 79 q 406 -11 515 -11 q 215 31 296 -11 q 91 148 135 72 q 47 325 47 224 q 92 524 47 439 q 220 653 138 608 q 413 699 303 699 q 493 692 449 699 q 521 689 507 690 q 547 688 535 688 q 624 717 594 688 q 661 828 654 747 l 663 856 l 843 856 m 403 147 q 523 208 483 147 q 563 368 563 269 q 415 540 563 540 q 295 479 335 540 q 256 321 256 418 q 403 147 256 147 m 378 771 l 531 1056 l 746 1056 l 508 771 l 378 771 z "},"ợ":{"ha":817,"x_min":47,"x_max":843,"o":"m 843 856 l 839 803 q 794 669 833 725 q 688 593 754 613 q 749 489 728 549 q 771 363 771 429 q 726 163 771 247 q 598 34 681 79 q 406 -11 515 -11 q 215 31 296 -11 q 91 148 135 72 q 47 325 47 224 q 92 524 47 439 q 220 653 138 608 q 413 699 303 699 q 493 692 449 699 q 521 689 507 690 q 547 688 535 688 q 624 717 594 688 q 661 828 654 747 l 663 856 l 843 856 m 403 147 q 523 208 483 147 q 563 368 563 269 q 415 540 563 540 q 295 479 335 540 q 256 321 256 418 q 403 147 256 147 m 471 -93 l 456 -276 l 264 -276 l 279 -93 l 471 -93 z "},"ờ":{"ha":817,"x_min":47,"x_max":843,"o":"m 843 856 l 839 803 q 794 669 833 725 q 688 593 754 613 q 749 489 728 549 q 771 363 771 429 q 726 163 771 247 q 598 34 681 79 q 406 -11 515 -11 q 215 31 296 -11 q 91 148 135 72 q 47 325 47 224 q 92 524 47 439 q 220 653 138 608 q 413 699 303 699 q 493 692 449 699 q 521 689 507 690 q 547 688 535 688 q 624 717 594 688 q 661 828 654 747 l 663 856 l 843 856 m 403 147 q 523 208 483 147 q 563 368 563 269 q 415 540 563 540 q 295 479 335 540 q 256 321 256 418 q 403 147 256 147 m 194 1056 l 389 1056 l 508 771 l 378 771 l 194 1056 z "},"ở":{"ha":817,"x_min":47,"x_max":843,"o":"m 843 856 l 839 803 q 794 669 833 725 q 688 593 754 613 q 749 489 728 549 q 771 363 771 429 q 726 163 771 247 q 598 34 681 79 q 406 -11 515 -11 q 215 31 296 -11 q 91 148 135 72 q 47 325 47 224 q 92 524 47 439 q 220 653 138 608 q 413 699 303 699 q 493 692 449 699 q 521 689 507 690 q 547 688 535 688 q 624 717 594 688 q 661 828 654 747 l 663 856 l 843 856 m 403 147 q 523 208 483 147 q 563 368 563 269 q 415 540 563 540 q 295 479 335 540 q 256 321 256 418 q 403 147 256 147 m 497 771 l 393 771 l 396 806 q 411 853 397 835 q 453 894 425 871 q 478 917 469 907 q 486 938 486 926 q 443 967 486 967 q 372 954 410 967 l 350 1038 q 479 1058 413 1058 q 585 1031 547 1058 q 624 961 624 1003 q 605 905 624 926 q 550 858 586 883 q 513 828 525 842 q 499 799 500 815 l 497 771 z "},"ỡ":{"ha":817,"x_min":47,"x_max":843,"o":"m 843 856 l 839 803 q 794 669 833 725 q 688 593 754 613 q 749 489 728 549 q 771 363 771 429 q 726 163 771 247 q 598 34 681 79 q 406 -11 515 -11 q 215 31 296 -11 q 91 148 135 72 q 47 325 47 224 q 92 524 47 439 q 220 653 138 608 q 413 699 303 699 q 493 692 449 699 q 521 689 507 690 q 547 688 535 688 q 624 717 594 688 q 661 828 654 747 l 663 856 l 843 856 m 403 147 q 523 208 483 147 q 563 368 563 269 q 415 540 563 540 q 295 479 335 540 q 256 321 256 418 q 403 147 256 147 m 204 815 q 256 969 210 919 q 364 1018 301 1018 q 418 1007 393 1018 q 476 975 443 996 q 520 951 506 958 q 550 944 535 944 q 593 962 576 944 q 614 1014 610 979 l 704 1014 q 652 860 697 910 q 544 811 607 811 q 492 822 517 811 q 432 853 468 832 q 388 876 403 869 q 358 883 374 883 q 294 815 303 883 l 204 815 z "},"ő":{"ha":817,"x_min":47,"x_max":771,"o":"m 406 -11 q 215 31 296 -11 q 91 148 135 72 q 47 325 47 224 q 92 524 47 439 q 220 653 138 608 q 413 699 303 699 q 603 657 522 699 q 727 540 683 615 q 771 363 771 464 q 726 163 771 247 q 598 34 681 79 q 406 -11 515 -11 m 403 147 q 523 208 483 147 q 563 368 563 269 q 415 540 563 540 q 295 479 335 540 q 256 321 256 418 q 403 147 256 147 m 301 771 l 368 1056 l 525 1056 l 392 771 l 301 771 m 494 771 l 561 1056 l 717 1056 l 583 771 l 494 771 z "},"ȏ":{"ha":817,"x_min":47,"x_max":771,"o":"m 406 -11 q 215 31 296 -11 q 91 148 135 72 q 47 325 47 224 q 92 524 47 439 q 220 653 138 608 q 413 699 303 699 q 603 657 522 699 q 727 540 683 615 q 771 363 771 464 q 726 163 771 247 q 598 34 681 79 q 406 -11 515 -11 m 403 147 q 523 208 483 147 q 563 368 563 269 q 415 540 563 540 q 295 479 335 540 q 256 321 256 418 q 403 147 256 147 m 456 1039 q 613 987 544 1039 q 706 838 682 935 l 606 796 q 538 880 579 853 q 446 907 496 907 q 283 796 350 907 l 189 838 q 292 987 219 935 q 456 1039 365 1039 z "},"ō":{"ha":817,"x_min":47,"x_max":771,"o":"m 406 -11 q 215 31 296 -11 q 91 148 135 72 q 47 325 47 224 q 92 524 47 439 q 220 653 138 608 q 413 699 303 699 q 603 657 522 699 q 727 540 683 615 q 771 363 771 464 q 726 163 771 247 q 598 34 681 79 q 406 -11 515 -11 m 403 147 q 523 208 483 147 q 563 368 563 269 q 415 540 563 540 q 295 479 335 540 q 256 321 256 418 q 403 147 256 147 m 242 976 l 676 976 l 667 846 l 232 846 l 242 976 z "},"ṓ":{"ha":817,"x_min":47,"x_max":771,"o":"m 406 -11 q 215 31 296 -11 q 91 148 135 72 q 47 325 47 224 q 92 524 47 439 q 220 653 138 608 q 413 699 303 699 q 603 657 522 699 q 727 540 683 615 q 771 363 771 464 q 726 163 771 247 q 598 34 681 79 q 406 -11 515 -11 m 403 147 q 523 208 483 147 q 563 368 563 269 q 415 540 563 540 q 295 479 335 540 q 256 321 256 418 q 403 147 256 147 m 242 976 l 676 976 l 667 846 l 232 846 l 242 976 m 399 1035 l 551 1319 l 767 1319 l 529 1035 l 399 1035 z "},"ṑ":{"ha":817,"x_min":47,"x_max":771,"o":"m 406 -11 q 215 31 296 -11 q 91 148 135 72 q 47 325 47 224 q 92 524 47 439 q 220 653 138 608 q 413 699 303 699 q 603 657 522 699 q 727 540 683 615 q 771 363 771 464 q 726 163 771 247 q 598 34 681 79 q 406 -11 515 -11 m 403 147 q 523 208 483 147 q 563 368 563 269 q 415 540 563 540 q 295 479 335 540 q 256 321 256 418 q 403 147 256 147 m 242 976 l 676 976 l 667 846 l 232 846 l 242 976 m 215 1319 l 410 1319 l 529 1035 l 399 1035 l 215 1319 z "},"ǫ":{"ha":817,"x_min":47,"x_max":771,"o":"m 515 3 q 418 -94 418 -24 q 438 -147 418 -128 q 492 -165 458 -165 q 571 -147 521 -165 l 586 -246 q 456 -274 522 -274 q 328 -233 376 -274 q 281 -126 281 -192 q 338 -7 281 -53 q 124 101 201 13 q 47 325 47 189 q 92 524 47 439 q 220 653 138 608 q 413 699 303 699 q 602 657 521 699 q 727 540 683 615 q 771 363 771 464 q 702 123 771 210 q 515 3 633 36 m 403 147 q 523 208 483 147 q 563 368 563 269 q 415 540 563 540 q 295 479 335 540 q 256 321 256 418 q 403 147 256 147 z "},"ø":{"ha":817,"x_min":47,"x_max":771,"o":"m 658 621 q 742 510 713 576 q 771 363 771 444 q 726 163 771 247 q 598 34 681 79 q 406 -11 515 -11 q 257 13 324 -11 l 190 -87 l 96 -29 l 160 67 q 76 178 106 113 q 47 325 47 243 q 92 524 47 439 q 220 653 138 608 q 413 699 303 699 q 561 675 494 699 l 628 775 l 721 717 l 658 621 m 251 321 q 265 228 251 264 l 469 535 q 415 542 442 542 q 292 481 332 542 q 251 321 251 419 m 403 146 q 527 207 488 146 q 567 368 567 268 q 551 461 567 426 l 349 153 q 403 146 376 146 z "},"ǿ":{"ha":817,"x_min":47,"x_max":771,"o":"m 658 621 q 742 510 713 576 q 771 363 771 444 q 726 163 771 247 q 598 34 681 79 q 406 -11 515 -11 q 257 13 324 -11 l 190 -87 l 96 -29 l 160 67 q 76 178 106 113 q 47 325 47 243 q 92 524 47 439 q 220 653 138 608 q 413 699 303 699 q 561 675 494 699 l 628 775 l 721 717 l 658 621 m 251 321 q 265 228 251 264 l 469 535 q 415 542 442 542 q 292 481 332 542 q 251 321 251 419 m 403 146 q 527 207 488 146 q 567 368 567 268 q 551 461 567 426 l 349 153 q 403 146 376 146 m 378 771 l 531 1056 l 746 1056 l 508 771 l 378 771 z "},"õ":{"ha":817,"x_min":47,"x_max":771,"o":"m 406 -11 q 215 31 296 -11 q 91 148 135 72 q 47 325 47 224 q 92 524 47 439 q 220 653 138 608 q 413 699 303 699 q 603 657 522 699 q 727 540 683 615 q 771 363 771 464 q 726 163 771 247 q 598 34 681 79 q 406 -11 515 -11 m 403 147 q 523 208 483 147 q 563 368 563 269 q 415 540 563 540 q 295 479 335 540 q 256 321 256 418 q 403 147 256 147 m 204 815 q 256 969 210 919 q 364 1018 301 1018 q 418 1007 393 1018 q 476 975 443 996 q 520 951 506 958 q 550 944 535 944 q 593 962 576 944 q 614 1014 610 979 l 704 1014 q 652 860 697 910 q 544 811 607 811 q 492 822 517 811 q 432 853 468 832 q 388 876 403 869 q 358 883 374 883 q 294 815 303 883 l 204 815 z "},"ṍ":{"ha":817,"x_min":47,"x_max":771,"o":"m 406 -11 q 215 31 296 -11 q 91 148 135 72 q 47 325 47 224 q 92 524 47 439 q 220 653 138 608 q 413 699 303 699 q 603 657 522 699 q 727 540 683 615 q 771 363 771 464 q 726 163 771 247 q 598 34 681 79 q 406 -11 515 -11 m 403 147 q 523 208 483 147 q 563 368 563 269 q 415 540 563 540 q 295 479 335 540 q 256 321 256 418 q 403 147 256 147 m 204 815 q 256 969 210 919 q 364 1018 301 1018 q 418 1007 393 1018 q 476 975 443 996 q 520 951 506 958 q 550 944 535 944 q 593 962 576 944 q 614 1014 610 979 l 704 1014 q 652 860 697 910 q 544 811 607 811 q 492 822 517 811 q 432 853 468 832 q 388 876 403 869 q 358 883 374 883 q 294 815 303 883 l 204 815 m 399 1035 l 551 1319 l 767 1319 l 529 1035 l 399 1035 z "},"ṏ":{"ha":817,"x_min":47,"x_max":771,"o":"m 406 -11 q 215 31 296 -11 q 91 148 135 72 q 47 325 47 224 q 92 524 47 439 q 220 653 138 608 q 413 699 303 699 q 603 657 522 699 q 727 540 683 615 q 771 363 771 464 q 726 163 771 247 q 598 34 681 79 q 406 -11 515 -11 m 403 147 q 523 208 483 147 q 563 368 563 269 q 415 540 563 540 q 295 479 335 540 q 256 321 256 418 q 403 147 256 147 m 204 815 q 256 969 210 919 q 364 1018 301 1018 q 418 1007 393 1018 q 476 975 443 996 q 520 951 506 958 q 550 944 535 944 q 593 962 576 944 q 614 1014 610 979 l 704 1014 q 652 860 697 910 q 544 811 607 811 q 492 822 517 811 q 432 853 468 832 q 388 876 403 869 q 358 883 374 883 q 294 815 303 883 l 204 815 m 446 1267 l 431 1083 l 239 1083 l 253 1267 l 446 1267 m 710 1267 l 696 1083 l 503 1083 l 518 1267 l 710 1267 z "},"ȭ":{"ha":817,"x_min":47,"x_max":771,"o":"m 406 -11 q 215 31 296 -11 q 91 148 135 72 q 47 325 47 224 q 92 524 47 439 q 220 653 138 608 q 413 699 303 699 q 603 657 522 699 q 727 540 683 615 q 771 363 771 464 q 726 163 771 247 q 598 34 681 79 q 406 -11 515 -11 m 403 147 q 523 208 483 147 q 563 368 563 269 q 415 540 563 540 q 295 479 335 540 q 256 321 256 418 q 403 147 256 147 m 204 815 q 256 969 210 919 q 364 1018 301 1018 q 418 1007 393 1018 q 476 975 443 996 q 520 951 506 958 q 550 944 535 944 q 593 962 576 944 q 614 1014 610 979 l 704 1014 q 652 860 697 910 q 544 811 607 811 q 492 822 517 811 q 432 853 468 832 q 388 876 403 869 q 358 883 374 883 q 294 815 303 883 l 204 815 m 263 1240 l 697 1240 l 688 1110 l 253 1110 l 263 1240 z "},"œ":{"ha":1247,"x_min":47,"x_max":1204,"o":"m 914 699 q 1124 614 1044 699 q 1204 374 1204 529 q 1200 301 1204 339 l 765 301 q 814 185 771 224 q 932 146 857 146 q 1125 213 1032 146 l 1171 72 q 1058 11 1126 33 q 917 -11 989 -11 q 767 19 832 -11 q 658 104 701 50 q 394 -11 571 -11 q 212 31 290 -11 q 90 149 133 72 q 47 325 47 225 q 92 524 47 439 q 219 653 138 608 q 406 699 300 699 q 672 590 589 699 q 776 671 715 643 q 914 699 838 699 m 917 554 q 769 406 793 554 l 1031 406 q 1000 517 1031 479 q 917 554 969 554 m 403 147 q 519 208 481 147 q 558 368 558 269 q 415 540 558 540 q 295 479 335 540 q 256 321 256 418 q 403 147 256 147 z "},"p":{"ha":851,"x_min":33,"x_max":806,"o":"m 515 699 q 667 659 601 699 q 769 545 733 619 q 806 371 806 471 q 765 173 806 260 q 649 38 724 86 q 479 -11 575 -11 q 269 93 340 -11 l 243 -250 l 33 -250 l 107 682 l 314 682 l 307 600 q 395 672 340 646 q 515 699 450 699 m 438 147 q 555 203 513 147 q 597 357 597 260 q 558 493 597 446 q 444 540 518 540 q 330 484 372 540 q 288 332 288 428 q 326 194 288 242 q 438 147 365 147 z "},"þ":{"ha":851,"x_min":33,"x_max":806,"o":"m 515 699 q 667 659 601 699 q 769 545 733 619 q 806 371 806 471 q 765 173 806 260 q 649 38 724 86 q 479 -11 575 -11 q 269 93 340 -11 l 243 -250 l 33 -250 l 131 979 l 340 979 l 310 603 q 397 673 343 647 q 515 699 451 699 m 438 147 q 555 203 513 147 q 597 357 597 260 q 558 493 597 446 q 444 540 518 540 q 330 484 372 540 q 288 332 288 428 q 326 194 288 242 q 438 147 365 147 z "},"q":{"ha":851,"x_min":47,"x_max":797,"o":"m 797 682 l 724 -250 l 514 -250 l 539 81 q 453 13 506 38 q 338 -11 400 -11 q 185 28 251 -11 q 83 142 119 68 q 47 317 47 217 q 88 515 47 428 q 203 650 129 601 q 372 699 276 699 q 496 672 443 699 q 582 593 549 644 l 589 682 l 797 682 m 408 147 q 522 203 481 147 q 564 356 564 260 q 526 494 564 447 q 415 540 488 540 q 298 484 340 540 q 256 329 256 428 q 295 194 256 242 q 408 147 335 147 z "},"r":{"ha":557,"x_min":54,"x_max":585,"o":"m 585 700 l 583 526 l 454 513 q 335 468 371 504 q 292 356 299 432 l 264 0 l 54 0 l 108 681 l 308 681 l 301 588 q 536 697 374 685 l 585 700 z "},"ŕ":{"ha":557,"x_min":54,"x_max":663,"o":"m 585 700 l 583 526 l 454 513 q 335 468 371 504 q 292 356 299 432 l 264 0 l 54 0 l 108 681 l 308 681 l 301 588 q 536 697 374 685 l 585 700 m 294 771 l 447 1056 l 663 1056 l 425 771 l 294 771 z "},"ř":{"ha":557,"x_min":54,"x_max":625,"o":"m 585 700 l 583 526 l 454 513 q 335 468 371 504 q 292 356 299 432 l 264 0 l 54 0 l 108 681 l 308 681 l 301 588 q 536 697 374 685 l 585 700 m 625 1056 l 422 771 l 297 771 l 139 1056 l 297 1056 l 369 894 l 458 1056 l 625 1056 z "},"ŗ":{"ha":557,"x_min":36,"x_max":585,"o":"m 585 700 l 583 526 l 454 513 q 335 468 371 504 q 292 356 299 432 l 264 0 l 54 0 l 108 681 l 308 681 l 301 588 q 536 697 374 685 l 585 700 m 256 -90 l 249 -181 q 221 -293 243 -244 q 149 -382 199 -342 l 78 -331 q 133 -249 121 -292 l 36 -249 l 49 -90 l 256 -90 z "},"ȑ":{"ha":557,"x_min":54,"x_max":585,"o":"m 585 700 l 583 526 l 454 513 q 335 468 371 504 q 292 356 299 432 l 264 0 l 54 0 l 108 681 l 308 681 l 301 588 q 536 697 374 685 l 585 700 m 135 1056 l 281 1056 l 308 771 l 218 771 l 135 1056 m 328 1056 l 474 1056 l 500 771 l 411 771 l 328 1056 z "},"ṛ":{"ha":557,"x_min":42,"x_max":585,"o":"m 585 700 l 583 526 l 454 513 q 335 468 371 504 q 292 356 299 432 l 264 0 l 54 0 l 108 681 l 308 681 l 301 588 q 536 697 374 685 l 585 700 m 249 -93 l 233 -276 l 42 -276 l 57 -93 l 249 -93 z "},"ȓ":{"ha":557,"x_min":54,"x_max":622,"o":"m 585 700 l 583 526 l 454 513 q 335 468 371 504 q 292 356 299 432 l 264 0 l 54 0 l 108 681 l 308 681 l 301 588 q 536 697 374 685 l 585 700 m 372 1039 q 530 987 461 1039 q 622 838 599 935 l 522 796 q 454 880 496 853 q 363 907 413 907 q 200 796 267 907 l 106 838 q 209 987 136 935 q 372 1039 282 1039 z "},"ṟ":{"ha":557,"x_min":-76,"x_max":585,"o":"m 585 700 l 583 526 l 454 513 q 335 468 371 504 q 292 356 299 432 l 264 0 l 54 0 l 108 681 l 308 681 l 301 588 q 536 697 374 685 l 585 700 m -68 -124 l 367 -124 l 358 -246 l -76 -246 l -68 -124 z "},"s":{"ha":676,"x_min":14,"x_max":643,"o":"m 329 -11 q 14 72 156 -11 l 82 217 q 204 158 139 179 q 333 138 269 138 q 413 153 388 138 q 439 193 439 168 q 408 238 439 222 q 307 274 376 253 q 185 314 233 293 q 103 375 138 335 q 68 479 68 415 q 106 593 68 543 q 213 671 144 643 q 368 699 281 699 q 519 676 446 699 q 643 614 593 653 l 576 475 q 472 531 526 513 q 364 550 418 550 q 283 535 311 550 q 256 492 256 519 q 287 447 256 463 q 388 411 318 431 q 509 371 461 392 q 592 310 557 350 q 626 206 626 269 q 547 47 626 104 q 329 -11 467 -11 z "},"ś":{"ha":676,"x_min":14,"x_max":689,"o":"m 329 -11 q 14 72 156 -11 l 82 217 q 204 158 139 179 q 333 138 269 138 q 413 153 388 138 q 439 193 439 168 q 408 238 439 222 q 307 274 376 253 q 185 314 233 293 q 103 375 138 335 q 68 479 68 415 q 106 593 68 543 q 213 671 144 643 q 368 699 281 699 q 519 676 446 699 q 643 614 593 653 l 576 475 q 472 531 526 513 q 364 550 418 550 q 283 535 311 550 q 256 492 256 519 q 287 447 256 463 q 388 411 318 431 q 509 371 461 392 q 592 310 557 350 q 626 206 626 269 q 547 47 626 104 q 329 -11 467 -11 m 321 771 l 474 1056 l 689 1056 l 451 771 l 321 771 z "},"ṥ":{"ha":676,"x_min":14,"x_max":713,"o":"m 329 -11 q 14 72 156 -11 l 82 217 q 204 158 139 179 q 333 138 269 138 q 413 153 388 138 q 439 193 439 168 q 408 238 439 222 q 307 274 376 253 q 185 314 233 293 q 103 375 138 335 q 68 479 68 415 q 106 593 68 543 q 213 671 144 643 q 368 699 281 699 q 519 676 446 699 q 643 614 593 653 l 576 475 q 472 531 526 513 q 364 550 418 550 q 283 535 311 550 q 256 492 256 519 q 287 447 256 463 q 388 411 318 431 q 509 371 461 392 q 592 310 557 350 q 626 206 626 269 q 547 47 626 104 q 329 -11 467 -11 m 344 771 l 497 1056 l 713 1056 l 475 771 l 344 771 m 375 1053 l 360 857 l 135 857 l 150 1053 l 375 1053 z "},"š":{"ha":676,"x_min":14,"x_max":651,"o":"m 329 -11 q 14 72 156 -11 l 82 217 q 204 158 139 179 q 333 138 269 138 q 413 153 388 138 q 439 193 439 168 q 408 238 439 222 q 307 274 376 253 q 185 314 233 293 q 103 375 138 335 q 68 479 68 415 q 106 593 68 543 q 213 671 144 643 q 368 699 281 699 q 519 676 446 699 q 643 614 593 653 l 576 475 q 472 531 526 513 q 364 550 418 550 q 283 535 311 550 q 256 492 256 519 q 287 447 256 463 q 388 411 318 431 q 509 371 461 392 q 592 310 557 350 q 626 206 626 269 q 547 47 626 104 q 329 -11 467 -11 m 651 1056 l 449 771 l 324 771 l 165 1056 l 324 1056 l 396 894 l 485 1056 l 651 1056 z "},"ṧ":{"ha":676,"x_min":14,"x_max":651,"o":"m 329 -11 q 14 72 156 -11 l 82 217 q 204 158 139 179 q 333 138 269 138 q 413 153 388 138 q 439 193 439 168 q 408 238 439 222 q 307 274 376 253 q 185 314 233 293 q 103 375 138 335 q 68 479 68 415 q 106 593 68 543 q 213 671 144 643 q 368 699 281 699 q 519 676 446 699 q 643 614 593 653 l 576 475 q 472 531 526 513 q 364 550 418 550 q 283 535 311 550 q 256 492 256 519 q 287 447 256 463 q 388 411 318 431 q 509 371 461 392 q 592 310 557 350 q 626 206 626 269 q 547 47 626 104 q 329 -11 467 -11 m 651 1056 l 449 771 l 324 771 l 165 1056 l 324 1056 l 396 894 l 485 1056 l 651 1056 m 538 1274 l 522 1078 l 297 1078 l 313 1274 l 538 1274 z "},"ş":{"ha":676,"x_min":14,"x_max":643,"o":"m 256 492 q 287 447 256 463 q 388 411 318 431 q 509 371 461 392 q 592 310 557 350 q 626 206 626 269 q 553 51 626 108 q 353 -11 479 -6 l 343 -56 l 353 -56 q 436 -81 404 -56 q 468 -150 468 -106 q 419 -238 468 -203 q 283 -274 369 -274 q 209 -267 246 -274 q 144 -249 172 -261 l 165 -168 q 278 -187 228 -187 q 339 -151 339 -187 q 297 -125 339 -125 q 246 -133 274 -125 l 221 -104 l 242 -6 q 14 72 122 8 l 82 217 q 204 158 139 179 q 333 138 269 138 q 413 153 388 138 q 439 193 439 168 q 408 238 439 222 q 307 274 376 253 q 185 314 233 293 q 103 375 138 335 q 68 479 68 415 q 106 593 68 543 q 213 671 144 643 q 368 699 281 699 q 519 676 446 699 q 643 614 593 653 l 576 475 q 472 531 526 513 q 364 550 418 550 q 283 535 311 550 q 256 492 256 519 z "},"ŝ":{"ha":676,"x_min":14,"x_max":643,"o":"m 329 -11 q 14 72 156 -11 l 82 217 q 204 158 139 179 q 333 138 269 138 q 413 153 388 138 q 439 193 439 168 q 408 238 439 222 q 307 274 376 253 q 185 314 233 293 q 103 375 138 335 q 68 479 68 415 q 106 593 68 543 q 213 671 144 643 q 368 699 281 699 q 519 676 446 699 q 643 614 593 653 l 576 475 q 472 531 526 513 q 364 550 418 550 q 283 535 311 550 q 256 492 256 519 q 287 447 256 463 q 388 411 318 431 q 509 371 461 392 q 592 310 557 350 q 626 206 626 269 q 547 47 626 104 q 329 -11 467 -11 m 143 771 l 346 1056 l 471 1056 l 629 771 l 471 771 l 399 932 l 310 771 l 143 771 z "},"ș":{"ha":676,"x_min":14,"x_max":643,"o":"m 329 -11 q 14 72 156 -11 l 82 217 q 204 158 139 179 q 333 138 269 138 q 413 153 388 138 q 439 193 439 168 q 408 238 439 222 q 307 274 376 253 q 185 314 233 293 q 103 375 138 335 q 68 479 68 415 q 106 593 68 543 q 213 671 144 643 q 368 699 281 699 q 519 676 446 699 q 643 614 593 653 l 576 475 q 472 531 526 513 q 364 550 418 550 q 283 535 311 550 q 256 492 256 519 q 287 447 256 463 q 388 411 318 431 q 509 371 461 392 q 592 310 557 350 q 626 206 626 269 q 547 47 626 104 q 329 -11 467 -11 m 408 -90 l 401 -181 q 374 -293 396 -244 q 301 -382 351 -342 l 231 -331 q 286 -249 274 -292 l 189 -249 l 201 -90 l 408 -90 z "},"ṡ":{"ha":676,"x_min":14,"x_max":643,"o":"m 329 -11 q 14 72 156 -11 l 82 217 q 204 158 139 179 q 333 138 269 138 q 413 153 388 138 q 439 193 439 168 q 408 238 439 222 q 307 274 376 253 q 185 314 233 293 q 103 375 138 335 q 68 479 68 415 q 106 593 68 543 q 213 671 144 643 q 368 699 281 699 q 519 676 446 699 q 643 614 593 653 l 576 475 q 472 531 526 513 q 364 550 418 550 q 283 535 311 550 q 256 492 256 519 q 287 447 256 463 q 388 411 318 431 q 509 371 461 392 q 592 310 557 350 q 626 206 626 269 q 547 47 626 104 q 329 -11 467 -11 m 517 1010 l 501 814 l 276 814 l 292 1010 l 517 1010 z "},"ṣ":{"ha":676,"x_min":14,"x_max":643,"o":"m 329 -11 q 14 72 156 -11 l 82 217 q 204 158 139 179 q 333 138 269 138 q 413 153 388 138 q 439 193 439 168 q 408 238 439 222 q 307 274 376 253 q 185 314 233 293 q 103 375 138 335 q 68 479 68 415 q 106 593 68 543 q 213 671 144 643 q 368 699 281 699 q 519 676 446 699 q 643 614 593 653 l 576 475 q 472 531 526 513 q 364 550 418 550 q 283 535 311 550 q 256 492 256 519 q 287 447 256 463 q 388 411 318 431 q 509 371 461 392 q 592 310 557 350 q 626 206 626 269 q 547 47 626 104 q 329 -11 467 -11 m 401 -93 l 386 -276 l 194 -276 l 210 -93 l 401 -93 z "},"ṩ":{"ha":676,"x_min":14,"x_max":643,"o":"m 329 -11 q 14 72 156 -11 l 82 217 q 204 158 139 179 q 333 138 269 138 q 413 153 388 138 q 439 193 439 168 q 408 238 439 222 q 307 274 376 253 q 185 314 233 293 q 103 375 138 335 q 68 479 68 415 q 106 593 68 543 q 213 671 144 643 q 368 699 281 699 q 519 676 446 699 q 643 614 593 653 l 576 475 q 472 531 526 513 q 364 550 418 550 q 283 535 311 550 q 256 492 256 519 q 287 447 256 463 q 388 411 318 431 q 509 371 461 392 q 592 310 557 350 q 626 206 626 269 q 547 47 626 104 q 329 -11 467 -11 m 401 -93 l 386 -276 l 194 -276 l 210 -93 l 401 -93 m 517 1010 l 501 814 l 276 814 l 292 1010 l 517 1010 z "},"ß":{"ha":943,"x_min":54,"x_max":906,"o":"m 103 618 q 219 896 117 801 q 501 990 321 990 q 713 940 636 990 q 789 801 789 889 q 760 697 789 740 q 678 604 731 654 q 625 547 642 569 q 608 501 608 525 q 633 461 608 476 q 711 428 658 446 q 810 386 772 407 q 877 326 849 365 q 906 225 906 288 q 869 102 906 156 q 766 19 833 49 q 606 -11 699 -11 q 457 11 529 -11 q 331 72 385 33 l 397 217 q 624 143 515 143 q 689 159 665 143 q 713 204 713 175 q 685 248 713 232 q 603 282 658 264 q 505 323 542 304 q 441 378 468 342 q 414 471 414 414 q 440 565 414 525 q 519 658 467 604 q 574 717 556 693 q 592 767 592 742 q 490 840 592 840 q 315 649 329 840 l 264 0 l 54 0 l 103 618 z "},"t":{"ha":538,"x_min":21,"x_max":543,"o":"m 339 268 q 447 143 329 143 q 511 147 474 143 l 488 -4 q 410 -11 447 -11 q 199 50 269 -11 q 128 231 128 111 q 129 268 128 256 l 150 525 l 21 525 l 33 682 l 163 682 l 178 882 l 388 882 l 372 682 l 543 682 l 532 525 l 360 525 l 339 268 z "},"ŧ":{"ha":551,"x_min":28,"x_max":550,"o":"m 367 525 l 361 460 l 504 460 l 494 314 l 350 314 l 346 268 q 454 143 336 143 q 518 147 481 143 l 494 -4 q 417 -11 454 -11 q 206 50 276 -11 q 135 231 135 111 q 136 268 135 256 l 140 314 l 39 314 l 50 460 l 151 460 l 157 525 l 28 525 l 40 682 l 169 682 l 185 882 l 394 882 l 379 682 l 550 682 l 539 525 l 367 525 z "},"ť":{"ha":538,"x_min":21,"x_max":622,"o":"m 622 979 l 554 738 l 438 738 l 461 979 l 622 979 m 372 682 l 543 682 l 532 525 l 360 525 l 339 268 q 447 143 329 143 q 511 147 474 143 l 488 -4 q 410 -11 447 -11 q 199 50 269 -11 q 128 231 128 111 q 129 268 128 256 l 150 525 l 21 525 l 33 682 l 163 682 l 178 882 l 388 882 l 372 682 z "},"ţ":{"ha":538,"x_min":21,"x_max":543,"o":"m 339 268 q 447 143 329 143 q 511 147 474 143 l 488 -4 q 410 -11 447 -11 q 351 -8 390 -11 l 342 -56 l 351 -56 q 435 -81 403 -56 q 467 -150 467 -106 q 417 -238 467 -203 q 282 -274 368 -274 q 208 -267 244 -274 q 143 -249 171 -261 l 164 -168 q 276 -187 226 -187 q 338 -151 338 -187 q 296 -125 338 -125 q 244 -133 272 -125 l 219 -104 l 246 19 q 128 232 128 75 q 129 268 128 256 l 150 525 l 21 525 l 33 682 l 163 682 l 178 882 l 388 882 l 372 682 l 543 682 l 532 525 l 360 525 l 339 268 z "},"ț":{"ha":538,"x_min":21,"x_max":543,"o":"m 339 268 q 447 143 329 143 q 511 147 474 143 l 488 -4 q 410 -11 447 -11 q 199 50 269 -11 q 128 231 128 111 q 129 268 128 256 l 150 525 l 21 525 l 33 682 l 163 682 l 178 882 l 388 882 l 372 682 l 543 682 l 532 525 l 360 525 l 339 268 m 407 -90 l 400 -181 q 372 -293 394 -244 q 300 -382 350 -342 l 229 -331 q 285 -249 272 -292 l 188 -249 l 200 -90 l 407 -90 z "},"ẗ":{"ha":538,"x_min":21,"x_max":543,"o":"m 339 268 q 447 143 329 143 q 511 147 474 143 l 488 -4 q 410 -11 447 -11 q 199 50 269 -11 q 128 231 128 111 q 129 268 128 256 l 150 525 l 21 525 l 33 682 l 163 682 l 178 882 l 388 882 l 372 682 l 543 682 l 532 525 l 360 525 l 339 268 m 271 1165 l 256 983 l 64 983 l 78 1165 l 271 1165 m 535 1165 l 521 983 l 328 983 l 343 1165 l 535 1165 z "},"ṭ":{"ha":538,"x_min":21,"x_max":543,"o":"m 339 268 q 447 143 329 143 q 511 147 474 143 l 488 -4 q 410 -11 447 -11 q 199 50 269 -11 q 128 231 128 111 q 129 268 128 256 l 150 525 l 21 525 l 33 682 l 163 682 l 178 882 l 388 882 l 372 682 l 543 682 l 532 525 l 360 525 l 339 268 m 400 -93 l 385 -276 l 193 -276 l 208 -93 l 400 -93 z "},"ṯ":{"ha":538,"x_min":21,"x_max":543,"o":"m 339 268 q 447 143 329 143 q 511 147 474 143 l 488 -4 q 410 -11 447 -11 q 199 50 269 -11 q 128 231 128 111 q 129 268 128 256 l 150 525 l 21 525 l 33 682 l 163 682 l 178 882 l 388 882 l 372 682 l 543 682 l 532 525 l 360 525 l 339 268 m 83 -124 l 518 -124 l 510 -246 l 75 -246 l 83 -124 z "},"u":{"ha":818,"x_min":69,"x_max":764,"o":"m 764 682 l 710 0 l 506 0 l 513 88 q 421 15 476 40 q 297 -11 365 -11 q 128 51 186 -11 q 69 233 69 114 q 71 278 69 263 l 103 682 l 313 682 l 281 290 q 301 188 275 222 q 383 153 328 153 q 481 194 444 153 q 524 304 518 235 l 554 682 l 764 682 z "},"ú":{"ha":818,"x_min":69,"x_max":764,"o":"m 764 682 l 710 0 l 506 0 l 513 88 q 421 15 476 40 q 297 -11 365 -11 q 128 51 186 -11 q 69 233 69 114 q 71 278 69 263 l 103 682 l 313 682 l 281 290 q 301 188 275 222 q 383 153 328 153 q 481 194 444 153 q 524 304 518 235 l 554 682 l 764 682 m 376 771 l 529 1056 l 744 1056 l 507 771 l 376 771 z "},"ŭ":{"ha":818,"x_min":69,"x_max":764,"o":"m 764 682 l 710 0 l 506 0 l 513 88 q 421 15 476 40 q 297 -11 365 -11 q 128 51 186 -11 q 69 233 69 114 q 71 278 69 263 l 103 682 l 313 682 l 281 290 q 301 188 275 222 q 383 153 328 153 q 481 194 444 153 q 524 304 518 235 l 554 682 l 764 682 m 451 801 q 294 853 363 801 q 201 1003 225 906 l 301 1043 q 369 960 328 986 q 461 933 411 933 q 624 1043 556 933 l 717 1003 q 615 853 688 904 q 451 801 542 801 z "},"û":{"ha":818,"x_min":69,"x_max":764,"o":"m 764 682 l 710 0 l 506 0 l 513 88 q 421 15 476 40 q 297 -11 365 -11 q 128 51 186 -11 q 69 233 69 114 q 71 278 69 263 l 103 682 l 313 682 l 281 290 q 301 188 275 222 q 383 153 328 153 q 481 194 444 153 q 524 304 518 235 l 554 682 l 764 682 m 199 771 l 401 1056 l 526 1056 l 685 771 l 526 771 l 454 932 l 365 771 l 199 771 z "},"ȕ":{"ha":818,"x_min":69,"x_max":764,"o":"m 764 682 l 710 0 l 506 0 l 513 88 q 421 15 476 40 q 297 -11 365 -11 q 128 51 186 -11 q 69 233 69 114 q 71 278 69 263 l 103 682 l 313 682 l 281 290 q 301 188 275 222 q 383 153 328 153 q 481 194 444 153 q 524 304 518 235 l 554 682 l 764 682 m 217 1056 l 363 1056 l 390 771 l 300 771 l 217 1056 m 410 1056 l 556 1056 l 582 771 l 493 771 l 410 1056 z "},"ü":{"ha":818,"x_min":69,"x_max":764,"o":"m 764 682 l 710 0 l 506 0 l 513 88 q 421 15 476 40 q 297 -11 365 -11 q 128 51 186 -11 q 69 233 69 114 q 71 278 69 263 l 103 682 l 313 682 l 281 290 q 301 188 275 222 q 383 153 328 153 q 481 194 444 153 q 524 304 518 235 l 554 682 l 764 682 m 424 1003 l 408 819 l 217 819 l 231 1003 l 424 1003 m 688 1003 l 674 819 l 481 819 l 496 1003 l 688 1003 z "},"ụ":{"ha":818,"x_min":69,"x_max":764,"o":"m 764 682 l 710 0 l 506 0 l 513 88 q 421 15 476 40 q 297 -11 365 -11 q 128 51 186 -11 q 69 233 69 114 q 71 278 69 263 l 103 682 l 313 682 l 281 290 q 301 188 275 222 q 383 153 328 153 q 481 194 444 153 q 524 304 518 235 l 554 682 l 764 682 m 469 -93 l 454 -276 l 263 -276 l 278 -93 l 469 -93 z "},"ù":{"ha":818,"x_min":69,"x_max":764,"o":"m 764 682 l 710 0 l 506 0 l 513 88 q 421 15 476 40 q 297 -11 365 -11 q 128 51 186 -11 q 69 233 69 114 q 71 278 69 263 l 103 682 l 313 682 l 281 290 q 301 188 275 222 q 383 153 328 153 q 481 194 444 153 q 524 304 518 235 l 554 682 l 764 682 m 193 1056 l 388 1056 l 507 771 l 376 771 l 193 1056 z "},"ủ":{"ha":818,"x_min":69,"x_max":764,"o":"m 764 682 l 710 0 l 506 0 l 513 88 q 421 15 476 40 q 297 -11 365 -11 q 128 51 186 -11 q 69 233 69 114 q 71 278 69 263 l 103 682 l 313 682 l 281 290 q 301 188 275 222 q 383 153 328 153 q 481 194 444 153 q 524 304 518 235 l 554 682 l 764 682 m 496 771 l 392 771 l 394 806 q 410 853 396 835 q 451 894 424 871 q 476 917 468 907 q 485 938 485 926 q 442 967 485 967 q 371 954 408 967 l 349 1038 q 478 1058 411 1058 q 584 1031 546 1058 q 622 961 622 1003 q 603 905 622 926 q 549 858 585 883 q 511 828 524 842 q 497 799 499 815 l 496 771 z "},"ư":{"ha":851,"x_min":69,"x_max":932,"o":"m 932 856 l 928 803 q 876 667 922 724 q 757 592 829 610 l 710 0 l 506 0 l 513 88 q 421 15 476 40 q 297 -11 365 -11 q 128 51 186 -11 q 69 233 69 114 q 71 278 69 263 l 103 682 l 313 682 l 281 290 q 301 188 275 222 q 383 153 328 153 q 481 194 444 153 q 524 304 518 235 l 554 682 l 613 682 q 714 715 682 682 q 750 828 746 749 l 751 856 l 932 856 z "},"ứ":{"ha":851,"x_min":69,"x_max":932,"o":"m 932 856 l 928 803 q 876 667 922 724 q 757 592 829 610 l 710 0 l 506 0 l 513 88 q 421 15 476 40 q 297 -11 365 -11 q 128 51 186 -11 q 69 233 69 114 q 71 278 69 263 l 103 682 l 313 682 l 281 290 q 301 188 275 222 q 383 153 328 153 q 481 194 444 153 q 524 304 518 235 l 554 682 l 613 682 q 714 715 682 682 q 750 828 746 749 l 751 856 l 932 856 m 378 771 l 531 1056 l 746 1056 l 508 771 l 378 771 z "},"ự":{"ha":851,"x_min":69,"x_max":932,"o":"m 932 856 l 928 803 q 876 667 922 724 q 757 592 829 610 l 710 0 l 506 0 l 513 88 q 421 15 476 40 q 297 -11 365 -11 q 128 51 186 -11 q 69 233 69 114 q 71 278 69 263 l 103 682 l 313 682 l 281 290 q 301 188 275 222 q 383 153 328 153 q 481 194 444 153 q 524 304 518 235 l 554 682 l 613 682 q 714 715 682 682 q 750 828 746 749 l 751 856 l 932 856 m 471 -93 l 456 -276 l 264 -276 l 279 -93 l 471 -93 z "},"ừ":{"ha":851,"x_min":69,"x_max":932,"o":"m 932 856 l 928 803 q 876 667 922 724 q 757 592 829 610 l 710 0 l 506 0 l 513 88 q 421 15 476 40 q 297 -11 365 -11 q 128 51 186 -11 q 69 233 69 114 q 71 278 69 263 l 103 682 l 313 682 l 281 290 q 301 188 275 222 q 383 153 328 153 q 481 194 444 153 q 524 304 518 235 l 554 682 l 613 682 q 714 715 682 682 q 750 828 746 749 l 751 856 l 932 856 m 194 1056 l 389 1056 l 508 771 l 378 771 l 194 1056 z "},"ử":{"ha":851,"x_min":69,"x_max":932,"o":"m 932 856 l 928 803 q 876 667 922 724 q 757 592 829 610 l 710 0 l 506 0 l 513 88 q 421 15 476 40 q 297 -11 365 -11 q 128 51 186 -11 q 69 233 69 114 q 71 278 69 263 l 103 682 l 313 682 l 281 290 q 301 188 275 222 q 383 153 328 153 q 481 194 444 153 q 524 304 518 235 l 554 682 l 613 682 q 714 715 682 682 q 750 828 746 749 l 751 856 l 932 856 m 497 771 l 393 771 l 396 806 q 411 853 397 835 q 453 894 425 871 q 478 917 469 907 q 486 938 486 926 q 443 967 486 967 q 372 954 410 967 l 350 1038 q 479 1058 413 1058 q 585 1031 547 1058 q 624 961 624 1003 q 605 905 624 926 q 550 858 586 883 q 513 828 525 842 q 499 799 500 815 l 497 771 z "},"ữ":{"ha":851,"x_min":69,"x_max":932,"o":"m 932 856 l 928 803 q 876 667 922 724 q 757 592 829 610 l 710 0 l 506 0 l 513 88 q 421 15 476 40 q 297 -11 365 -11 q 128 51 186 -11 q 69 233 69 114 q 71 278 69 263 l 103 682 l 313 682 l 281 290 q 301 188 275 222 q 383 153 328 153 q 481 194 444 153 q 524 304 518 235 l 554 682 l 613 682 q 714 715 682 682 q 750 828 746 749 l 751 856 l 932 856 m 204 815 q 256 969 210 919 q 364 1018 301 1018 q 418 1007 393 1018 q 476 975 443 996 q 520 951 506 958 q 550 944 535 944 q 593 962 576 944 q 614 1014 610 979 l 704 1014 q 652 860 697 910 q 544 811 607 811 q 492 822 517 811 q 432 853 468 832 q 388 876 403 869 q 358 883 374 883 q 294 815 303 883 l 204 815 z "},"ű":{"ha":818,"x_min":69,"x_max":764,"o":"m 764 682 l 710 0 l 506 0 l 513 88 q 421 15 476 40 q 297 -11 365 -11 q 128 51 186 -11 q 69 233 69 114 q 71 278 69 263 l 103 682 l 313 682 l 281 290 q 301 188 275 222 q 383 153 328 153 q 481 194 444 153 q 524 304 518 235 l 554 682 l 764 682 m 300 771 l 367 1056 l 524 1056 l 390 771 l 300 771 m 493 771 l 560 1056 l 715 1056 l 582 771 l 493 771 z "},"ȗ":{"ha":818,"x_min":69,"x_max":764,"o":"m 764 682 l 710 0 l 506 0 l 513 88 q 421 15 476 40 q 297 -11 365 -11 q 128 51 186 -11 q 69 233 69 114 q 71 278 69 263 l 103 682 l 313 682 l 281 290 q 301 188 275 222 q 383 153 328 153 q 481 194 444 153 q 524 304 518 235 l 554 682 l 764 682 m 454 1039 q 612 987 543 1039 q 704 838 681 935 l 604 796 q 536 880 578 853 q 444 907 494 907 q 282 796 349 907 l 188 838 q 291 987 218 935 q 454 1039 364 1039 z "},"ū":{"ha":818,"x_min":69,"x_max":764,"o":"m 764 682 l 710 0 l 506 0 l 513 88 q 421 15 476 40 q 297 -11 365 -11 q 128 51 186 -11 q 69 233 69 114 q 71 278 69 263 l 103 682 l 313 682 l 281 290 q 301 188 275 222 q 383 153 328 153 q 481 194 444 153 q 524 304 518 235 l 554 682 l 764 682 m 240 976 l 675 976 l 665 846 l 231 846 l 240 976 z "},"ṻ":{"ha":818,"x_min":69,"x_max":764,"o":"m 764 682 l 710 0 l 506 0 l 513 88 q 421 15 476 40 q 297 -11 365 -11 q 128 51 186 -11 q 69 233 69 114 q 71 278 69 263 l 103 682 l 313 682 l 281 290 q 301 188 275 222 q 383 153 328 153 q 481 194 444 153 q 524 304 518 235 l 554 682 l 764 682 m 240 976 l 675 976 l 665 846 l 231 846 l 240 976 m 444 1267 l 429 1083 l 238 1083 l 251 1267 l 444 1267 m 708 1267 l 694 1083 l 501 1083 l 517 1267 l 708 1267 z "},"ų":{"ha":818,"x_min":69,"x_max":764,"o":"m 647 -165 q 726 -147 676 -165 l 742 -246 q 611 -274 678 -274 q 484 -233 532 -274 q 436 -126 436 -192 q 506 7 436 -44 l 513 88 q 421 15 476 40 q 297 -11 365 -11 q 128 51 186 -11 q 69 233 69 114 q 71 278 69 263 l 103 682 l 313 682 l 281 290 q 301 188 275 222 q 383 153 328 153 q 481 194 444 153 q 524 304 518 235 l 554 682 l 764 682 l 710 0 l 688 0 q 604 -27 635 0 q 574 -94 574 -54 q 594 -147 574 -128 q 647 -165 614 -165 z "},"ů":{"ha":818,"x_min":69,"x_max":764,"o":"m 764 682 l 710 0 l 506 0 l 513 88 q 421 15 476 40 q 297 -11 365 -11 q 128 51 186 -11 q 69 233 69 114 q 71 278 69 263 l 103 682 l 313 682 l 281 290 q 301 188 275 222 q 383 153 328 153 q 481 194 444 153 q 524 304 518 235 l 554 682 l 764 682 m 453 764 q 345 807 389 764 q 301 914 301 850 q 345 1019 301 976 q 453 1063 389 1063 q 560 1019 517 1063 q 604 914 604 976 q 560 807 604 850 q 453 764 517 764 m 453 850 q 496 868 479 850 q 513 914 513 886 q 496 958 513 940 q 453 976 479 976 q 410 958 426 976 q 393 914 393 940 q 410 868 393 886 q 453 850 426 850 z "},"ũ":{"ha":818,"x_min":69,"x_max":764,"o":"m 764 682 l 710 0 l 506 0 l 513 88 q 421 15 476 40 q 297 -11 365 -11 q 128 51 186 -11 q 69 233 69 114 q 71 278 69 263 l 103 682 l 313 682 l 281 290 q 301 188 275 222 q 383 153 328 153 q 481 194 444 153 q 524 304 518 235 l 554 682 l 764 682 m 203 815 q 254 969 208 919 q 363 1018 300 1018 q 417 1007 392 1018 q 475 975 442 996 q 519 951 504 958 q 549 944 533 944 q 592 962 575 944 q 613 1014 608 979 l 703 1014 q 651 860 696 910 q 543 811 606 811 q 491 822 515 811 q 431 853 467 832 q 387 876 401 869 q 357 883 372 883 q 293 815 301 883 l 203 815 z "},"ṹ":{"ha":818,"x_min":69,"x_max":765,"o":"m 764 682 l 710 0 l 506 0 l 513 88 q 421 15 476 40 q 297 -11 365 -11 q 128 51 186 -11 q 69 233 69 114 q 71 278 69 263 l 103 682 l 313 682 l 281 290 q 301 188 275 222 q 383 153 328 153 q 481 194 444 153 q 524 304 518 235 l 554 682 l 764 682 m 203 815 q 254 969 208 919 q 363 1018 300 1018 q 417 1007 392 1018 q 475 975 442 996 q 519 951 504 958 q 549 944 533 944 q 592 962 575 944 q 613 1014 608 979 l 703 1014 q 651 860 696 910 q 543 811 606 811 q 491 822 515 811 q 431 853 467 832 q 387 876 401 869 q 357 883 372 883 q 293 815 301 883 l 203 815 m 397 1035 l 550 1319 l 765 1319 l 528 1035 l 397 1035 z "},"v":{"ha":742,"x_min":11,"x_max":786,"o":"m 786 681 l 432 0 l 254 0 l 11 681 l 224 681 l 367 249 l 576 681 l 786 681 z "},"w":{"ha":1199,"x_min":25,"x_max":1229,"o":"m 1229 682 l 899 0 l 721 0 l 599 386 l 425 0 l 249 0 l 25 682 l 233 682 l 363 250 l 556 682 l 697 682 l 824 246 l 1019 682 l 1229 682 z "},"ẃ":{"ha":1199,"x_min":25,"x_max":1229,"o":"m 1229 682 l 899 0 l 721 0 l 599 386 l 425 0 l 249 0 l 25 682 l 233 682 l 363 250 l 556 682 l 697 682 l 824 246 l 1019 682 l 1229 682 m 569 771 l 722 1056 l 938 1056 l 700 771 l 569 771 z "}}}
